<?xml version="1.0" encoding="UTF-8"?>
<svg id="Layer_2" data-name="Layer 2" xmlns="http://www.w3.org/2000/svg" width="311.4" height="311.4" viewBox="0 0 311.4 311.4">
  <g id="Layer_2-2" data-name="Layer 2">
    <circle cx="155.7" cy="155.7" r="155.7" style="fill: #01439e;"/>
    <circle cx="155.7" cy="155.7" r="142.47" style="fill: #fffef5;"/>
    <g>
      <path d="M151.14,96.06c50.75,0,100.36,4.11,131.73,8.74-20.2-50.36-69.47-85.93-127.05-85.93S48.68,54.63,28.59,105.22c26.24-4.25,77.56-9.16,122.55-9.16Z" style="fill: #f48101;"/>
      <path d="M151.11,213.58c-46.6,0-97.9-4.64-123.13-8.97,19.69,51.42,69.49,87.93,127.83,87.93s107.77-36.24,127.61-87.34c-31.67,4.53-82.14,8.38-132.31,8.38Z" style="fill: #f48101;"/>
    </g>
    <text transform="translate(113.24 201.15) scale(1.08 1)" style="font-family: Inter-Bold, Inter; font-size: 118.02px; font-variation-settings: &apos;opsz&apos; 14, &apos;wght&apos; 700; font-weight: 700; letter-spacing: -.06em;"><tspan x="0" y="0">T</tspan></text>
  </g>
</svg>