<?xml version="1.0" encoding="UTF-8"?>
<svg id="Layer_2" data-name="Layer 2" xmlns="http://www.w3.org/2000/svg" width="311.4" height="311.4" viewBox="0 0 311.4 311.4">
  <g id="Layer_2-2" data-name="Layer 2">
    <circle cx="155.7" cy="155.7" r="155.7" style="fill: #01439e;"/>
    <circle cx="155.7" cy="155.7" r="142.47" style="fill: #fffef5;"/>
    <g>
      <path d="M151.14,96.06c50.75,0,100.36,4.11,131.73,8.74-20.2-50.36-69.47-85.93-127.05-85.93S48.68,54.63,28.59,105.22c26.24-4.25,77.56-9.16,122.55-9.16Z" style="fill: #f48101;"/>
      <path d="M151.11,213.58c-46.6,0-97.9-4.64-123.13-8.97,19.69,51.42,69.49,87.93,127.83,87.93s107.77-36.24,127.61-87.34c-31.67,4.53-82.14,8.38-132.31,8.38Z" style="fill: #f48101;"/>
    </g>
    <path d="M38.58,141.2v-7.22h29.69v7.22h-9.72v41.26l212.88.02v8.03H49.33v-49.3h-10.75Z"/>
    <path d="M64.82,176.5l18.35-42.52h10.06l18.74,42.52h-12.22s-11.02-30.42-11.64-32.7c-.33-1.24-.67-2.51-1.02-3.82h2.02c-.96,3.75-12.12,36.53-12.12,36.53h-12.16ZM76.41,166.63v-8.82h23.97v8.82h-23.97Z"/>
    <path d="M114.28,176.5v-42.52h10.25l14.2,21.52c.72,1.1,1.46,2.3,2.2,3.6.74,1.29,1.5,2.73,2.28,4.31.77,1.58,1.54,3.36,2.31,5.34h-.93c-.14-1.58-.27-3.26-.38-5.05-.11-1.79-.21-3.5-.29-5.14-.08-1.64-.12-3.02-.12-4.17v-20.4h9.41v42.52h-10.28l-12.91-19.52c-.95-1.46-1.82-2.89-2.62-4.27-.8-1.38-1.64-2.9-2.52-4.57-.88-1.67-1.92-3.66-3.12-5.98h1.18c.12,2.05.24,4.02.36,5.91.12,1.88.22,3.59.29,5.12s.11,2.78.11,3.75v19.55h-9.41Z"/>
    <path d="M232.45,176.47v-42.52h10.25l14.2,21.52c.72,1.1,1.46,2.3,2.2,3.6.74,1.29,1.5,2.73,2.28,4.31.77,1.58,1.54,3.36,2.31,5.34h-.93c-.14-1.58-.27-3.26-.38-5.05-.11-1.79-.21-3.5-.29-5.14-.08-1.64-.12-3.02-.12-4.17v-20.4h9.41v42.52h-10.28l-12.91-19.52c-.95-1.46-1.82-2.89-2.62-4.27-.8-1.38-1.64-2.9-2.52-4.57-.88-1.67-1.92-3.66-3.12-5.98h1.18c.12,2.05.24,4.02.36,5.91.12,1.88.22,3.59.29,5.12s.11,2.78.11,3.75v19.55h-9.41Z"/>
    <path d="M157.64,176.5v-42.52h10.2v11.62l-.15,10.84.15,4.25v15.81h-10.2ZM164.42,167.89v-13.93c1.23-1.76,19.29-19.97,19.29-19.97h12.25l-18.97,20.78-.75-.26-11.82,13.39ZM186.56,176.5l-15.33-17.18,5.82-6.51,20.39,23.68h-10.88Z"/>
    <path d="M200.35,175.5v-41.52h27.06v7.22h-17.87v8.27h15.3v8.11h-15.3v9.7h17.92v8.22h-27.12Z"/>
  </g>
</svg>