<?xml version="1.0" encoding="UTF-8"?>
<svg id="Layer_2" data-name="Layer 2" xmlns="http://www.w3.org/2000/svg" width="1354.85" height="49.6" viewBox="0 0 1354.85 49.6">
  <g id="Layer_2-2" data-name="Layer 2">
    <path d="M12.75,45.49V4.29H0V.07h29.69v4.22h-11.72v41.26l-5.23-.06ZM21.98,45.55l1332.88.02v4.03H12.75v-4.11l9.23.06Z"/>
    <path d="M20.25,42.61L38.6.09h2.06l18.74,42.52h-5.22S40.15,10.19,39.53,7.9c-.33-1.24-.67-2.51-1.02-3.82h2.02c-.96,3.75-15.12,38.53-15.12,38.53h-5.16ZM30.84,26.73v-4.82h17.97v4.82h-17.97Z"/>
    <path d="M60.99,42.65V.13h4.25l22.05,34.76c-.14-1.58-.27-3.26-.38-5.05-.11-1.79-.21-3.5-.29-5.14-.08-1.64-.12-3.02-.12-4.17V.13h5.41v42.52h-6.28l-19.99-34.33c.12,2.05.24,4.02.36,5.91.12,1.88.22,3.59.29,5.12s.11,2.78.11,3.75v19.55h-5.41Z"/>
    <path d="M159.68,42.95V.43h4.25l22.05,34.76c-.14-1.58-.27-3.26-.38-5.05-.11-1.79-.21-3.5-.29-5.14-.08-1.64-.12-3.02-.12-4.17V.43h5.41v42.52h-6.28l-19.99-34.33c.12,2.05.24,4.02.36,5.91.12,1.88.22,3.59.29,5.12s.11,2.78.11,3.75v19.55h-5.41Z"/>
    <path d="M96.8,42.52V0h5.2v11.62l-.15,10.84.15,4.25v15.81h-5.2ZM98.58,33.9l2-10.93c1.23-1.76,22.29-22.97,22.29-22.97h7.25l-18.97,20.78-12.57,13.13ZM120.72,42.52l-15.33-17.18,1.82-6.51,20.39,23.68h-6.88Z"/>
    <path d="M133.46,42.77V.25h23.06v4.22h-17.87v14.27h15.3v4.11h-15.3v15.7h17.92v4.22h-23.12Z"/>
  </g>
</svg>