<?xml version="1.0" encoding="UTF-8"?>
<svg id="Layer_1" data-name="Layer 1" xmlns="http://www.w3.org/2000/svg" viewBox="0 0 308.01 518.12">
  <path d="M1.58,248.98c1.16,21.37,1.22,42.79.87,64.19s-1.13,43.96-1.72,65.95-.99,43.19-.56,64.79c.1,5.25.26,10.5.48,15.74s.44,10.62,1.2,15.88c1.34,9.27,5.06,17.67,11.55,24.48,13.14,13.81,32.81,18.63,51.31,18.07,11.27-.34,22.42-2.48,33.34-5.17,5.47-1.35,10.91-2.84,16.34-4.36,4.25-1.18,8.5-2.41,12.6-4.07s7.81-3.61,11.14-6.36,6.06-6.54,7.73-10.73c1.82-4.57,2.49-9.5,3.08-14.35.69-5.65,1.36-11.3,1.85-16.96s.8-11.47.67-17.22-.92-11.3-1.28-16.97-.4-11.25-.6-16.88c-.1-2.87-.22-5.73-.19-8.6s.33-5.53.52-8.3c.81-11.64.31-23.32-.41-34.96-.62-9.99-1.24-19.96-1.57-29.97-.66-20.21-.73-40.43-1.21-60.65-.11-4.51-.24-9.01-.41-13.52-.07-1.92-3.07-1.93-3,0,.74,19.48.8,38.97,1.2,58.46.2,9.7.47,19.4.96,29.08.54,10.74,1.47,21.46,1.75,32.22.15,5.7.13,11.41-.19,17.1-.16,2.87-.49,5.73-.61,8.61-.11,2.71-.04,5.42.05,8.12.19,5.54.25,11.09.54,16.63s1.05,11.11,1.32,16.68c.55,11.34-.7,22.67-2.03,33.92-.58,4.91-1.09,9.88-2.59,14.61-1.38,4.33-3.75,8.11-7.18,11.09-6.5,5.66-15.31,7.99-23.43,10.25-10.7,2.98-21.45,5.89-32.43,7.68-19.24,3.14-40.09,2.44-56.83-8.62-6.92-4.58-12.82-10.9-16.09-18.59-4.04-9.48-3.91-20.3-4.27-30.42-.76-21.12-.57-42.26-.1-63.38s1.26-43.2,1.76-64.8.73-42.46.06-63.68c-.16-5-.37-10-.64-15-.1-1.92-3.11-1.93-3,0h0Z" style="fill: #010101;"/>
  <path d="M106.96,44.97c1.16,4.46.49,9.55-2.14,13.37-1.61,2.34-4.01,3.98-5.66,6.31-.76,1.08-1.4,2.31-1.54,3.64-.18,1.68.31,3.58.51,5.26,1.89,15.94,3.77,31.88,5.66,47.81,1.74,14.69,2.77,29.8,7.06,44.03,2.08,6.91,5.11,13.38,8.96,19.47s7.92,11.41,11.53,17.34c4.2,6.89,7.06,14.27,8.79,22.15s2.51,16.39,3.22,24.65c.16,1.91,3.17,1.93,3,0-1.25-14.52-2.63-29.43-9.26-42.65-6.33-12.62-16.42-22.98-21.49-36.29s-6.45-28.74-8.17-43.27c-1.9-16.1-3.81-32.2-5.71-48.31-.25-2.14-.51-4.27-.76-6.41-.21-1.79-.7-3.42.24-5.05,1.6-2.78,4.42-4.55,6.22-7.18,3.06-4.46,3.79-10.5,2.44-15.69-.49-1.87-3.38-1.08-2.89.8h0Z" style="fill: #010101;"/>
  <path d="M4.53,248.58c-2.11-13.84,5.66-26.69,13.07-37.67,3.87-5.74,7.9-11.41,11.1-17.57s5.48-12.79,7.36-19.48c7.89-28.06,11.98-57.35,12.61-86.47.08-3.89.35-7.91.02-11.79-.28-3.27-1.5-6.31-3.14-9.13s-3.57-5.36-5.28-8.09c-.89-1.42-1.85-2.89-2.06-4.59s.3-3.46.81-5.09c.58-1.84-2.31-2.63-2.89-.8-.93,2.93-1.41,5.93-.18,8.85,1.16,2.76,3.08,5.22,4.74,7.69s3.22,4.82,4.17,7.54c1.08,3.12.9,6.35.88,9.6-.08,14.8-1.09,29.6-3.02,44.28s-4.75,28.95-8.46,43.13c-1.82,6.93-3.87,13.86-6.94,20.36s-6.9,12.05-10.8,17.79c-8.47,12.46-17.31,26.46-14.9,42.23.29,1.9,3.18,1.09,2.89-.8h0Z" style="fill: #010101;"/>
  <path d="M41,19.08c-2.55,1.55-5.08,3.3-7.03,5.59s-3.21,4.88-3.98,7.72c-1.63,6.05-1.73,14.28,5.25,16.85s14.14-1,21.11-1.82c4.29-.5,8.68-.51,12.99-.59s8.66-.08,12.99-.11c8.65-.05,17.34-.16,25.94-1.19,3.35-.4,6.08-1.74,7.23-5.08.98-2.85.54-6.14-.13-9.01-1.41-6.02-4.69-12.33-10.93-14.38-2.54-.83-5.36-1.13-8-1.56-3.01-.49-6.05-.97-9.1-1.15-3.67-.22-7.42,0-11.09.18-3.3.17-6.59.45-9.87.84-6.32.75-12.58,1.86-18.88,2.75-1.91.27-3.82.52-5.73.75s-1.92,3.23,0,3c12.18-1.49,24.22-3.95,36.51-4.43,3.28-.13,6.62-.3,9.9-.03,2.79.23,5.56.66,8.32,1.13,2.45.41,5.12.67,7.47,1.53,2.6.96,4.57,3.05,5.94,5.39,1.47,2.52,2.37,5.38,2.88,8.25.4,2.28.69,5.39-.92,7.29-1.05,1.24-2.71,1.44-4.23,1.6-2.03.22-4.06.4-6.09.54-3.96.28-7.93.42-11.91.49-8.04.15-16.08.02-24.11.28-3.72.12-7.51.15-11.18.78-3.34.57-6.59,1.56-9.93,2.12-3.04.51-6.77.65-9.49-1.04-2.56-1.6-2.98-4.91-2.85-7.67.27-5.54,2.5-10.61,6.89-14.05,1.13-.88,2.34-1.66,3.56-2.4,1.65-1,.14-3.6-1.51-2.59h0Z" style="fill: #010101;"/>
  <path d="M1.96,445.74c4.27,1.01,7.15,4.49,10.89,6.55,4.2,2.32,8.94,3.42,13.65,4.14,10.62,1.62,21.38,2.84,32.1,3.57,20.14,1.39,40.29-.7,59.84-5.66,10.74-2.72,21.26-6.31,31.42-10.72,1.77-.77.24-3.35-1.51-2.59-17.91,7.78-37.11,12.96-56.51,15.22-9.73,1.14-19.53,1.48-29.31.98-10.76-.55-21.47-1.9-32.15-3.28-5.25-.67-10.68-1.5-15.43-3.96-4.24-2.2-7.39-6.03-12.18-7.16-1.88-.45-2.68,2.45-.8,2.89h0Z" style="fill: #010101;"/>
  <path d="M4.84,294.25c9.14,2.39,18.45.34,27.2-2.58s17.51-6.56,26.74-8.38c18.52-3.65,37.83-1.71,55.35,5.24,9.66,3.83,19.67,8.73,30.34,6.59,1.89-.38,1.09-3.27-.8-2.89-9.31,1.86-18.43-2.41-26.85-5.83-8.63-3.51-17.51-5.98-26.77-7.14s-18.36-1-27.44.34c-9.24,1.36-17.89,4.37-26.64,7.52-9.65,3.47-20.07,6.93-30.35,4.24-1.87-.49-2.67,2.4-.8,2.89h0Z" style="fill: #010101;"/>
  <path d="M48.08,35.77l-.08-1.06c-.06-.81-.65-1.5-1.5-1.5s-1.47.69-1.5,1.5c-.15,4.09-.98,8.1-2.43,11.93-.29.76.32,1.64,1.05,1.85.84.23,1.56-.29,1.85-1.05,1.53-4.07,2.37-8.38,2.53-12.73h-3l.08,1.06c.06.81.65,1.5,1.5,1.5.76,0,1.56-.69,1.5-1.5h0Z" style="fill: #010101;"/>
  <path d="M61.47,32.67c.62,3.46.65,7.06.08,10.53-.13.8.21,1.61,1.05,1.85.72.2,1.71-.24,1.85-1.05.67-4.04.65-8.09-.08-12.12-.14-.8-1.12-1.25-1.85-1.05-.84.23-1.19,1.04-1.05,1.85h0Z" style="fill: #010101;"/>
  <path d="M81.12,32.25c.13,3.8.43,7.6.9,11.38.1.8.62,1.5,1.5,1.5.73,0,1.6-.69,1.5-1.5-.47-3.78-.77-7.57-.9-11.38-.03-.81-.67-1.5-1.5-1.5s-1.53.69-1.5,1.5h0Z" style="fill: #010101;"/>
  <path d="M100.18,31.11c-.42,4.31.52,8.69,2.59,12.49.92,1.7,3.51.18,2.59-1.51-1.83-3.36-2.55-7.17-2.18-10.97.08-.81-.75-1.5-1.5-1.5-.88,0-1.42.69-1.5,1.5h0Z" style="fill: #010101;"/>
  <path d="M160.52,254.35c-.26,21.64-.55,43.28-.87,64.92-.32,21.64-.67,43.28-1.04,64.91-.19,10.82-.38,21.64-.59,32.46-.2,10.59-.61,21.19-.51,31.78.09,9.65.89,19.57,4.45,28.63,2.95,7.53,7.64,14.46,14.27,19.22,7.7,5.53,17.21,6.32,26.36,7.24,9.75.99,19.55,1.69,29.35,1.75,19.18.12,38.71-2.25,56.44-9.88,3.8-1.63,7.56-3.66,10.5-6.61,3.17-3.19,4.79-7.19,5.33-11.61.61-4.96.3-10.08.3-15.07,0-5.39-.02-10.79-.04-16.18-.06-21.58-.16-43.16-.14-64.74.02-21.57.16-43.15.57-64.72s1.09-42.96,2.2-64.41c.27-5.3.57-10.6.9-15.9.12-1.93-2.88-1.92-3,0-1.31,21.2-2.17,42.42-2.73,63.65-.55,21.07-.8,42.14-.9,63.21-.1,21.25-.04,42.49.03,63.74.03,10.54.07,21.08.09,31.62,0,5.12.15,10.25-.03,15.37-.16,4.44-1,8.84-4.07,12.24-2.75,3.05-6.46,5.04-10.19,6.67-4.24,1.86-8.67,3.35-13.12,4.6-9.19,2.58-18.67,4.02-28.19,4.64s-19.28.45-28.9-.15c-4.81-.3-9.62-.72-14.42-1.21s-9.48-.88-14.09-2c-8.21-1.99-14.82-7.06-19.42-14.1-4.84-7.4-7.13-16.04-8.01-24.76-1.01-10.13-.48-20.38-.29-30.53.2-10.65.4-21.3.59-31.96.38-21.14.73-42.28,1.06-63.41s.63-42.61.9-63.92c.07-5.16.13-10.32.19-15.48.02-1.93-2.98-1.93-3,0h0Z" style="fill: #010101;"/>
  <path d="M205.47,81.68c-.24,11.55-1.31,23.09-2.76,34.54-.73,5.75-1.66,11.46-2.59,17.18-1.05,6.48-1.88,13.05-3.26,19.48-.67,3.15-1.65,6.18-3.21,9.01-1.45,2.62-3.21,5.05-4.96,7.48-3.36,4.64-6.5,9.42-9.34,14.4-5.74,10.05-10.4,20.77-13.72,31.86-3.68,12.31-5.7,25.23-5.12,38.1.09,1.92,3.09,1.93,3,0-1.04-23.07,6.17-46.19,17.2-66.25,2.75-5.01,5.78-9.87,9.08-14.53,3.52-4.97,7.24-9.76,9.04-15.67s2.51-12.85,3.55-19.22c.96-5.92,1.97-11.83,2.78-17.77,1.75-12.79,3.03-25.7,3.3-38.6.04-1.93-2.96-1.93-3,0h0Z" style="fill: #010101;"/>
  <path d="M259.58,61.36c.44,13.66.88,27.33,1.31,40.99.22,6.83.39,13.66.67,20.49.26,6.32.81,12.67,2.61,18.76,6.03,20.38,23.08,35.17,29.59,55.31.98,3.02,1.84,6.07,2.87,9.07,1.12,3.27,2.3,6.51,3.42,9.78,2.25,6.62,4.27,13.38,4.96,20.36.19,1.9,3.19,1.92,3,0-1.2-12.28-6.21-23.55-9.89-35.19-1.63-5.17-3.27-10.17-5.74-15.02s-5.2-9.16-8.08-13.57c-5.73-8.75-11.97-17.4-15.75-27.22-4.59-11.93-4.08-24.98-4.48-37.56-.49-15.4-.99-30.8-1.48-46.21-.06-1.93-3.06-1.93-3,0h0Z" style="fill: #010101;"/>
  <path d="M204.08,24.02c-2.59,1.75-4.23,4.71-4.1,7.88.07,1.67.62,3.21,1.52,4.61,1.03,1.6,2.23,3.01,2.82,4.84,1.22,3.77.95,8.02,1.05,11.93.11,4.44.17,8.89.19,13.34.02,5.02-.01,10.04-.1,15.06-.03,1.93,2.97,1.93,3,0,.14-8.31.14-16.63-.02-24.94-.07-3.99,0-8.05-.42-12.02-.19-1.76-.5-3.5-1.17-5.15s-1.69-2.94-2.65-4.4c-1.85-2.81-1.54-6.57,1.39-8.56,1.59-1.08.09-3.68-1.51-2.59h0Z" style="fill: #010101;"/>
  <path d="M262.28,26.8c1.21.23,1.64,1.7,1.77,2.78.17,1.48-.47,2.91-1.08,4.22-1.3,2.8-2.86,5.36-3.54,8.4-1.42,6.32-1.06,13.23.21,19.55.38,1.89,3.27,1.09,2.89-.8-.69-3.41-.97-6.9-.95-10.37s.29-6.89,1.47-10.1,3.34-5.76,3.92-9.04c.49-2.81-.69-6.93-3.89-7.54-1.89-.36-2.69,2.53-.8,2.89h0Z" style="fill: #010101;"/>
  <path d="M208.26.83c-4.42,1.56-8.71,3.78-11.05,8.03-1.05,1.92-1.63,4-2.18,6.1-.69,2.64-2.07,5.48-1.42,8.27s3.39,4.26,6.1,4.35c2.91.1,5.8-.95,8.64-1.42,6.9-1.14,13.97-.83,20.91-.27s13.71,1.39,20.6,1.53c3.49.08,6.99-.03,10.45-.44,2.8-.34,5.88-.65,8.19-2.42,5.04-3.86,2.29-10.91.18-15.59-1.22-2.71-2.85-5.15-5.44-6.72s-5.47-2.1-8.35-2.16c-1.82-.04-3.63.17-5.46.12-1.71-.04-3.42-.18-5.14-.2-1.97-.01-3.89.28-5.84.45s-3.98.21-5.97.2c-8.11-.05-16.17-.92-24.24.18-.81.11-1.23,1.14-1.05,1.85.23.87,1.05,1.16,1.85,1.05,6.53-.89,13.14-.37,19.7-.16,3.09.1,6.18.15,9.26-.08,1.52-.11,3.02-.36,4.54-.44s3.16,0,4.75.07c5.06.25,11.04-1.08,15.35,2.34,2.18,1.74,3.31,4.53,4.31,7.05.87,2.18,1.81,4.8,1.29,7.18-.58,2.6-2.99,3.46-5.34,3.91-3.01.57-6.11.77-9.17.83-6.19.13-12.37-.45-18.53-1.01s-12.46-1.16-18.71-.98c-3,.08-5.99.35-8.95.84-2.61.43-5.34,1.49-8.02,1.3-1.21-.08-2.53-.58-2.95-1.82-.4-1.16.03-2.55.35-3.67.69-2.43,1.24-5.01,2.21-7.35,1.8-4.33,5.65-6.49,9.9-7.99,1.81-.64,1.03-3.54-.8-2.89h0Z" style="fill: #010101;"/>
  <path d="M162.79,276.17c18.99,3.2,37.29-4.43,55.34-9.13,9.08-2.36,18.49-4.13,27.9-3.26,9.32.87,18.28,4.18,27.13,7.04,9.84,3.17,20.17,6.33,30.63,5.4,1.91-.17,1.93-3.17,0-3-9.22.82-18.3-1.66-27.01-4.39-8.97-2.82-17.88-6.19-27.22-7.6-18.89-2.86-37.03,4.66-54.98,9.33-10.08,2.62-20.61,4.48-31,2.72-1.89-.32-2.7,2.57-.8,2.89h0Z" style="fill: #010101;"/>
  <path d="M159.56,425.99c5.76,6.6,14.66,8.73,22.93,10.17,10.72,1.86,21.48,3.59,32.28,4.86s21.43,2.01,32.16,1.56c9.32-.4,18.63-1.7,27.7-3.91,9.98-2.43,19.8-6.02,28.62-11.34,1.65-1,.14-3.59-1.51-2.59-15.32,9.25-33.71,13.46-51.42,14.65-21.02,1.41-42.05-1.98-62.73-5.41-9.06-1.5-19.5-2.78-25.91-10.11-1.27-1.46-3.39.67-2.12,2.12h0Z" style="fill: #010101;"/>
  <path d="M208.02,13.22l-1.57,8.87c-.14.77.21,1.65,1.05,1.85.73.17,1.7-.22,1.85-1.05l1.57-8.87c.14-.77-.21-1.65-1.05-1.85-.73-.17-1.7.22-1.85,1.05h0Z" style="fill: #010101;"/>
  <path d="M223.74,14.53c.44,2.61.41,5.72-.09,8.33-.15.77.21,1.66,1.05,1.85.74.17,1.69-.22,1.85-1.05.63-3.3.65-6.62.09-9.93-.13-.78-1.13-1.28-1.85-1.05-.84.27-1.19,1.01-1.05,1.85h0Z" style="fill: #010101;"/>
  <path d="M237.97,14.37l.95,8.88c.08.78.63,1.54,1.5,1.5.74-.03,1.59-.66,1.5-1.5l-.95-8.88c-.08-.78-.63-1.54-1.5-1.5-.74.03-1.59.66-1.5,1.5h0Z" style="fill: #010101;"/>
  <path d="M252.05,15.03c.48,3.37,1.2,6.7,2.16,9.96.23.78,1.06,1.26,1.85,1.05s1.28-1.06,1.05-1.85c-.95-3.27-1.67-6.59-2.16-9.96-.12-.8-1.13-1.24-1.85-1.05-.86.24-1.16,1.04-1.05,1.85h0Z" style="fill: #010101;"/>
</svg>