<?xml version="1.0" encoding="UTF-8"?>
<svg id="Layer_1" data-name="Layer 1" xmlns="http://www.w3.org/2000/svg" viewBox="0 0 168.74 158.57">
  <path d="M41.03,136.53c-6.81.57-13.55,1.88-20.05,3.99-3.01.98-6.14,2.01-8.92,3.55-2.45,1.35-4.61,3.46-5.13,6.31-.49,2.68.59,5.33,3.06,6.62s5.65,1.28,8.45,1.41c7.23.33,14.48.14,21.7-.36s14.46-1.32,21.65-2.27c3.49-.46,6.97-.95,10.46-1.44,3.25-.46,6.61-.76,9.78-1.64,2.86-.79,5.5-2.2,7.29-4.62,1.58-2.13,2.3-4.97,1.37-7.52-1.73-4.77-7.34-6.05-11.82-6.52-13.94-1.48-29.09-2.2-42.12,3.79-1.75.81-.23,3.39,1.51,2.59,10.5-4.83,22.38-4.7,33.67-3.93,4.39.3,9.77.09,13.68,2.47,1.65,1,2.76,2.7,2.47,4.69-.37,2.55-2.52,4.46-4.76,5.45-2.56,1.13-5.44,1.42-8.18,1.82-3.1.45-6.21.89-9.31,1.32-6.41.88-12.83,1.69-19.27,2.29-6.31.59-12.64.98-18.98,1.04-3.21.03-6.42-.02-9.62-.18-2.2-.11-5.32.1-7.13-1.41-2.43-2.02-.21-5.38,1.76-6.71,2.47-1.67,5.52-2.61,8.32-3.56,6.52-2.2,13.28-3.6,20.14-4.18,1.91-.16,1.93-3.16,0-3h0Z" style="fill: #010101;"/>
  <path d="M35.86,86.76c3.05,19.28,4.74,38.75,5.1,58.26.04,1.93,3.04,1.93,3,0-.37-19.78-2.12-39.52-5.21-59.06-.3-1.9-3.19-1.09-2.89.8h0Z" style="fill: #010101;"/>
  <path d="M45.22,86.34c.01,19.4,1.74,38.78,5.12,57.88.34,1.9,3.23,1.09,2.89-.8-3.34-18.84-5.01-37.95-5.02-57.08,0-1.93-3-1.93-3,0h0Z" style="fill: #010101;"/>
  <path d="M5.93,7.47C2.14,23.78-1.66,40.54.76,57.36c1.05,7.33,3.33,14.56,7.12,20.94,1.87,3.16,4.12,6.24,6.85,8.71,2.87,2.6,6.3,4.29,10.07,5.1,13.16,2.83,27.08-2.37,36.55-11.59,4.68-4.55,8.36-10.16,10.5-16.34,2.02-5.82,2.22-12.19,1.59-18.27-1.39-13.48-6.43-26.83-13.41-38.4-.79-1.31-1.61-2.59-2.47-3.85-1.08-1.59-3.68-.09-2.59,1.51,7.11,10.45,12.21,22.62,14.61,35.03,1.15,5.93,1.68,12.19.65,18.18s-3.68,11.36-7.36,15.99c-7.59,9.57-19.53,15.88-31.87,15.48-3.61-.12-7.36-.73-10.57-2.44s-5.63-4.34-7.7-7.2c-4.14-5.7-6.79-12.31-8.27-19.17-3.34-15.5-.49-31.41,2.94-46.62.47-2.06.94-4.12,1.42-6.17.44-1.88-2.46-2.68-2.89-.8h0Z" style="fill: #010101;"/>
  <path d="M6.29,8.68c1.37,3.06,5.48,4.64,8.45,5.61,3.41,1.11,7,1.57,10.55,1.95,4.03.43,8.08.73,12.09.06,3.46-.58,6.75-1.98,9.77-3.73,3.55-2.06,6.77-4.62,9.97-7.17,1.51-1.2-.63-3.31-2.12-2.12-6.61,5.26-13.5,10.34-22.31,10.43-4.38.05-8.92-.45-13.21-1.3-1.95-.39-3.91-.89-5.75-1.67s-4.04-1.75-4.86-3.57-3.37-.23-2.59,1.51h0Z" style="fill: #010101;"/>
  <path d="M7.63,8.96c7.7-2.3,15.35-4.82,23.39-5.61s16-.23,23.78,1.65c1.88.45,2.68-2.44.8-2.89C47.57.17,39.24-.46,31.02.34S14.81,3.68,6.84,6.06c-1.85.55-1.06,3.45.8,2.89h0Z" style="fill: #010101;"/>
  <path d="M130.86,129.67c-7.76-.28-15.53,1.56-22.36,5.24-1.75.95-3.44,2.02-5.03,3.2-1.43,1.06-3.01,2.17-4.06,3.63-2.05,2.85-.37,5.89,2.56,7.11,3.33,1.38,7.33.92,10.84.75,4.13-.2,8.25-.64,12.34-1.29,8.27-1.32,16.39-3.6,24.15-6.77,4.38-1.79,8.64-3.84,12.75-6.17,3.16-1.79,7-4.43,6.68-8.55-.05-.6-.43-1.34-1.1-1.45-13.84-2.12-28.11.41-40.34,7.26-1.68.94-.17,3.54,1.51,2.59,11.47-6.43,25.02-8.95,38.03-6.96l-1.1-1.45c.24,3.11-3.28,4.89-5.58,6.18-3.23,1.82-6.56,3.46-9.96,4.94-6.68,2.89-13.68,5.07-20.81,6.56s-14.7,2.26-22.13,2.23c-1.4,0-5.89-.1-5.77-2.34.07-1.29,1.94-2.45,2.84-3.16,1.41-1.11,2.91-2.11,4.45-3.02,6.68-3.91,14.37-5.82,22.1-5.54,1.93.07,1.93-2.93,0-3h0Z" style="fill: #010101;"/>
  <path d="M131.61,138.21c-2.33-17.56-4.66-35.12-6.99-52.68-.11-.81-.61-1.49-1.5-1.5-.73,0-1.61.7-1.5,1.5,2.33,17.56,4.66,35.12,6.99,52.68.11.81.61,1.49,1.5,1.5.73,0,1.61-.7,1.5-1.5h0Z" style="fill: #010101;"/>
  <path d="M139.83,135.37c-5.56-17.68-8.56-36.09-8.87-54.62-.03-1.93-3.03-1.93-3,0,.31,18.79,3.33,37.5,8.97,55.42.58,1.84,3.47,1.05,2.89-.8h0Z" style="fill: #010101;"/>
  <path d="M88.16,14.37c-3.19,14.3-4.44,29.5-2.5,44.07,1.63,12.21,6.96,24.95,18.6,30.71,5.98,2.96,12.49,3.05,18.89,1.49s12.23-4.22,17.01-8.49c9.16-8.2,10.77-21.07,9.21-32.66-.94-6.99-2.76-14-5.1-20.64-2.47-7.01-5.85-13.62-10.15-19.68-1.11-1.56-3.71-.06-2.59,1.51,3.59,5.06,6.59,10.51,8.85,16.29s3.8,11.62,5.09,17.59c2.25,10.46,2.64,22.73-4.01,31.76-3.49,4.75-8.78,7.99-14.26,9.97-5.83,2.11-12.32,3.38-18.38,1.49-11.62-3.61-17.68-15.48-19.73-26.67-1.35-7.39-1.46-15.06-1.14-22.55.34-7.88,1.39-15.7,3.1-23.39.42-1.88-2.47-2.68-2.89-.8h0Z" style="fill: #010101;"/>
  <path d="M90.39,16.22c7.06,3.71,15.07,5.53,23.05,5.14,6.68-.33,15.62-1.79,19.19-8.24.94-1.69-1.65-3.21-2.59-1.51-1.51,2.73-4.31,4.22-7.19,5.13-3.31,1.05-6.81,1.55-10.27,1.65-7.18.21-14.33-1.42-20.68-4.76-1.71-.9-3.23,1.69-1.51,2.59h0Z" style="fill: #010101;"/>
  <path d="M92.72,15.65c11.34-7.11,25.55-8.87,38.29-4.74,1.84.6,2.63-2.3.8-2.89-13.45-4.36-28.62-2.47-40.6,5.04-1.63,1.02-.13,3.62,1.51,2.59h0Z" style="fill: #010101;"/>
  <path d="M6.58,56.64c.56,3.55,1.68,6.96,2.82,10.36,1.02,3.06,2.11,6.2,4.01,8.84,3.58,4.97,9.22,7.54,14.7,9.85.75.32,1.6.22,2.05-.54.37-.63.21-1.74-.54-2.05-5.04-2.13-10.68-4.44-13.87-9.13-1.74-2.55-2.7-5.5-3.67-8.4-1.06-3.19-2.09-6.39-2.61-9.72-.3-1.9-3.19-1.09-2.89.8h0Z" style="fill: #010101;"/>
  <path d="M94.01,65.05c2.6,10.1,11.96,21.46,23.54,19.37,1.9-.34,1.09-3.23-.8-2.89-4.72.85-9.39-1.63-12.69-4.83-3.5-3.39-5.94-7.74-7.15-12.45-.48-1.87-3.38-1.08-2.89.8h0Z" style="fill: #010101;"/>
</svg>