<?xml version="1.0" encoding="UTF-8"?>
<svg id="Layer_1" data-name="Layer 1" xmlns="http://www.w3.org/2000/svg" viewBox="0 0 168.52 177.76">
  <path d="M46.69,162.61c-5.77-1.72-11.79-1.36-17.66-.36-2.83.48-5.67,1.07-8.46,1.75-2.32.57-4.78,1.48-6.25,3.47-1.2,1.61-1.59,3.9-.81,5.77,1.08,2.6,3.74,2.78,6.2,3.06,6.14.69,12.31,1.13,18.49,1.33,12.52.41,25.07-.17,37.49-1.74,2.98-.38,5.98-.74,8.93-1.32,2.57-.51,5.16-1.36,7.17-3.1,3.42-2.96,4.36-8.65.39-11.57-2.04-1.5-4.73-1.81-7.19-1.8-3.23,0-6.48.31-9.7.49-7.32.4-14.63.8-21.95,1.2-1.92.1-1.93,3.11,0,3,5.65-.31,11.31-.62,16.96-.93,2.74-.15,5.49-.3,8.23-.45,2.44-.13,4.9-.39,7.34-.3,1.69.06,3.7.31,4.97,1.56,1.41,1.41,1.14,3.51.18,5.09-2.44,4.05-8.69,4.22-12.84,4.8-10.82,1.5-21.76,2.22-32.68,2.2-5.45-.01-10.9-.21-16.33-.59-2.76-.2-5.51-.44-8.26-.73-1.67-.18-4.71.13-4.82-2.16s2.21-3.5,4.12-4.07c2.67-.8,5.48-1.3,8.23-1.82,5.77-1.08,11.74-1.59,17.44.11,1.85.55,2.65-2.34.8-2.89h0Z" style="fill: #010101;"/>
  <path d="M47.12,163.31c-1.69-19.83-3.71-39.63-6.07-59.39-.67-5.6-1.37-11.2-2.09-16.79-.24-1.89-3.25-1.91-3,0,2.55,19.74,4.77,39.52,6.64,59.33.53,5.61,1.04,11.23,1.52,16.85.16,1.91,3.16,1.93,3,0h0Z" style="fill: #010101;"/>
  <path d="M55.14,162.14c-2.5-19.39-4.23-38.88-6.39-58.31-.58-5.21-1.18-10.41-1.86-15.61-.24-1.89-3.25-1.91-3,0,2.5,19.39,4.23,38.88,6.39,58.31.58,5.21,1.18,10.41,1.86,15.61.24,1.89,3.25,1.91,3,0h0Z" style="fill: #010101;"/>
  <path d="M38.14,87.96c-9.32-3.67-19.17-7.6-26.18-15.04S2.67,54.51,3.08,44.14c.24-6.01,1.18-11.95,2.29-17.85.35-1.89-2.54-2.7-2.89-.8C.42,36.4-1.26,47.88,1.29,58.85c1.25,5.36,3.64,10.38,7.16,14.62s7.63,7.21,12.15,9.8c5.32,3.05,11.04,5.34,16.74,7.58,1.8.71,2.58-2.19.8-2.89h0Z" style="fill: #010101;"/>
  <path d="M46.82,89.84c10.88-1.19,19.6-8.85,24.42-18.39,5.71-11.3,5.39-24.14,2.33-36.17-1.95-7.65-4.93-14.99-8.09-22.2-.77-1.76-3.36-.24-2.59,1.51,5.17,11.8,9.99,24.35,9.91,37.42-.06,10.39-3.87,20.79-11.57,27.96-3.97,3.69-8.97,6.28-14.4,6.88-1.9.21-1.92,3.21,0,3h0Z" style="fill: #010101;"/>
  <path d="M6.54,23.5c2.95,2.43,6.64,2.86,10.34,2.98,4.46.15,8.94.17,13.4-.19,7.91-.64,15.85-2.52,22.59-6.86,3.53-2.28,6.59-5.15,8.99-8.6,1.1-1.59-1.5-3.09-2.59-1.51-8.66,12.48-25.14,14.46-39.13,14.25-3.69-.06-8.43.32-11.48-2.18-1.48-1.22-3.61.89-2.12,2.12h0Z" style="fill: #010101;"/>
  <path d="M8.41,23.1c-1.23-2.72,3.45-5.07,5.31-5.83,3.52-1.45,7.13-2.67,10.79-3.69,7.43-2.07,15.08-3.26,22.78-3.53,4.41-.15,8.83,0,13.22.43,1.92.19,1.91-2.81,0-3-8.63-.85-17.32-.56-25.88.82-4.21.68-8.37,1.62-12.46,2.83s-8.13,2.38-11.71,4.38c-3.28,1.83-6.42,5.18-4.65,9.11.79,1.76,3.38.23,2.59-1.51h0Z" style="fill: #010101;"/>
  <path d="M137.56,148.88c-8.58-.76-17.72,1.08-25.12,5.58-1.46.89-2.98,2.22-3.44,3.94s.41,3.52,2.08,4.26c1.78.79,4.01.59,5.91.61,2.35.03,4.69-.01,7.03-.12,9.27-.42,18.5-1.85,27.46-4.28,2.26-.61,4.51-1.29,6.73-2.03,2-.67,4.07-1.31,5.94-2.31,3-1.61,5.34-4.94,3.97-8.42-.78-1.99-2.59-2.86-4.63-3.04-2.45-.21-5,0-7.44.27-5.22.57-10.31,1.85-15.16,3.85-1.76.73-.99,3.63.8,2.89,3.57-1.47,7.28-2.58,11.09-3.27,1.85-.33,3.71-.56,5.58-.68,1.77-.12,3.94-.43,5.68.02,1.2.31,1.61,1.34,1.44,2.51-.23,1.56-1.53,2.57-2.84,3.27-3.23,1.73-7.09,2.67-10.6,3.66-7.54,2.14-15.29,3.57-23.1,4.23-3.89.33-7.81.48-11.71.44-.94,0-1.88-.03-2.81-.06-.62-.02-1.48.05-2.06-.26-1.47-.78.86-2.46,1.59-2.91,6.97-4.26,15.54-5.89,23.61-5.17,1.92.17,1.91-2.83,0-3h0Z" style="fill: #010101;"/>
  <path d="M135.67,145.17c-2.6-17.74-5.21-35.48-7.81-53.22-.75-5.09-1.5-10.18-2.24-15.28-.28-1.9-3.17-1.09-2.89.8,2.6,17.74,5.21,35.48,7.81,53.22.75,5.09,1.5,10.18,2.24,15.28.28,1.9,3.17,1.09,2.89-.8h0Z" style="fill: #010101;"/>
  <path d="M129.54,77.29c1.76,18.78,3.83,37.54,6.22,56.25.68,5.28,1.38,10.56,2.1,15.83.11.81,1.14,1.23,1.85,1.05.87-.23,1.16-1.05,1.05-1.85-2.54-18.48-4.76-37-6.67-55.55-.54-5.25-1.06-10.49-1.55-15.74-.18-1.91-3.18-1.92-3,0h0Z" style="fill: #010101;"/>
  <path d="M83.11,14.91c-1.37,12.32-2.67,25.41,2.29,37.15,3.97,9.4,12.01,16.61,21.48,20.25,5.36,2.06,11.22,2.88,16.94,2.24,1.9-.21,1.92-3.21,0-3-9.53,1.07-19.26-2.11-26.53-8.34-3.63-3.11-6.63-6.92-8.66-11.25-2.48-5.29-3.48-11.19-3.7-16.99-.25-6.71.45-13.41,1.19-20.06.21-1.92-2.79-1.9-3,0h0Z" style="fill: #010101;"/>
  <path d="M145.46,5.87c6.16,8.29,8.57,18.57,8.19,28.78-.19,5.14-1.08,10.23-2.55,15.16-1.59,5.33-3.78,10.55-7.71,14.58s-9.17,6.7-14.78,7.59c-1.9.3-1.09,3.19.8,2.89,5.34-.85,10.34-3.26,14.43-6.78,4.49-3.88,7.29-9.03,9.22-14.57,3.63-10.39,4.77-21.89,2.39-32.69-1.31-5.92-3.77-11.6-7.39-16.47-1.14-1.53-3.74-.04-2.59,1.51h0Z" style="fill: #010101;"/>
  <path d="M85.6,15.14c2.82,2.61,6.54,3.35,10.27,3.64,4.54.34,9.14.45,13.69.39,8.62-.11,17.29-1.26,25.19-4.86,4.07-1.86,7.82-4.39,10.97-7.58,1.36-1.38-.76-3.5-2.12-2.12-11.59,11.75-29.21,12.02-44.59,11.34-3.82-.17-8.29-.17-11.28-2.92-1.42-1.31-3.54.81-2.12,2.12h0Z" style="fill: #010101;"/>
  <path d="M88.03,13.74c12.55-7.66,27.31-11.37,41.99-10.68,4.14.2,8.24.76,12.29,1.66,1.88.42,2.68-2.47.8-2.89-14.91-3.33-30.76-2.1-44.97,3.54-4.03,1.6-7.92,3.52-11.62,5.78-1.65,1-.14,3.6,1.51,2.59h0Z" style="fill: #010101;"/>
</svg>