<?xml version="1.0" encoding="UTF-8"?>
<svg id="Layer_1" data-name="Layer 1" xmlns="http://www.w3.org/2000/svg" viewBox="0 0 424.12 155.57">
  <path d="M10.75,153.88c-2.71-31.43-4.84-62.9-6.39-94.41-.38-7.79-.73-15.59-1.04-23.39-.12-3-.24-6.2,2.75-7.81,2.32-1.25,5.21-1.26,7.78-1.25,15.59.09,31.17-.04,46.76-.48,31.5-.88,62.97-2.78,94.41-4.99s62.44-4.2,93.51-7.84c7.72-.91,15.45-1.67,23.2-2.19s15.48-.79,23.22-1.2c15.57-.83,31.13-1.85,46.65-3.32,3.69-.35,7.38-.73,11.06-1.14,1.9-.21,1.92-3.21,0-3-15.57,1.72-31.19,2.91-46.82,3.85s-31.48,1.36-47.16,2.9c-7.83.77-15.62,1.81-23.45,2.63s-15.79,1.5-23.7,2.13c-15.86,1.25-31.73,2.41-47.59,3.55-31.77,2.29-63.56,4.32-95.39,5.38-15.91.53-31.83.81-47.75.77-3.44-.01-6.94-.24-10.38.07-2.66.24-5.41.85-7.47,2.66C.52,28.92.18,32.12.28,35.17c.13,3.95.32,7.9.5,11.86,1.41,31.76,3.41,63.5,6,95.19.32,3.89.64,7.78.98,11.66.16,1.91,3.17,1.93,3,0h0Z"/>
  <path d="M63.5,115.5c-4.37,1.43-8.44,4.54-10.22,8.84s-3.28,8.71-2.9,13.47c.36,4.48,2.2,8.77,5.95,11.41s8.69,3.45,13.17,3.8c5.21.4,10.52-.12,15.56-1.49,4.4-1.2,9.07-2.97,12.36-6.26,3.61-3.6,4.12-8.68,3.81-13.55-.28-4.48-2.66-8.24-5.78-11.35-3.65-3.64-7.91-5.86-13.02-6.56-6.34-.87-12.69.23-18.88,1.6-1.88.42-1.09,3.31.8,2.89,8.46-1.87,18.6-3.69,26.14,1.75,2.88,2.08,5.64,4.99,7,8.32.83,2.03.81,4.22.75,6.38s-.24,4.49-1.41,6.45c-1.91,3.19-5.56,5.03-8.93,6.27-4.31,1.59-8.86,2.49-13.46,2.65-4.27.15-8.74-.21-12.81-1.59-3.79-1.29-6.55-3.81-7.7-7.7-1.27-4.31-.51-8.95,1.16-13.03.8-1.96,1.42-3.98,2.98-5.49,1.77-1.7,3.87-3.14,6.21-3.91,1.83-.6,1.04-3.5-.8-2.89h0Z"/>
  <path d="M144.85,108.11c-4.32.47-8.09,3.04-11.22,5.92-2.92,2.68-5.56,5.87-6.81,9.67-1.54,4.68-1.4,9.98.94,14.37s6.67,6.94,11.31,8.29c5.27,1.53,10.97,1.96,16.42,2.25s11.34,0,16.33-2.73c4.57-2.49,7.5-6.82,8.22-11.96s-.23-11.09-2.96-15.54-7.46-8.51-12.75-9.85c-3.06-.78-6.43-.87-9.57-1.01-3.46-.16-6.91-.02-10.32.65-1.89.37-1.09,3.26.8,2.89,5.26-1.03,10.65-.56,15.93-.02,4.45.45,8.29,2.78,11.24,6.08,5.67,6.35,7.38,18.73.18,24.66-3.7,3.05-8.68,3.89-13.33,3.93-5.15.05-10.44-.44-15.51-1.34-3.96-.71-8.19-1.87-11.16-4.76-3.14-3.06-4.25-7.59-3.67-11.86s2.6-7.35,5.45-10.27,6.41-5.93,10.46-6.36c1.9-.21,1.92-3.21,0-3h0Z"/>
  <path d="M318.09,94.19c-5.33-.43-10.64-.75-15.79.98s-9.63,4.85-12.81,9.2c-2.85,3.91-3.19,9.59-2.49,14.21.45,2.97,1.3,6.2,2.92,8.76,1.38,2.19,3.29,3.98,5.45,5.39,5.12,3.34,11.53,4.28,17.53,3.85,1.54-.11,3.05-.32,4.6-.37,1.65-.05,3.3-.12,4.91-.46,2.7-.57,5.39-1.53,7.86-2.75,1.97-.97,3.76-2.22,5.48-3.57,1.44-1.13,3.05-2.18,3.86-3.88,1.02-2.16,1.35-4.6,1.65-6.94.25-1.99.6-4,.18-5.98-.55-2.59-1.95-5.04-3.41-7.22s-3.06-4.28-4.96-6.02-4.42-2.63-6.82-3.37c-2.54-.78-5.15-1.34-7.76-1.78-1.89-.32-2.7,2.57-.8,2.89,4.03.68,8.51,1.47,12.09,3.55,1.53.89,2.71,2.37,3.81,3.74,1.39,1.71,2.64,3.57,3.65,5.54.84,1.64,1.54,3.4,1.39,5.27-.17,2-.39,4.01-.79,5.97-.34,1.68-.71,3.28-2.08,4.39s-2.65,2.18-4.08,3.14c-4.22,2.81-9.13,4.31-14.18,4.48-2.73.09-5.42.52-8.17.45s-5.61-.52-8.26-1.46c-2.34-.82-4.57-2.09-6.38-3.79s-2.96-3.77-3.73-6.18c-1.41-4.42-1.97-9.82-.12-14.23.92-2.18,2.71-3.89,4.42-5.46,1.99-1.83,4.36-3.19,6.88-4.15,5.2-1.96,10.49-1.65,15.94-1.21,1.92.16,1.91-2.84,0-3h0Z"/>
  <path d="M9.97,155.38c6.33.54,12.63-.17,18.93-.79,1.54-.15,3.08-.3,4.62-.42s3.05-.12,4.46-.63c2.16-.78,3.45-2.68,3.94-4.86.53-2.36.33-4.84.34-7.24.01-2.7.09-5.41.41-8.1.62-5.16,2.32-10.25,6-14.04,3.41-3.51,7.93-5.69,12.57-7.07,5.11-1.52,10.52-2.23,15.85-2.17,10.37.11,21.06,4.01,26.4,13.43,1.27,2.24,2.17,4.73,2.47,7.3s-.16,4.97.55,7.36c.8,2.7,2.97,3.99,5.74,3.69,3.15-.34,6.17-1.33,9.3-1.79,1.9-.28,1.09-3.17-.8-2.89-2.86.42-5.63,1.33-8.5,1.68-1.01.12-1.98.17-2.56-.78-.49-.82-.55-1.91-.59-2.83-.1-2.24-.01-4.42-.47-6.64-.49-2.38-1.42-4.68-2.63-6.78-5.27-9.13-15.22-13.73-25.42-14.6-5.47-.46-11.07.04-16.44,1.18-4.72,1.01-9.43,2.66-13.46,5.37s-7.27,6.6-9.09,11.27c-1.95,4.98-2.28,10.48-2.33,15.78-.02,2.52.41,5.44-.45,7.86-1.06,2.99-4.9,2.44-7.48,2.67-7.11.64-14.21,1.64-21.36,1.02-1.92-.17-1.91,2.84,0,3h0Z"/>
  <path d="M122.6,138.21c-1.46-6.99-2.89-14.56.82-21.11,3.05-5.37,8.48-9.12,14.24-11.09,7.14-2.44,14.82-2.65,22.29-2.55,3.48.04,7,.24,10.33,1.33s5.82,3,7.95,5.54c5.15,6.13,6.38,14.46,7.55,22.11.29,1.9,3.18,1.09,2.89-.8-1.16-7.54-2.45-15.45-7.03-21.78-2.01-2.77-4.54-5.21-7.62-6.76-3.42-1.72-7.22-2.34-11.01-2.55-14.36-.8-32.07.44-41.1,13.33-5.31,7.58-3.99,16.6-2.21,25.12.4,1.89,3.29,1.09,2.89-.8h0Z"/>
  <path d="M282.6,127.35c-.45-2.73-.52-5.55-.5-8.31.03-3.6.28-7.23,1.07-10.75.74-3.31,2.1-6.41,4.29-9.03s4.98-4.46,8.05-5.9c6.58-3.09,13.63-3.9,20.83-4.1,3.47-.1,6.83-.02,10.21.87,1.86.49,3.67,1.19,5.36,2.09,1.9,1.01,3.28,2.52,4.66,4.14,6.25,7.29,10.62,16.74,10.04,26.5-.12,1.93,2.88,1.92,3,0,.56-9.26-3.1-18.36-8.57-25.69-1.41-1.88-2.91-3.77-4.61-5.4s-3.63-2.51-5.68-3.36c-3.61-1.51-7.44-2.14-11.33-2.18-7.6-.07-15.57.47-22.67,3.35-3.44,1.39-6.76,3.07-9.52,5.59s-4.9,5.83-6.12,9.36c-1.41,4.08-1.84,8.53-1.97,12.81-.11,3.59-.01,7.24.57,10.8.31,1.9,3.2,1.09,2.89-.8h0Z"/>
  <path d="M352.65,5.86c16.42-.46,32.79-1.9,49.2-2.59,2.01-.08,4.02-.16,6.03-.21,1.9-.05,3.45-.15,4.34,1.77,1.63,3.51,2.41,7.56,2.81,11.39.81,7.96-.04,16-.4,23.96-.78,16.97-.51,33.98,2.65,50.71,1.54,8.15,3.7,16.4,3.81,24.75.02,1.28-.06,2.73-.86,3.79-1.07,1.43-3.08,1.57-4.72,1.62-3.95.13-7.92.05-11.88.06-16.38.06-32.75.07-49.13.13-1.99,0-3.98.02-5.97.03s-1.93,3.01,0,3c17.12-.08,34.23-.09,51.35-.15,4.18-.01,8.36-.03,12.54-.05,3.5-.02,7.8.29,10.17-2.82,2.06-2.71,1.53-6.55,1.24-9.7-.41-4.4-1.17-8.76-2.02-13.1-1.69-8.7-3.32-17.33-3.99-26.18s-.7-17.8-.4-26.7c.28-8.49,1.22-17.02.89-25.52-.16-4.12-.68-8.27-1.84-12.23-1-3.41-2.13-7.3-6.21-7.72-1.99-.21-4.07.02-6.07.09-2.19.08-4.37.18-6.56.29-4.28.21-8.55.46-12.83.72-8.63.53-17.25,1.1-25.89,1.46-2.09.09-4.17.16-6.26.22-1.93.05-1.93,3.05,0,3h0Z"/>
  <path d="M188.89,133.34c24.22-.5,48.45-1.01,72.63-2.44,6.53-.39,13.06-.85,19.59-1.42,1.91-.17,1.93-3.17,0-3-24.13,2.12-48.38,2.85-72.58,3.43-6.54.16-13.09.29-19.63.43-1.93.04-1.93,3.04,0,3h0Z"/>
  <path d="M357.21,121.71c-.52-13.77-1.04-27.55-1.56-41.32-.26-6.8-.51-13.61-.77-20.41l-.39-10.45c-.12-3.29-.39-6.62-.33-9.91.05-2.48.54-4.93,3.4-5.23,3.22-.34,6.59-.09,9.83-.11,3.47-.02,6.95-.05,10.42-.07,1.57-.01,3.14-.02,4.71-.03,1.08,0,2.73-.37,3.21.88s.36,2.81.43,4.13c.1,1.83.21,3.66.31,5.48.2,3.49.4,6.98.6,10.47.39,6.81.78,13.63,1.17,20.44.88,15.38,1.75,30.76,2.63,46.14.11,1.92,3.11,1.93,3,0-.83-14.55-1.66-29.1-2.49-43.64-.41-7.15-.82-14.29-1.22-21.44-.21-3.66-.42-7.31-.63-10.97-.19-3.41-.12-6.98-.67-10.35-.2-1.23-.66-2.44-1.67-3.23-1.14-.9-2.55-.92-3.93-.91-3.64.02-7.28.05-10.91.07s-7.11.05-10.67.07c-2.68.02-5.91-.36-8.12,1.51s-2.43,4.92-2.4,7.57c.04,3.54.26,7.08.39,10.62.28,7.3.55,14.6.83,21.9.61,16.26,1.23,32.52,1.84,48.79.07,1.92,3.07,1.93,3,0h0Z"/>
  <path d="M415.82,21.42c-4.58-.98-7.96,2.69-9.29,6.69-.79,2.38-1.17,4.92-1.62,7.38-.46,2.59-.86,5.19-1.21,7.79-.71,5.35-1.16,10.72-1.34,16.11-.09,2.65-.12,5.31-.08,7.97.03,2.32-.17,4.96.55,7.19,1.78,5.51,9.13,4.38,13.56,3.72,1.9-.28,1.09-3.17-.8-2.89-2.09.31-4.24.47-6.35.36-1.87-.1-3.31-.72-3.7-2.69s-.24-4.16-.27-6.17c-.02-2.25,0-4.51.06-6.76.27-9.04,1.29-18.05,3.05-26.92.43-2.14.8-4.42,1.94-6.32.95-1.58,2.74-2.98,4.69-2.56s2.69-2.49.8-2.89h0Z"/>
  <path d="M5.97,129.08c-2.04.2-3.7,1.32-4.79,3.06-1.17,1.87-1.34,4.17-1.09,6.31s.61,4.5,1.7,6.4,3.09,3.32,5.3,3.07c.8-.09,1.5-.62,1.5-1.5,0-.74-.69-1.59-1.5-1.5-3.13.35-3.71-4.27-3.99-6.47-.18-1.41-.23-2.99.4-4.3.46-.96,1.35-1.96,2.47-2.07.81-.08,1.5-.63,1.5-1.5,0-.75-.69-1.58-1.5-1.5h0Z"/>
  <path d="M208,129.44c-1.14-13.51-1.66-27.06-1.88-40.62-.11-6.86-.15-13.73-.16-20.59,0-3.39,0-6.78,0-10.17,0-2.76-.19-5.64.4-8.35.54-2.5,1.85-4.55,4.31-5.5s5.13-.86,7.68-.82c3.31.06,6.63.12,9.94.17,1.62.03,3.23.05,4.85.08,1.32.03,2.93-.01,3.88,1.06.86.98,1.21,2.48,1.57,3.7.47,1.62.83,3.27,1.11,4.93.52,3.14.72,6.32.86,9.5.3,6.7.5,13.41.74,20.12.56,15.29,1.12,30.59,1.68,45.88.07,1.92,3.07,1.93,3,0-.53-14.38-1.05-28.77-1.58-43.15-.26-7.15-.51-14.31-.79-21.46-.25-6.46-.53-13.44-3.13-19.47-1.27-2.94-3.67-3.98-6.74-4.09-3.43-.12-6.87-.12-10.3-.18-5.47-.1-12.61-1.17-17.01,2.89s-3.46,10.94-3.46,16.19c0,7.11,0,14.22.06,21.34.14,16.2.62,32.41,1.98,48.55.16,1.91,3.16,1.93,3,0h0Z"/>
  <path d="M12.21,56.31c-.16,9.08.62,18.17,2.33,27.09.42,2.18.89,4.34,1.42,6.5s.86,4.46,1.79,6.37c.87,1.8,2.69,1.65,4.28.96,1.86-.82,3.81-1.26,5.83-1.44,4.52-.39,9.12-.13,13.65-.1s9.46.05,14.19.07c3.56.02,8.25.78,10.13-3.07,1.59-3.27.69-7.27.26-10.69-1.29-10.44-3.05-20.83-5.27-31.11-.13-.62-.82-1.13-1.45-1.1-15.44.7-30.79,2.78-46.05,5.1-1.9.29-1.09,3.18.8,2.89,15-2.28,30.08-4.3,45.26-4.99l-1.45-1.1c1.81,8.4,3.32,16.86,4.51,25.36.53,3.76,1.35,7.71,1.26,11.52-.03,1.2-.17,2.75-1.14,3.6-1.27,1.11-3.82.62-5.36.61-8.62-.04-17.24-.19-25.86-.11-3.5.03-7.68.17-10.8,1.98-.07.04-.42.09-.45.15.01-.02.26.31.34.16.09-.16-.36-1.23-.43-1.47-.28-.99-.55-1.98-.8-2.98-.53-2.07-1.01-4.15-1.44-6.25-1.88-9.18-2.71-18.55-2.54-27.92.03-1.93-2.97-1.93-3,0h0Z"/>
  <path d="M72.45,49.16c1.15,10.69,2.07,21.39,3.13,32.09.24,2.44.33,4.97.78,7.38.57,3.08,3.39,2.77,5.85,2.62,6.3-.39,12.6-.79,18.9-1.18,6.13-.38,12.27-.74,18.4-1.15,1.25-.08,2.5-.18,3.34-1.24.78-.99.74-2.25.69-3.44-.14-3.15-.31-6.3-.46-9.45-.31-6.22-.61-12.44-.92-18.66-.08-1.58-.15-3.15-.23-4.73-.07-1.37.02-2.85-.29-4.19-.65-2.84-3.71-2.43-5.96-2.42-14.05.07-28.09.96-42.04,2.63-1.89.23-1.92,3.23,0,3,11.24-1.35,22.54-2.19,33.86-2.5,2.81-.08,5.62-.12,8.43-.13.69,0,2.44-.27,2.81.18.24.28.1,1.54.12,1.94.04.75.07,1.49.11,2.24.28,5.64.55,11.28.83,16.92.14,2.9.29,5.81.43,8.71.07,1.33.13,2.65.2,3.98.03.66.07,1.33.1,1.99.02.38.31,1.71,0,2.02-.24.25-1.19.16-1.5.18-.66.04-1.33.08-1.99.12-1.49.09-2.98.19-4.48.28-2.82.18-5.64.35-8.45.53-5.64.35-11.27.7-16.91,1.06-1.33.08-2.65.17-3.98.25-.66.04-1.33.08-1.99.12-.38.02-1.62.29-1.93.03-.11-.09-.09-1.04-.11-1.23-.06-.53-.11-1.05-.17-1.58-.13-1.22-.25-2.44-.37-3.66-1.09-10.9-2.02-21.82-3.19-32.71-.2-1.9-3.21-1.92-3,0h0Z"/>
  <path d="M255.52,40.78c.27,6.38.81,12.76,1.66,19.09.42,3.17.91,6.34,1.58,9.47.59,2.76,1.03,6.27,4.36,6.85,1.7.29,3.52-.06,5.22-.19,2.15-.18,4.3-.35,6.45-.53,4.14-.34,8.27-.67,12.41-1.01,8.11-.66,16.22-1.32,24.33-1.98,4.14-.34,8.27-.67,12.41-1.01,1.99-.16,3.97-.32,5.96-.49,1.86-.15,4.06-.02,5.77-.84,2.4-1.14,3.03-3.85,2.8-6.3-.31-3.28-1.67-6.37-2.36-9.58-.82-3.8-1.21-7.68-1.17-11.56.01-1.76.19-3.5.28-5.25.07-1.27-.03-2.66-.7-3.77-.77-1.27-2.15-1.79-3.58-1.79-2.06,0-4.17.36-6.23.54-4.14.37-8.29.75-12.43,1.12-18.4,1.66-36.8,3.33-55.2,5-1.91.17-1.93,3.17,0,3,15.25-1.38,30.5-2.76,45.75-4.14,7.63-.69,15.25-1.38,22.88-2.06,1.71-.15,3.51-.49,5.23-.45,1.45.03,1.35,1.41,1.28,2.56-.19,3.47-.38,6.87-.08,10.35s.91,7.02,1.86,10.42c.67,2.4,1.97,5.14,1.44,7.69-.25,1.19-.96,1.64-2.14,1.81-1.93.27-3.93.32-5.88.48-3.81.31-7.61.62-11.42.93-15.23,1.24-30.45,2.48-45.68,3.72-1.95.16-3.93.43-5.89.45-.91.01-1.49-.1-1.86-.99-.27-.64-.38-1.39-.54-2.06-.75-3.16-1.29-6.36-1.74-9.58-.93-6.59-1.49-13.24-1.77-19.89-.08-1.92-3.08-1.93-3,0h0Z"/>
  <path d="M135.28,46.24c.26,6.1.53,12.21.79,18.31s.34,12.23.79,18.31c.07.99.22,1.94.97,2.66,1,.96,2.51.71,3.77.68,3.07-.09,6.14-.18,9.21-.27,6.06-.18,12.11-.35,18.17-.53,3.07-.09,6.14-.18,9.21-.27,1.49-.04,2.99-.09,4.48-.13,1.21-.03,2.51-.01,3.61-.59,2.26-1.2,2.04-3.75,1.74-5.91-.44-3.12-.9-6.25-1.34-9.37-.86-6-1.72-12-2.58-18-.2-1.4-.4-2.79-.6-4.19-.21-1.48-.24-3.16-.7-4.59-.84-2.62-4.29-1.87-6.38-1.81-13.47.41-26.9,1.79-40.18,4.08-1.9.33-1.09,3.22.8,2.89,10.69-1.84,21.48-3.07,32.31-3.67,2.68-.15,5.36-.26,8.05-.33.65-.02,1.3-.03,1.95-.05.15,0,.69-.08.8,0-.24-.17-.09.38-.1.34.42,1.26.41,2.87.6,4.19.79,5.51,1.58,11.01,2.37,16.52.38,2.63.75,5.26,1.13,7.89s1.02,5.39,1.12,8.07c.04,1.14-.37,1.43-1.47,1.5-1.36.09-2.73.08-4.09.12-2.74.08-5.48.16-8.21.24-5.48.16-10.95.32-16.43.48-2.82.08-5.64.16-8.46.25-1.24.04-2.49.07-3.73.11-.66.02-1.33.04-1.99.06-.31,0-.63-.02-.94.02-.27-.04-.26.02.02.18l-.06-.24c.16-.65-.08-1.63-.11-2.3l-.1-2.23-.2-4.7-.39-9.16c-.27-6.19-.53-12.37-.8-18.56-.08-1.92-3.08-1.93-3,0h0Z"/>
</svg>