<?xml version="1.0" encoding="UTF-8"?>
<svg id="Layer_1" data-name="Layer 1" xmlns="http://www.w3.org/2000/svg" viewBox="0 0 255.9 185.38">
  <path d="M5.03,125.16c.25,6.15.36,12.3.5,18.45.07,3.08.14,6.16.25,9.23.08,2.35-.31,5.34,1.13,7.37.67.94,1.77,1.43,2.72,2.03,1.1.7,2.32.95,3.54,1.35s2.53.76,3.76,1.2c1.37.49,2.68,1.24,4.01,1.85,5.28,2.43,10.65,4.7,16.11,6.72s11.16,3.63,16.8,5.3,11.02,3.73,16.71,4.86,11.59,2.3,17.34,1.68c5.34-.57,10.59-1.77,15.64-3.59,5.04-1.83,9.88-4.23,14.4-7.11,1.15-.73,2.28-1.5,3.39-2.29s2.44-1.42,3.67-2.09c2.48-1.37,4.96-2.76,7.41-4.17,9.85-5.66,19.48-11.7,28.87-18.09s18.64-13.25,27.56-20.4c4.52-3.62,8.97-7.33,13.34-11.12,2.09-1.81,4.04-3.88,6.47-5.2s4.56-3.48,6.72-5.35c2.3-1.99,4.9-3.64,7.39-5.38s4.77-3.36,7.13-5.07c4.59-3.32,9.12-6.73,13.51-10.3,1.92-1.56,4.17-3.1,5.71-5.07.79-1.02.92-2.09,1.16-3.33.27-1.46.48-2.93.62-4.4.54-5.69-.03-11.38-.37-17.06-.18-2.92-.27-5.84-.17-8.77.07-1.93-2.93-1.93-3,0-.2,5.61.41,11.19.67,16.79.13,2.78.15,5.57-.07,8.35-.11,1.36-.28,2.71-.52,4.06s-.31,2.27-1.33,3.23c-3.91,3.71-8.33,6.96-12.64,10.19s-9,6.56-13.56,9.75c-2.39,1.67-4.79,3.28-6.99,5.21-1.03.9-2.04,1.82-3.08,2.71-1.13.97-2.31,1.62-3.59,2.36-2.28,1.32-4.19,3.46-6.18,5.18s-4.17,3.58-6.28,5.35c-8.61,7.19-17.49,14.05-26.62,20.55s-18.16,12.43-27.58,18.12c-4.66,2.82-9.37,5.55-14.13,8.2-2.47,1.37-4.89,2.7-7.22,4.29-2.12,1.44-4.32,2.78-6.58,3.99-9.12,4.91-20.1,8.46-30.55,7.45-5.72-.55-11.32-1.81-16.84-3.39-2.61-.75-5.2-1.55-7.78-2.4-2.76-.9-5.57-1.6-8.35-2.44-5.37-1.63-10.66-3.52-15.86-5.63-2.73-1.1-5.44-2.27-8.12-3.48-2.43-1.1-4.82-2.45-7.38-3.22-2.4-.72-4.83-1.38-6.93-2.78-.87-.58-.87-1.41-.91-2.39-.07-1.52-.12-3.05-.17-4.57-.19-6.01-.28-12.02-.43-18.03-.07-2.9-.16-5.79-.28-8.69-.08-1.92-3.08-1.93-3,0h0Z" style="fill: #010101;"/>
  <path d="M166.96,8.31c-15.6,11.32-32.36,20.87-49.07,30.42-8.3,4.74-16.6,9.5-24.76,14.49s-16.89,10.79-25.18,16.42c-17.05,11.58-34.07,23.21-51.11,34.82l-6.38,4.34c-1.71,1.16-3.54,2.28-4.76,3.99-2.35,3.3-1.06,7.8,1.62,10.49,3.13,3.14,7.78,4.31,11.84,5.73,4.91,1.72,9.83,3.44,14.74,5.16,9.67,3.39,19.34,6.77,29.01,10.16,9.15,3.2,18.45,7.27,28.35,5.73,9.02-1.41,17-6.54,24.53-11.4s15.51-10.4,23.07-15.87c15.07-10.92,29.69-22.43,44.43-33.78,14.72-11.33,29.58-22.51,45.1-32.74,3.93-2.59,7.89-5.11,11.9-7.56,1.98-1.21,3.97-2.39,5.97-3.56,1.57-.92,3.27-1.91,4.19-3.55,2.3-4.11-2.1-7.67-4.97-9.93-3.44-2.71-7.18-4.97-11.1-6.93-8.32-4.16-17.19-7.2-25.86-10.52-4.85-1.86-9.7-3.71-14.55-5.57-4.54-1.74-8.89-3.66-13.85-3.6-4.59.05-9.02,1.39-13.17,3.27-1.76.79-.23,3.38,1.51,2.59,4.13-1.87,8.64-3.1,13.21-2.83s9.22,2.59,13.58,4.26c8.99,3.44,18.01,6.81,26.97,10.34,7.9,3.11,15.9,6.65,22.45,12.18,1.22,1.03,3.56,2.68,3.41,4.52-.14,1.68-2.48,2.67-3.72,3.4-3.87,2.26-7.69,4.6-11.47,7-15.12,9.6-29.58,20.2-43.82,31.04-14.27,10.87-28.33,22-42.7,32.73-7.18,5.36-14.44,10.62-21.83,15.68-7.31,5-14.7,10.25-22.67,14.15-3.91,1.92-8.14,3.46-12.5,3.92-4.68.49-9.25-.39-13.71-1.77-9.38-2.89-18.59-6.43-27.85-9.67s-18.72-6.55-28.08-9.83c-3.71-1.3-8.72-2.39-11.09-5.84-.96-1.4-1.57-3.31-.89-4.96.76-1.83,2.88-2.92,4.44-3.98,16.46-11.21,32.91-22.42,49.37-33.64,8.06-5.49,16.1-11.01,24.29-16.29s15.85-9.81,23.92-14.48c16.01-9.25,32.25-18.15,47.69-28.34,3.72-2.46,7.4-4.99,11.01-7.61,1.55-1.12.05-3.73-1.51-2.59h0Z" style="fill: #010101;"/>
  <path d="M14.53,100.8c-2.53,2.29-5.19,4.41-7.72,6.69s-5.53,4.81-6.52,8.05c-1.09,3.56,1.16,6.97,3.68,9.29,2.82,2.59,6.23,4.68,9.57,6.52,6.78,3.73,14.11,6.36,21.46,8.73,7.39,2.38,14.83,4.6,22.27,6.82,8.51,2.54,17.03,5.05,25.51,7.69,1.85.57,2.64-2.32.8-2.89-14.04-4.37-28.19-8.39-42.24-12.76-7.07-2.2-14.18-4.42-20.94-7.49-3.31-1.51-6.53-3.22-9.57-5.2-2.75-1.8-6.27-3.97-7.52-7.18-1.38-3.57,2.7-6.78,5.03-8.91,2.7-2.48,5.58-4.76,8.3-7.22,1.43-1.3-.69-3.41-2.12-2.12h0Z" style="fill: #010101;"/>
  <path d="M83.18,154.64c8.31.7,16.73-.94,24.21-4.61,8.03-3.94,13.97-10.67,21.04-15.96,4.21-3.15,8.63-6,13.04-8.84,1.62-1.04.12-3.64-1.51-2.59-7.5,4.83-14.71,9.85-21.41,15.76-3.28,2.89-6.6,5.7-10.42,7.86-3.52,1.99-7.31,3.46-11.25,4.4-4.49,1.07-9.1,1.38-13.7,1-1.92-.16-1.91,2.84,0,3h0Z" style="fill: #010101;"/>
  <path d="M184.85,90.47c-11.85,8.38-24.32,15.89-36,24.52-3.24,2.4-6.43,4.92-9.19,7.86-1.32,1.41.8,3.53,2.12,2.12,4.97-5.29,11.17-9.33,17.15-13.37s11.55-7.93,17.41-11.78c3.37-2.22,6.74-4.43,10.03-6.76,1.56-1.11.07-3.71-1.51-2.59h0Z" style="fill: #010101;"/>
  <path d="M186.36,93.06l51.32-36.59c1.56-1.11.06-3.71-1.51-2.59-17.11,12.2-34.22,24.39-51.32,36.59-1.56,1.11-.06,3.71,1.51,2.59h0Z" style="fill: #010101;"/>
  <path d="M228.29,20.5c6.02,3.89,12.43,7.15,18.6,10.79,1.42.84,2.84,1.69,4.22,2.6.73.48,1.53,1,1.74,1.92s-.1,1.86-.42,2.68c-1.41,3.53-4.42,6.24-7.17,8.73s-6.47,4.32-9.38,6.91c-1.44,1.29.68,3.4,2.12,2.12,2.82-2.51,6.28-4.17,9.11-6.67,3.03-2.67,6.15-5.65,7.84-9.39.83-1.84,1.37-3.97.55-5.91-.76-1.81-2.56-2.81-4.15-3.8-3.28-2.05-6.66-3.93-10.03-5.82-3.87-2.18-7.77-4.33-11.51-6.74-1.63-1.05-3.13,1.55-1.51,2.59h0Z" style="fill: #010101;"/>
  <path d="M16.35,103.16c20.29-14.17,40.59-28.34,61.16-42.1,9.86-6.6,19.75-13.17,29.83-19.42s19.49-11.71,29.35-17.35c10.86-6.21,21.78-12.3,32.66-18.49,1.68-.96.17-3.55-1.51-2.59-19.55,11.13-39.29,21.95-58.49,33.68-20.56,12.56-40.46,26.24-60.3,39.91-11.44,7.88-22.82,15.83-34.21,23.78-1.57,1.1-.07,3.7,1.51,2.59h0Z" style="fill: #010101;"/>
  <path d="M169.35,5.78c6.78-4.29,15.17-2.98,22.27-.24,3.92,1.51,7.64,3.48,11.42,5.31s7.72,3.55,11.67,5.1c4.57,1.79,9.22,3.35,13.94,4.7,1.86.53,2.65-2.36.8-2.89-8.63-2.47-17.03-5.67-25.1-9.59-7.54-3.67-15.19-7.84-23.77-8.15-4.45-.16-8.95.78-12.74,3.18-1.63,1.03-.12,3.63,1.51,2.59h0Z" style="fill: #010101;"/>
  <path d="M126.45,157.32c-3.75-4-4.09-10.78-.72-15.13,1.04-1.34,2.22-2.26,3.96-1.73,1.45.44,2.84,1.36,3.97,2.35,2.29,2.01,3.85,4.66,4.51,7.63.42,1.88,3.31,1.09,2.89-.8-.65-2.94-2.1-5.65-4.15-7.85s-5.1-4.42-8.18-4.53-5.54,2.77-6.79,5.36-1.75,5.4-1.46,8.2c.34,3.23,1.6,6.24,3.83,8.62,1.32,1.41,3.44-.71,2.12-2.12h0Z" style="fill: #010101;"/>
  <path d="M152.46,143.14c-1.73-2.32-2.96-4.92-3.57-7.75-.45-2.07-.98-5.14,1.23-6.34,1.71-.93,3.91-.44,5.44.64,2.09,1.48,3.36,3.9,4.57,6.08.94,1.69,3.53.18,2.59-1.51-2.27-4.08-5.28-8.68-10.51-8.68-2.23,0-4.43.92-5.68,2.81-1.52,2.28-1.06,5.42-.5,7.93.68,3,2.01,5.87,3.85,8.34.48.65,1.3.98,2.05.54.64-.37,1.03-1.4.54-2.05h0Z" style="fill: #010101;"/>
  <path d="M176.33,129.15c-2.49-2.36-4.92-4.8-5.84-8.21-.71-2.64-.39-5.59,1.72-7.5,1.58-1.43,4.12-2.18,6.05-1.02,1.29.78,2.05,2.22,2.72,3.52.88,1.71,1.71,3.45,2.56,5.18s3.44.21,2.59-1.51c-.81-1.64-1.6-3.28-2.42-4.91-.66-1.3-1.39-2.6-2.42-3.65-1.89-1.94-4.58-2.58-7.17-1.93-2.44.61-4.73,2.34-5.88,4.6-1.37,2.69-1.36,5.91-.42,8.74,1.2,3.6,3.7,6.25,6.39,8.81,1.4,1.33,3.53-.79,2.12-2.12h0Z" style="fill: #010101;"/>
  <path d="M197.76,112.19c-3.41-3.98-4.36-9.89-2.4-14.74.52-1.3,1.05-2.06,2.53-2,1.33.06,2.7.45,3.93.94,2.5.99,4.75,2.73,6.33,4.9.47.65,1.31.98,2.05.54.64-.38,1.02-1.39.54-2.05-1.62-2.23-3.68-4.1-6.13-5.39-2.33-1.22-5.32-2.27-7.98-1.87-2.91.44-4.08,3.36-4.73,5.9s-.69,5.31-.17,7.93c.58,2.95,1.96,5.68,3.91,7.96,1.26,1.47,3.37-.66,2.12-2.12h0Z" style="fill: #010101;"/>
  <path d="M217.1,94.72c-2.77-.84-3.92-4.06-3.31-6.7.67-2.91,2.89-5.68,5.65-6.84,1.2-.51,2.63-.74,3.85-.16.98.46,1.71,1.37,2.36,2.21,1.66,2.14,3.11,4.27,6,4.63.81.1,1.5-.76,1.5-1.5,0-.89-.69-1.4-1.5-1.5-1.87-.23-3.17-2.91-4.24-4.2-1.72-2.07-4.03-3.26-6.76-2.89-5.71.78-10.67,7.09-9.97,12.82.39,3.2,2.47,6.07,5.61,7.03,1.85.56,2.64-2.33.8-2.89h0Z" style="fill: #010101;"/>
  <path d="M190.3,21.29c-4.87,3.77-10.39,7.18-13.31,12.83-.77,1.49-1.36,3.1-1.15,4.81.2,1.6,1.06,2.95,2.08,4.17,2.03,2.41,4.82,4.37,7.88,5.18,6.89,1.82,12.9-2.88,16.37-8.41,1.92-3.06,3.38-6.43,4.79-9.75.71-1.66,1.65-3.43,2.03-5.2s-.44-2.84-1.78-3.78c-1.7-1.19-3.35-2.45-5.1-3.58-1.11-.72-2.34-1.53-3.66-1.8-1.54-.32-2.64.73-3.79,1.6-1.62,1.22-3.13,2.56-4.53,4.03s.79,3.52,2.12,2.12c1.01-1.06,2.07-2.06,3.2-2.99.47-.38.94-.75,1.43-1.1.34-.24.78-.46,1.08-.74l.3-.23c-.63.17-.76.24-.4.23.09.12.54.21.72.3.46.22.91.49,1.34.75,1.24.76,2.43,1.61,3.61,2.46.62.45,1.23.91,1.86,1.35.74.51.74.52.43,1.43-.53,1.53-1.19,3.03-1.84,4.52-1.17,2.7-2.38,5.4-3.86,7.95-2.56,4.4-6.97,9.04-12.58,8.16-2.59-.41-4.9-1.89-6.71-3.73-.85-.86-1.79-1.9-2.02-3.13-.27-1.44.6-2.92,1.32-4.11,2.91-4.81,7.93-7.84,12.27-11.21,1.52-1.18-.61-3.29-2.12-2.12h0Z" style="fill: #010101;"/>
  <path d="M187.36,30.95c-2.16.65-4.03,2.23-4.94,4.31-.56,1.29-.91,2.84-.03,4.08.77,1.09,2.14,1.75,3.24,2.47,1.17.76,2.34,1.54,3.76,1.71s2.76-.48,3.88-1.37c.98-.77,1.89-1.8,2.2-3.03.36-1.41-.16-2.6-1-3.71-.44-.58-.88-1.17-1.38-1.71-.22-.24-.46-.48-.71-.69-.17-.14-.34-.27-.51-.41.02.02-.38-.28-.22-.17-1.28-.97-2.45-1.81-4.14-1.52-.8.14-1.25,1.12-1.05,1.85.23.84,1.04,1.19,1.85,1.05-.24.04.01,0,.05.02-.04-.02-.28-.09.04.02,0,0,.23.08.11.03-.14-.06.15.08.18.1.17.09.33.2.48.31.17.12.38.28.42.31.71.55,1.32,1.1,1.91,1.83.25.31.44.55.69.9.11.16.22.32.32.49.13.23-.03-.15.05.1.02.07.09.36.04.16,0,.03-.02.3.01.07-.01.08-.04.16-.06.23,0,.03-.13.32-.07.2.05-.11-.08.13-.07.12-.21.31-.39.56-.74.88-.3.28-.53.45-.9.67s-.59.31-.94.3c-.69,0-1.49-.55-2.18-1-.84-.54-1.68-1.08-2.51-1.64-.17-.11-.07-.04-.25-.22-.16-.16.04.14-.05-.06-.07-.15-.02-.04,0,0-.05-.18.11-.62.21-.93.09-.28.05-.13.02-.06.05-.12.11-.23.17-.34.11-.2.22-.4.35-.59.04-.06.09-.12.13-.19.06-.08.06-.08,0,0l.1-.12c.15-.17.31-.34.47-.49.54-.51,1.17-.86,1.88-1.07.78-.23,1.27-1.05,1.05-1.85s-1.07-1.28-1.85-1.05h0Z" style="fill: #010101;"/>
  <path d="M197.06,22.52c-1.85,1.12-3.67,2.35-5.34,3.73-.99.81-1.38,2.15-.66,3.28.58.91,1.68,1.51,2.55,2.11s1.75,1.23,2.69,1.7c.71.36,1.5.38,2.18-.06.46-.29.84-.73,1.2-1.13.71-.76,1.36-1.58,1.95-2.44s1.18-1.74,1.55-2.7c.3-.78.13-1.66-.47-2.25-.41-.4-.99-.6-1.47-.89-.95-.57-1.85-1.18-2.93-1.48-.76-.21-1.67.26-1.85,1.05s.24,1.62,1.05,1.85c.1.03.2.06.3.09.06.02.22.08.07.02.21.09.41.2.61.31.38.21.74.45,1.1.68.34.21.75.51,1.13.62.32.09-.58-.88-.37-.97.02-.06.02-.05-.03.04-.03.05-.05.1-.08.15-.12.22-.24.44-.37.65-.22.38-.46.76-.71,1.12-.14.21-.28.41-.43.61s-.11.15-.27.36c-.29.37-.6.72-.92,1.07-.17.18-.34.36-.52.54-.06.07-.18.14-.23.22-.1.08-.06.07.11-.04.21-.09.22-.11.03-.07h.8c-.24-.04,0,.03-.15-.06-.11-.06-.21-.13-.31-.19-.24-.14-.47-.29-.7-.43-.47-.29-.93-.6-1.38-.9s-.9-.63-1.35-.95.08.09-.11-.09c-.03-.03-.22-.24-.24-.24.27,0,.07.74.09.76-.04.06-.03.05.03-.01.03-.04.07-.07.11-.1.1-.09.21-.17.31-.25.15-.12.27-.21.47-.36.43-.32.86-.64,1.3-.94.9-.63,1.82-1.23,2.77-1.8.69-.42.95-1.35.54-2.05s-1.36-.96-2.05-.54h0Z" style="fill: #010101;"/>
  <path d="M94.01,101.95c4.53-9.01,11.87-16.34,19.34-22.96s15.75-14.23,25.8-16.84c2.69-.7,5.44-1.11,8.2-1.4,2.2-.23,4.81-.83,7-.34.96.21,1.41.57,1.24,1.6-.19,1.14-.77,2.33-1.23,3.37-.96,2.16-2.16,4.22-3.53,6.15-6,8.45-15.08,14.01-24.28,18.37-5.72,2.71-11.6,5.09-17.44,7.55-5,2.11-9.9,4.44-14.89,6.56-.75.32-.9,1.41-.54,2.05.44.78,1.31.85,2.05.54,4.69-1.99,9.29-4.2,13.98-6.18,5.64-2.38,11.32-4.69,16.89-7.25,10.01-4.61,19.7-10.48,26.35-19.49,1.48-2.01,2.79-4.16,3.83-6.43.98-2.12,2.63-5.15,1.48-7.47-.93-1.9-3.13-2.45-5.08-2.49-2.83-.06-5.78.42-8.58.79-5.73.77-11.12,2.39-16.11,5.35s-9.01,6.4-13.22,9.94c-9.12,7.69-18.43,16.26-23.86,27.07-.86,1.72,1.72,3.24,2.59,1.51h0Z" style="fill: #010101;"/>
  <path d="M93.22,99.9c-1.71-.82-3.5-.67-5.36-.71-1.98-.05-4.02-.24-6-.07-1.57.13-3.2.48-4.4,1.55-1.28,1.14-1.7,3-1.11,4.6.66,1.78,2.14,3.02,3.61,4.13,1.85,1.4,3.72,2.79,5.58,4.18s3.61,2.74,5.46,4.05c1.64,1.17,3.55,1.4,4.97-.22s1.4-3.58,1.33-5.63c-.08-2.31-.39-4.62-.86-6.88-.39-1.89-3.28-1.09-2.89.8.31,1.49.53,2.99.66,4.51.06.73.1,1.47.11,2.2.01.66.1,1.51-.06,2.1-.08.3-.4,1.01-.73,1.12.01,0-.1,0-.28-.1-.36-.2-.69-.45-1.02-.69-1.44-1.06-2.87-2.13-4.31-3.2s-2.87-2.14-4.3-3.21c-1.24-.93-2.59-1.81-3.65-2.96-.59-.63-1.3-1.67-.61-2.47.6-.69,1.77-.84,2.62-.9,1.72-.12,3.47.02,5.19.07.92.02,1.84.05,2.77.07.82.02,1.19-.03,1.77.25,1.73.84,3.25-1.75,1.51-2.59h0Z" style="fill: #010101;"/>
  <path d="M17.26,147.8c3.84,2.16,8.13,3.4,12.54,3.56,2.12.07,4.57-.55,6.57.32,1.51.66,2.62,2.06,3.7,3.24,1.15,1.25,2.38,2.53,3.92,3.29,1.64.81,3.45,1.08,5.27,1.1,3.47.04,7.71-1.08,10.5,1.6,1.62,1.55,2.99,2.93,5.16,3.69s4.51.84,6.77.9c1.93.06,1.93-2.94,0-3s-3.93-.12-5.79-.73-2.97-2.11-4.45-3.38c-2.9-2.48-6.57-2.28-10.15-2.12-1.72.08-3.51.16-5.16-.4s-2.73-1.74-3.83-2.94-2.28-2.55-3.73-3.46c-1.66-1.04-3.56-1.26-5.48-1.19-5.1.2-9.82-.54-14.32-3.07-1.68-.95-3.2,1.64-1.51,2.59h0Z" style="fill: #010101;"/>
</svg>