<?xml version="1.0" encoding="UTF-8"?>
<svg id="Layer_1" data-name="Layer 1" xmlns="http://www.w3.org/2000/svg" viewBox="0 0 490.57 186.53">
  <path d="M24.52,173.72c-6.31.19-12.97-.21-17.06-5.73s-4.86-13.09-4.36-19.67c1.1-14.45,10.55-28.37,22.89-35.72,2.93-1.75,6.07-3.11,9.37-3.96,3.72-.96,7.57-1.19,11.33-1.93,3.56-.7,6.96-1.97,9.93-4.09,2.57-1.83,4.82-4.05,6.9-6.41,4.41-5.02,8.12-10.62,12.6-15.57s10.2-8.8,16.74-11.04c12.72-4.36,26.9-4.32,38.14-12.53,5.53-4.04,10-9.34,14.85-14.12,4.12-4.06,8.98-8.48,14.98-9.22,1.72-.21,3.46-.04,5.18-.03,2.13.02,4.27,0,6.4,0,4.21,0,8.36.57,12.47-.57,3.82-1.06,7.5-2.76,11.09-4.41s7.19-3.49,10.73-5.36c13.49-7.12,26.97-15.56,42.04-18.9,12.66-2.8,25.9-1.35,38.11,2.75,13.31,4.47,25.53,12.07,35.96,21.42,2.65,2.37,5.18,4.86,7.61,7.46,1.32,1.41,3.44-.71,2.12-2.12-9.99-10.66-21.91-19.67-35.21-25.79-12.27-5.64-25.83-8.91-39.38-8.03-15.11.99-28.78,7.76-41.92,14.79-7.27,3.89-14.48,7.93-21.98,11.36-3.77,1.73-7.71,3.58-11.8,4.36-2.1.4-4.19.14-6.3.08s-4.42-.05-6.64-.04c-3.58.01-7.29-.42-10.81.41-2.91.7-5.62,2.14-8.04,3.88-5.51,3.96-9.92,9.22-14.74,13.96-2.55,2.51-5.19,4.94-8.22,6.86s-6.13,3.29-9.45,4.39c-6.5,2.15-13.3,3.11-19.93,4.74s-13.48,4.26-19.06,8.71-9.36,10.03-13.56,15.4c-3.93,5.03-8.26,10.58-14.27,13.19-3.75,1.63-7.89,1.98-11.89,2.57-3.62.54-7.08,1.44-10.45,2.91-6.92,3.01-12.9,8.05-17.63,13.87s-8.25,12.37-10.03,19.57c-3.06,12.38-1.24,31.79,13.92,35.01,3.07.65,6.23.65,9.35.55,1.93-.06,1.93-3.06,0-3h0Z" style="fill: #010101;"/>
  <path d="M331.08,36.47c8.06,2.42,16.08,5.23,23.17,9.85,8.04,5.24,14.15,12.79,17.54,21.78,1.06,2.81,1.88,5.71,3.13,8.45,1.16,2.53,2.83,4.77,4.93,6.6,3.38,2.94,7.39,5.05,11.56,6.64,7.89,3.01,16.37,3.99,24.28,6.92,3.8,1.41,7.44,3.38,10.48,6.1,3.83,3.43,6.37,7.77,8.48,12.41,2.23,4.91,4.19,10.15,8.04,14.07,3.39,3.46,7.89,5.35,12.6,6.16,4.37.75,8.81.63,13.19,1.2,3.8.5,7.54,1.78,10.72,3.95,3.5,2.38,6.04,5.93,7.32,9.95.9,2.85,1.45,6.06.7,9.01-.66,2.57-2.27,4.74-3.94,6.75-6.38,7.65-14.83,12.87-24.48,15.28-9.07,2.27-18.53,2.21-27.8,1.61-2.28-.15-4.56-.34-6.84-.54-1.92-.17-1.91,2.83,0,3,9.59.85,19.27,1.42,28.85.09s19.08-5,26.62-11.45c2.03-1.74,3.91-3.65,5.63-5.7s3.35-4.17,4.33-6.67c2.04-5.2.64-11.56-1.95-16.34-4.09-7.53-12.23-11.37-20.51-12.07-4.68-.4-9.45-.35-14.01-1.61-5.03-1.39-8.87-4.5-11.49-8.99-2.88-4.94-4.54-10.48-7.6-15.32-2.52-4-5.84-7.42-9.81-9.99-7.25-4.68-15.91-6.11-24.12-8.25-8.89-2.31-19.19-5.96-22.95-15.15-1.16-2.82-1.97-5.76-3.14-8.58-1.02-2.46-2.21-4.84-3.61-7.1-2.48-4-5.57-7.62-9.14-10.67-6.81-5.83-15.02-9.55-23.44-12.39-1.97-.66-3.96-1.28-5.95-1.88-1.85-.56-2.64,2.34-.8,2.89h0Z" style="fill: #010101;"/>
  <path d="M24.52,176.72c5.41-.48,10.88-.19,16.3.02,5.45.2,10.93-.06,16.37.3,6.28.41,12.51,1.39,18.81,1.63,5.16.2,10.31-.13,15.46-.46,26.6-1.69,53.08-5,79.7-6.41,13.33-.7,26.6-.66,39.93.09,14.01.79,28.02,1.57,42.04,2.36,27.28,1.53,54.56,2.98,81.83,4.65,26.39,1.62,52.77,3.48,79.1,5.86,3.19.29,6.39.59,9.58.89,1.92.18,1.91-2.82,0-3-26.39-2.53-52.83-4.47-79.28-6.16-27-1.73-54.02-3.16-81.03-4.67-13.93-.78-27.86-1.56-41.79-2.34-13.55-.76-27.03-1.49-40.61-1.08-26.85.81-53.52,4.36-80.3,6.24-5.78.4-11.58.84-17.37,1.04s-11.31-.17-16.95-.77c-3.11-.33-6.22-.69-9.35-.89s-5.91-.1-8.87-.1c-5.27,0-10.54-.38-15.81-.44-2.59-.03-5.18,0-7.75.23-1.91.17-1.93,3.17,0,3h0Z" style="fill: #010101;"/>
  <path d="M54.82,104.1c5.6,2.34,8.67,8.11,9.84,13.79,1.26,6.14.54,12.91-2.25,18.55-.85,1.72,1.73,3.25,2.59,1.51,4.76-9.63,4.64-22.9-2.3-31.5-1.89-2.35-4.31-4.09-7.08-5.25-.75-.32-1.64.34-1.85,1.05-.25.86.3,1.53,1.05,1.85h0Z" style="fill: #010101;"/>
  <path d="M126.3,61.17c3.08.86,5.63,3.64,7.54,6.4,2.74,3.96,4.72,8.42,6.32,12.94,3.45,9.79,5.58,20.56,4.92,30.97-.24,3.87-.97,8.55-3.39,11.36-1.26,1.45.86,3.59,2.12,2.12,2.67-3.08,3.6-7.23,4.06-11.18.61-5.16.28-10.42-.41-15.56-1.44-10.73-4.47-22.06-10.4-31.23-2.37-3.67-5.57-7.49-9.95-8.71-1.86-.52-2.66,2.38-.8,2.89h0Z" style="fill: #010101;"/>
  <path d="M185.99,33.45c3.53.95,6.37,3.87,8.47,6.91,2.91,4.22,4.91,9.02,6.45,13.89,3.42,10.8,4.95,22.59,3.73,33.88-.53,4.89-1.65,10.05-4.5,14.15-1.1,1.59,1.5,3.09,2.59,1.51,2.7-3.9,3.95-8.72,4.61-13.36.82-5.75.83-11.59.31-17.38-.56-6.17-1.68-12.32-3.44-18.27-1.56-5.25-3.61-10.48-6.6-15.09-2.58-3.98-6.09-7.86-10.83-9.14-1.87-.5-2.66,2.39-.8,2.89h0Z" style="fill: #010101;"/>
  <path d="M326.04,31.72c1.44,3.36,2.33,6.92,3.04,10.49.55,2.75,1.21,5.67,1.45,8.37.38,4.25.05,8.58-.42,12.81-1.13,10.03-3.31,20.41-7.31,29.71-.88,2.05-1.88,4.06-3.13,5.91-.88,1.31-1.95,2.55-3.17,3.24-1.68.95-.17,3.55,1.51,2.59,3.07-1.75,5-5.22,6.49-8.29,2.23-4.61,3.81-9.53,5.11-14.47,1.42-5.38,2.47-10.85,3.21-16.37.62-4.66,1.06-9.41.79-14.11-.18-3.01-.83-5.97-1.39-8.92-.81-4.28-1.87-8.46-3.59-12.47-.76-1.77-3.34-.24-2.59,1.51h0Z" style="fill: #010101;"/>
  <path d="M379.08,83.42c4.44,5.02,2.93,13.39,1.24,19.19-2.41,8.28-6.86,16.22-12.74,22.54-3.07,3.3-6.62,6.18-10.76,8.01-1.76.78-.24,3.36,1.51,2.59,8.21-3.62,14.48-11.13,18.93-18.71s7.85-16.28,7.63-25.01c-.1-3.88-1.07-7.77-3.69-10.73-1.28-1.45-3.4.68-2.12,2.12h0Z" style="fill: #010101;"/>
  <path d="M442.48,130.29c.15,5.18-2.5,10.08-5.55,14.09-2.88,3.79-6.56,7.39-10.86,9.52-1.73.86-.21,3.45,1.51,2.59,4.76-2.37,8.77-6.4,11.93-10.6,3.35-4.44,6.12-9.91,5.96-15.61-.06-1.93-3.06-1.93-3,0h0Z" style="fill: #010101;"/>
</svg>