<?xml version="1.0" encoding="UTF-8"?>
<svg id="Layer_1" data-name="Layer 1" xmlns="http://www.w3.org/2000/svg" viewBox="0 0 208.41 94.58">
  <path d="M43.07,31.15c-5.48-3.21-12.41-2.98-18.36-1.37s-11.71,5.1-16.04,9.63S1.1,50.04.25,56.51s.51,13.56,4.38,19.02c8.03,11.31,24.39,13.94,37.17,10.86,6.12-1.47,12.03-4.52,16.38-9.14,4.04-4.3,6.7-9.89,7.52-15.73.94-6.64-.55-13.35-4.77-18.64-4.62-5.79-11.54-9.08-18.22-11.88-.75-.32-1.64.34-1.85,1.05-.25.86.3,1.53,1.05,1.85,5.4,2.26,10.91,4.88,15.09,9.09,3.88,3.9,5.96,9,5.99,14.49.07,11.25-7.42,20.84-17.76,24.73-5.46,2.05-11.34,2.68-17.13,2.15-6.32-.58-12.98-2.52-17.76-6.87-9.32-8.49-9.29-22.88-2.23-32.75,3.63-5.08,9.03-9.15,14.9-11.28s13.03-2.95,18.54.28c1.67.98,3.18-1.61,1.51-2.59h0Z" style="fill: #010101;"/>
  <path d="M34.23,55.75c12.65-8.25,26.3-14.53,40.3-20.1,4.08-1.62,8.18-3.21,12.28-4.79,1.78-.69,1.01-3.59-.8-2.89-14.2,5.5-28.47,10.96-41.85,18.32-3.9,2.15-7.72,4.44-11.45,6.88-1.61,1.05-.11,3.65,1.51,2.59h0Z" style="fill: #010101;"/>
  <path d="M83.02,14.89c1.6,12.81,2.97,25.61,3.85,38.49.31,4.54.61,9.07.92,13.61.13,1.92,3.13,1.93,3,0-.87-12.87-1.67-25.74-3.13-38.56-.52-4.52-1.07-9.03-1.63-13.54-.24-1.89-3.24-1.91-3,0h0Z" style="fill: #010101;"/>
  <path d="M37.11,56.54c13.92,1.35,27.79,4.43,41.18,8.4,3.57,1.06,7.1,2.21,10.6,3.49,1.82.67,2.6-2.23.8-2.89-13.35-4.9-27.39-8.26-41.42-10.53-3.7-.6-7.42-1.1-11.16-1.46-1.92-.19-1.91,2.82,0,3h0Z" style="fill: #010101;"/>
  <path d="M78.97.06c-2.83.76-5.65.7-7.97,2.73-1.92,1.68-4.07,3.94-2.93,6.67s4.11,3.88,6.65,4.82c2.77,1.03,5.69,1.64,8.64,1.89,5.77.5,11.62-.53,16.89-2.9,2.14-.97,5.8-2.44,5.6-5.32s-4.26-3.88-6.38-4.66C93.08.97,86.12.44,79.37,0c-1.93-.12-1.92,2.88,0,3,4.82.31,9.65.69,14.37,1.76,2.26.51,4.52,1.17,6.64,2.11.5.22,2.5.99,2.42,1.44-.13.7-2.4,1.57-2.97,1.85-8.03,4.01-18.44,4.37-26.53.28-.92-.47-2.55-1.32-2.57-2.54-.02-.94,1.16-1.83,1.76-2.41,1.03-.98,1.99-1.51,3.38-1.8,1.3-.27,2.61-.4,3.89-.75,1.86-.5,1.07-3.4-.8-2.89h0Z" style="fill: #010101;"/>
  <path d="M87.46,31.18c19.2.55,38.41.09,57.61-.17,5.23-.07,10.46-.13,15.7-.15,1.93,0,1.93-3.01,0-3-19.21.07-38.41.63-57.61.56-5.23-.02-10.46-.09-15.69-.24-1.93-.06-1.93,2.94,0,3h0Z" style="fill: #010101;"/>
  <path d="M159.48,29.17c-17.65,10.37-36,19.47-54.34,28.54-5.19,2.57-10.39,5.13-15.57,7.73-1.73.86-.21,3.45,1.51,2.59,18.39-9.19,36.94-18.07,55.01-27.86,5.01-2.72,9.98-5.51,14.9-8.4,1.66-.98.16-3.57-1.51-2.59h0Z" style="fill: #010101;"/>
  <path d="M193.36,35.31c-12.86-3.62-27.16.27-36.17,10.19-8.08,8.9-13.33,24.14-5.56,34.8,3.36,4.61,8.27,7.77,13.46,9.98,5.95,2.53,12.83,4.43,19.33,4.3s12.55-3.29,16.7-8.37c4.39-5.37,6.4-12.08,7.02-18.91.68-7.46.33-15.91-3.37-22.61-1.4-2.53-3.35-5.13-5.69-6.87-2.18-1.63-4.88-2.36-7.46-3.11-1.86-.54-2.65,2.35-.8,2.89,2.06.6,4.23,1.14,6.05,2.32s3.26,3.09,4.45,4.88c3.42,5.14,4.05,11.59,4.03,17.61-.03,6.37-1,12.97-4.24,18.55-2.74,4.73-7.11,8.72-12.5,10.08-6.17,1.55-13.14-.25-19.02-2.25-4.8-1.63-9.55-3.99-13.2-7.56-4.05-3.96-5.9-9.07-5.47-14.72s2.7-11.3,6.01-15.95c7.96-11.19,22.48-16.08,35.64-12.37,1.86.52,2.66-2.37.8-2.89h0Z" style="fill: #010101;"/>
  <path d="M152.46,7.75c5.04,15.61,11.8,30.48,19.72,44.83,2.35,4.26,4.78,8.48,7.24,12.68.97,1.67,3.57.16,2.59-1.51-8.16-13.96-15.94-28.17-21.84-43.26-1.75-4.46-3.34-8.98-4.81-13.53-.59-1.83-3.49-1.05-2.89.8h0Z" style="fill: #010101;"/>
  <path d="M154.09,5.4c-4.83-1.37-10.72-2.27-15.56-.48-1.22.45-2.66,1.08-3.42,2.18s-.69,2.53.25,3.51c1.93,2.02,5.17,1.15,7.51.67,3.79-.78,7.54-1.79,11.21-3,1.83-.6,1.04-3.5-.8-2.89-2.68.88-5.39,1.66-8.14,2.31-1.34.32-2.7.61-4.05.88-.93.18-1.84.44-2.78.25-.28-.06-.6-.24-.8-.29-.03,0-.17-.22,0,.1s-.12.17.12.09c.39-.14.81-.53,1.2-.72s.83-.34,1.27-.46c2-.58,4.11-.63,6.18-.51,2.37.15,4.72.59,7,1.24,1.86.53,2.66-2.37.8-2.89h0Z" style="fill: #010101;"/>
  <path d="M35.16,54.35c.21-.93-.18-1.88-1.02-2.35-.53-.29-1.3-.38-1.82-.04-.32.21-.58.53-.74.88-.43.91-.54,1.98-.17,2.94.2.52.45.98.85,1.38s.87.67,1.39.85c.96.33,2.1.13,2.97-.37.5-.29.89-.68,1.22-1.14s.49-1.03.55-1.6c.12-1.03-.34-2.06-1.01-2.82-.39-.44-.89-.73-1.42-.94s-1.16-.23-1.75-.14-1.14.39-1.53.81c-.56.6-.79,1.41-.6,2.21s.79,1.45,1.56,1.69c.84.26,1.84-.08,2.28-.86.3-.54.39-1.21.18-1.8-.16-.45-.42-.84-.84-1.1-.46-.28-.92-.29-1.43-.2-.35.06-.73.4-.9.69-.19.32-.27.8-.15,1.16s.34.71.69.9c.38.2.74.22,1.16.15h.04c-.13.01-.27.03-.4.05.03,0,.07,0,.1,0l-.4-.05s.06.01.09.03l-.36-.15s.05.03.08.05l-.3-.23s.04.04.06.07l-.23-.3s.05.07.07.11l-.15-.36c.03.07.04.13.05.2l-.05-.4c0,.07,0,.14,0,.21l.05-.4c-.01.06-.03.11-.05.17l.15-.36s-.04.08-.07.11l.23-.3s-.05.05-.07.07l.3-.23s-.06.04-.09.05l.36-.15s-.07.02-.12.03l.4-.05s-.09,0-.14,0l.4.05c-.06,0-.12-.02-.17-.05l.36.15c-.06-.03-.11-.06-.16-.1l.3.23s-.09-.09-.13-.13l.23.3c-.05-.07-.09-.13-.12-.21l.15.36c-.03-.08-.05-.15-.07-.23l.05.4c-.01-.08-.01-.16,0-.24l-.05.4c.01-.07.03-.13.05-.19l-.15.36c.04-.08.08-.16.14-.23l-.23.3c.06-.07.12-.13.19-.19l-.3.23c.09-.06.18-.12.28-.16l-.36.15c.14-.06.28-.09.43-.12l-.4.05c.15-.02.3-.02.44,0l-.4-.05c.18.03.34.07.51.14l-.36-.15c.16.07.31.16.45.27l-.3-.23c.15.12.29.26.41.41l-.23-.3c.13.17.24.35.32.55l-.15-.36c.07.18.12.37.15.56l-.05-.4c.02.18.02.35,0,.53l.05-.4c-.02.16-.06.31-.12.45l.15-.36c-.07.16-.15.3-.25.44l.23-.3c-.12.15-.25.28-.39.39l.3-.23c-.16.12-.34.23-.53.31l.36-.15c-.19.08-.39.13-.59.16l.4-.05c-.2.03-.4.03-.61,0l.4.05c-.17-.03-.33-.07-.49-.14l.36.15c-.14-.06-.26-.14-.39-.23l.3.23c-.13-.1-.24-.22-.35-.35l.23.3c-.12-.16-.22-.33-.3-.51l.15.36c-.08-.2-.14-.41-.17-.62l.05.4c-.02-.2-.03-.39,0-.59l-.05.4c.02-.18.07-.35.14-.52l-.15.36c.06-.15.15-.29.24-.43l-.9.69h.05c-.13.01-.27.03-.4.05.04,0,.07,0,.11,0l-.4-.05c.05.01.1.02.15.05l-.36-.15s.06.03.09.05l-.3-.23c.06.05.11.09.15.15l-.23-.3s.05.09.08.14l-.15-.36s.02.07.03.1l-.05-.4c0,.06,0,.1,0,.16l.05-.4v.05c-.1.39-.07.8.14,1.16.18.31.54.61.9.69.76.17,1.66-.23,1.85-1.05h0Z" style="fill: #010101;"/>
  <path d="M182.1,65.59c.46-.22.79-.68.94-1.15.12-.38.11-.81.01-1.2s-.32-.74-.59-1.05c-.25-.28-.66-.53-1.03-.61-1.69-.38-3.19,1.06-3.49,2.65-.06.32-.12.67-.09,1.01.04.49.13.84.33,1.28.31.66.99,1.22,1.71,1.38.77.17,1.64.05,2.3-.41.39-.28.69-.56.95-.97.1-.15.17-.31.24-.48.08-.18.15-.36.2-.55.09-.39.14-.81.11-1.22-.04-.52-.11-1.03-.35-1.5-.37-.74-1.28-1.18-2.08-.95-.34.1-.6.25-.85.49-.18.18-.36.48-.42.74-.07.31-.06.58,0,.88.07.35.39.72.69.9.32.19.8.27,1.16.15s.71-.34.9-.69c.2-.37.23-.74.15-1.16v-.04c.01.13.03.27.05.4v-.03c-.02.13-.04.27-.05.4v-.03c-.04.12-.09.24-.14.36,0-.02.02-.04.03-.06l-.23.3s.03-.04.05-.05l-.3.23s.04-.03.06-.04l-.36.15s.05-.02.07-.02l-.4.05s.07,0,.11,0l-.4-.05h.04c-.12-.04-.24-.09-.36-.14.03,0,.05.02.07.04l-.3-.23s.07.06.1.09l-.23-.3c.04.05.06.1.09.16l-.15-.36c.06.16.09.32.11.49l-.05-.4c.03.27.04.53,0,.8l.05-.4c-.03.21-.08.41-.16.61l.15-.36c-.06.14-.14.28-.23.4l.23-.3c-.09.11-.18.2-.29.29l.3-.23c-.11.08-.23.15-.35.21l.36-.15c-.13.05-.25.09-.39.11l.4-.05c-.12.01-.23.02-.35,0l.4.05c-.1-.01-.2-.04-.3-.08l.36.15c-.09-.04-.18-.09-.26-.15l.3.23c-.07-.06-.14-.13-.2-.2l.23.3c-.07-.09-.12-.18-.16-.28l.15.36c-.06-.14-.1-.29-.12-.44l.05.4c-.02-.19-.02-.37,0-.56l-.05.4c.03-.22.09-.43.17-.63l-.15.36c.08-.18.17-.34.29-.5l-.23.3c.1-.13.22-.25.35-.36l-.3.23c.09-.07.18-.13.29-.17l-.36.15c.09-.04.18-.06.27-.08l-.4.05c.08,0,.16-.01.24,0l-.4-.05c.06,0,.11.02.16.04l-.36-.15c.06.03.12.06.17.1l-.3-.23c.05.04.1.09.14.15l-.23-.3c.05.07.09.13.12.21l-.15-.36c.03.07.05.15.06.22l-.05-.4c0,.06,0,.12,0,.19l.05-.4c0,.05-.02.1-.04.14l.15-.36s-.04.07-.06.1l.23-.3s-.04.04-.06.06l.3-.23s-.07.05-.11.07c-.32.15-.6.57-.69.9-.1.36-.05.84.15,1.16s.51.6.9.69l.4.05c.27,0,.52-.07.76-.2h0Z" style="fill: #010101;"/>
</svg>