<?xml version="1.0" encoding="UTF-8"?>
<svg id="Layer_1" data-name="Layer 1" xmlns="http://www.w3.org/2000/svg" viewBox="0 0 473.32 1037.1">
  <path d="M173.44,206.89c-49.39,0-89.58-40.36-89.58-89.97S124.04,26.96,173.44,26.96s89.58,40.36,89.58,89.97-40.18,89.97-89.58,89.97ZM173.44,28.46c-48.57,0-88.08,39.69-88.08,88.47s39.51,88.47,88.08,88.47,88.08-39.69,88.08-88.47S222,28.46,173.44,28.46Z"/>
  <path d="M202.25,225.39l-.37-1.46c2.34-.59,4.69-1.27,6.97-2.03,17.74-5.87,33.86-16.72,46.6-31.37,12.63-14.52,21.12-31.81,24.56-49.98,1.88-9.93,1.8-19.99,1.54-30.28-.31-12.28-2.82-24.26-7.45-35.61-7.72-18.91-22.22-36.41-40.85-49.28-17.46-12.06-37.26-18.34-57.21-18.15v-1.5c20.28-.2,40.34,6.17,58.06,18.41,18.86,13.03,33.56,30.77,41.39,49.95,4.7,11.52,7.24,23.68,7.56,36.14.26,10.38.34,20.52-1.56,30.6-3.48,18.43-12.09,35.96-24.9,50.69-12.92,14.85-29.26,25.85-47.26,31.81-2.32.77-4.7,1.46-7.08,2.06Z"/>
  <path d="M139.14,224.35c-18.16-5.07-35.65-16.66-51.98-34.45-6.34-6.9-11.99-16.16-16.8-27.51-4.26-10.06-7.07-20.57-8.34-31.24-2.56-21.52,1.14-43.68,10.41-62.41,8.31-16.77,21.08-31.53,36.95-42.68,16.18-11.37,34.57-18.25,53.17-19.88,2.33-.21,4.7-.33,7.04-.37l.02,1.5c-2.31.04-4.64.16-6.93.36-18.34,1.61-36.47,8.4-52.44,19.62-15.67,11.01-28.28,25.57-36.47,42.12-9.14,18.46-12.79,40.33-10.27,61.56,1.25,10.53,4.02,20.9,8.23,30.83,4.75,11.2,10.31,20.31,16.53,27.08,16.14,17.58,33.39,29.03,51.28,34.02l-.4,1.44Z"/>
  <path d="M215.84,237.41c-22.15-.23-44.3-.39-66.45-.84-6.29-.13-12.58-.28-18.87-.48l.75.75c-.03-.38-.31-.6-.38-.75-.23-.53-.24-1.67-.32-2.39-.19-1.76-.28-3.54-.27-5.31,0-.89.03-1.77.08-2.66.03-.46.26-1.3.04-1.73.17.34-.87-.01.03.2.41.1.96.03,1.38.04.92.03,1.85.05,2.77.08,6.58.19,13.17.35,19.75.5,13.55.3,27.09.51,40.64.64,7.49.07,14.98.12,22.48.14l-.75-.75c.08.76.3,1.49.37,2.25.1,1.13.07,2.28.15,3.42.16,2.34.33,4.66-.13,6.98-.19.94,1.26,1.35,1.45.4.45-2.3.37-4.59.21-6.91-.08-1.17-.1-2.34-.16-3.52-.05-.89-.29-1.74-.38-2.62-.04-.4-.31-.75-.75-.75-28.24-.08-56.49-.51-84.72-1.33-.89-.03-1.88-.19-2.76-.08-.4.05-.7.12-.92.51-.23.41-.12.9-.12,1.34,0,.96-.12,1.93-.14,2.89-.05,2.01.03,4.03.23,6.03.12,1.2-.02,3.15,1.08,3.88l-.37-.65v.14c.05.41.33.74.76.75,22.17.68,44.34.88,66.52,1.11,6.27.07,12.53.13,18.8.2.97.01.97-1.49,0-1.5h0Z"/>
  <path d="M215.8,238.87c.76-.07,1.52-.21,2.25-.43.18-.06.35-.18.45-.34s.13-.4.08-.58c-.12-.38-.52-.65-.92-.52-.54.17-1.1.29-1.66.36l.2-.03c-.13.02-.26.03-.39.04-.2.02-.38.07-.53.22-.13.13-.23.34-.22.53s.07.4.22.53c.14.13.34.24.53.22h0Z"/>
  <path d="M53.46,265.08c-3.94-.21-7.92.61-11.53,2.15s-6.73,4.15-9.19,7.41-4.39,7.31-5.3,11.44c-1.05,4.78-.68,9.84-.73,14.71l-.2,18.04c-.01.97,1.49.97,1.5,0l.16-14.83.08-7.41c.03-2.37-.08-4.78.15-7.13.77-7.82,5.3-16.26,12.39-20.04,3.84-2.05,8.32-3.08,12.66-2.85.96.05.96-1.45,0-1.5h0Z"/>
  <path d="M26.51,318.84c.11,8.87.06,17.74.17,26.61.01.96,1.51.97,1.5,0-.11-8.87-.06-17.74-.17-26.61-.01-.96-1.51-.97-1.5,0h0Z"/>
  <path d="M26.68,345.45c-.07,11.22-.14,22.43-.21,33.65,0,.97,1.49.97,1.5,0,.07-11.22.14-22.43.21-33.65,0-.97-1.49-.97-1.5,0h0Z"/>
  <path d="M26.47,379.1c-.07,6.27.38,12.52.31,18.78-.01.97,1.49.97,1.5,0,.07-6.27-.38-12.52-.31-18.78.01-.97-1.49-.97-1.5,0h0Z"/>
  <path d="M26.78,397.88c.18,10.7.36,21.39.54,32.09.02.96,1.52.97,1.5,0-.18-10.7-.36-21.39-.54-32.09-.02-.96-1.52-.97-1.5,0h0Z"/>
  <path d="M27.32,429.97c-.4,6.78-.58,13.55-.69,20.34-.01.97,1.49.97,1.5,0,.1-6.79.29-13.56.69-20.34.06-.96-1.44-.96-1.5,0h0Z"/>
  <path d="M26.64,450.31c-.14,14.96-.24,29.92-.3,44.88,0,.97,1.5.97,1.5,0,.06-14.96.16-29.92.3-44.88,0-.97-1.49-.97-1.5,0h0Z"/>
  <path d="M26.34,495.19c-.16,8.52.31,17.04.16,25.56-.02.97,1.48.97,1.5,0,.16-8.52-.31-17.04-.16-25.56.02-.97-1.48-.97-1.5,0h0Z"/>
  <path d="M26.49,520.75c-.04,15.31-.21,30.61-.25,45.92,0,.97,1.5.97,1.5,0,.04-15.31.21-30.61.25-45.92,0-.97-1.5-.97-1.5,0h0Z"/>
  <path d="M26.24,566.67c-.5,9.56-.49,19.14.02,28.71.05.96,1.55.97,1.5,0-.51-9.56-.52-19.14-.02-28.71.05-.96-1.45-.96-1.5,0h0Z"/>
  <path d="M26.26,595.38c-.15,9.04-.19,18.07-.34,27.11-.02.97,1.48.97,1.5,0,.15-9.04.19-18.07.34-27.11.02-.97-1.48-.97-1.5,0h0Z"/>
  <path d="M25.92,622.49c.04,10.96.41,21.91.45,32.87,0,.97,1.5.97,1.5,0-.04-10.96-.41-21.91-.45-32.87,0-.97-1.5-.97-1.5,0h0Z"/>
  <path d="M26.37,655.36c-.45,10.61-.47,21.21-.29,31.83.02.96,1.52.97,1.5,0-.18-10.61-.16-21.22.29-31.83.04-.97-1.46-.96-1.5,0h0Z"/>
  <path d="M26.08,687.19c.03,18.73.09,37.46.38,56.18.08,5.45.18,10.89.3,16.34.02.96,1.52.97,1.5,0-.4-18.72-.57-37.45-.64-56.18-.02-5.45-.03-10.89-.04-16.34,0-.97-1.5-.97-1.5,0h0Z"/>
  <path d="M26.76,759.71c-.03,20.01.12,40.01.91,60.01.04.96,1.54.97,1.5,0-.79-19.99-.94-40-.91-60.01,0-.97-1.5-.97-1.5,0h0Z"/>
  <path d="M27.66,819.72c.48,15.77.64,31.56.48,47.34,0,.97,1.49.97,1.5,0,.16-15.78,0-31.56-.48-47.34-.03-.96-1.53-.97-1.5,0h0Z"/>
  <path d="M28.15,867.06c-.59,15.96-.81,31.93-.52,47.91.08,4.77.21,9.54.35,14.31.03.96,1.53.97,1.5,0-.49-15.97-.64-31.94-.27-47.91.11-4.77.26-9.54.43-14.31.04-.97-1.46-.96-1.5,0h0Z"/>
  <path d="M27.98,929.28c.04,20.41.09,40.82.13,61.23.01,5.81.02,11.62.04,17.42,0,.97,1.5.97,1.5,0-.04-20.41-.09-40.82-.13-61.23-.01-5.81-.02-11.62-.04-17.42,0-.97-1.5-.97-1.5,0h0Z"/>
  <path d="M27.81,440.33c-.31-.06-.63-.05-.94-.06-.23,0,.08.04-.05,0s-.26-.05-.39-.07c-.3-.04-.57,0-.87.05-.52.06-1.07-.14-1.44.34-.03.03-.18.36-.19.36,0,0,.16-.22.03-.09-.21.2-.29.52-.3.8-.05,1.04.03,2.09.05,3.13.02.98-.1,2.18.89,2.74.42.24.92.31,1.4.28.22-.01.44-.04.66-.05.12,0,.24-.02.36-.02.04,0,.08,0,.13,0,.03,0,.2.01.06,0,.4.06.81-.1.92-.52.1-.35-.12-.87-.52-.92-.62-.09-1.22.04-1.84.03-.17,0-.19,0-.32-.04,0,0-.18-.1-.14-.06-.13-.14-.09-.53-.09-.77-.01-.8-.03-1.6-.04-2.4,0-.42-.02-.84-.02-1.26,0-.03,0-.06,0-.1,0-.05,0-.05,0,.01-.08.09-.13.23.02.05.05-.06.08-.11.11-.18l.08-.18c-.02.05-.04.1-.08.14l-.33.19c-.09.02-.07.03.06.02.07,0,.15,0,.22,0,.15,0,.29,0,.44-.02s.29-.06.44-.07c.13,0,.25.04.38.06.2.04.39.05.59.05.09,0,.19,0,.28,0,.06,0,.32.04.06,0,.4.07.81-.11.92-.52.1-.37-.12-.85-.52-.92h0Z"/>
  <path d="M25.27,441.53c.28-1.58,0-3.67-.53-5.18-.45-1.27-1.73-1.85-3.01-1.8-3.54.16-5.48,3.77-6.22,6.79-2.05,8.42-.47,17.17-.61,25.71-.03,1.81.48,6.05-2.01,6.31s-5.01.13-7.48.19c-.38,0-.78.34-.75.75.17,2.32.14,4.77.53,7.06.32,1.87,2.44,1.44,3.88,1.46,2.44.03,4.87.06,7.31.1,1.61.02,3.09-.09,3.75-1.77.71-1.78.34-4.04.28-5.89-.07-2.44-.18-4.88-.27-7.32-.17-4.79-.28-9.59.05-14.38.04-.6-.07-1.39.55-1.62.34-.13.91.07,1.29.03.9-.09,1.76-.5,2.39-1.15,1.19-1.23,1.55-3.31.7-4.8-.48-.84-1.78-.08-1.3.76.62,1.07.14,2.66-.88,3.33-.94.62-1.88.11-2.87.38-1.7.47-1.38,2.93-1.45,4.27-.28,5.12-.09,10.24.1,15.36.1,2.52.2,5.04.25,7.57.02.97.19,2.29-.35,3.15-.62.98-2.7.56-3.71.55-1.22-.02-2.44-.03-3.65-.05s-2.69.18-3.9-.05c-.33.11-.56.03-.71-.25l-.07-.96-.14-1.93c-.09-1.29-.19-2.57-.28-3.86l-.75.75c2.48-.06,5,0,7.48-.19,1.89-.14,2.9-1.29,3.21-3.11.8-4.7.23-9.74.02-14.48-.22-5.03-.38-10.17.74-15.11.5-2.24,1.42-4.77,3.68-5.79.54-.24,1.22-.43,1.81-.29.82.2.96.71,1.14,1.48.26,1.13.55,2.42.35,3.57-.17.94,1.28,1.35,1.45.4h0Z"/>
  <path d="M6.09,474.71c.33-.95-.37-1.81-1.15-2.28-.91-.54-1.99-.59-2.91-.04C-.05,473.64,0,476.64,0,478.76c0,.6.01,1.21.03,1.81s-.01,1.3.14,1.93c.24,1.02,1.06,1.65,2.04,1.92.87.24,1.99.41,2.88.16,1.16-.32,1.53-1.37,1.63-2.46.22-2.56-.47-5.06-.59-7.61-.04-.96-1.54-.97-1.5,0,.08,1.64.4,3.25.56,4.89.08.84.1,1.68.04,2.52-.02.32-.02.79-.24,1.05-.21.23-.58.23-.86.22-.62-.01-1.35-.08-1.92-.36-.75-.36-.64-1.22-.66-1.94-.06-1.82-.19-3.78.24-5.56.19-.78.64-1.71,1.53-1.84.34-.05.67.09.95.27.13.09.25.19.35.31.12.14.08.13.04.23-.32.91,1.13,1.31,1.45.4h0Z"/>
  <path d="M24.41,1033.03c3.44,1.44,7.2,1.98,10.9,1.51s7.47-.41,11.15-.24c7.26.34,14.4,1.71,21.69,1.2.96-.07.97-1.57,0-1.5-7.14.49-14.14-.81-21.25-1.18-1.91-.1-3.82-.09-5.73-.07-1.7.02-3.39-.04-5.08.18-3.91.51-7.62.19-11.29-1.34-.89-.37-1.28,1.08-.4,1.45h0Z"/>
  <path d="M68.16,1035.5c18.08,1.43,36.23,1.91,54.36,1.41,5.11-.14,10.22-.36,15.32-.65.96-.06.97-1.56,0-1.5-18.11,1.04-36.26,1.12-54.38.23-5.1-.25-10.21-.58-15.3-.99-.96-.08-.96,1.42,0,1.5h0Z"/>
  <path d="M137.84,1036.26c20.87.8,41.77.52,62.64-.25,5.99-.22,11.99-.48,17.98-.75.96-.04.97-1.54,0-1.5-20.86.96-41.74,1.68-62.63,1.45-6-.07-11.99-.22-17.98-.45-.97-.04-.96,1.46,0,1.5h0Z"/>
  <path d="M218.45,1035.26c19.15.06,38.3-.14,57.45-.43,5.49-.08,10.99-.17,16.48-.26.96-.02.97-1.52,0-1.5-19.15.31-38.3.61-57.45.68-5.5.02-10.99.02-16.49,0-.97,0-.97,1.5,0,1.5h0Z"/>
  <path d="M292.39,1034.57c10.52.38,20.99-.78,31.4-2.19,4.09-.55,8.24-.66,12.31-1.31,3.31-.53,6.62-1.6,8.4-4.65s2.38-7.1.65-10.14c-.48-.84-1.77-.08-1.3.76,1.48,2.61.75,6.3-.73,8.76-1.82,3.03-5.67,3.66-8.92,4.03-3.69.43-7.38.64-11.06,1.14-4.82.65-9.65,1.24-14.5,1.65-5.41.45-10.83.65-16.26.46-.97-.03-.96,1.47,0,1.5h0Z"/>
  <path d="M28.75,1003.61c-2.21-.16-4.98.59-6.18,2.59-1.69,2.8-1.91,6.64-2.27,9.81-.42,3.62-.81,7.53-.33,11.16.32,2.42,1.77,5.44,4.45,5.87.94.15,1.35-1.29.4-1.45-2.78-.45-3.43-4.01-3.48-6.31-.07-2.93.09-5.88.41-8.79.3-2.72.59-5.66,1.53-8.25.47-1.3,1.14-2.17,2.45-2.66.97-.36,2.01-.53,3.04-.46.96.07.96-1.43,0-1.5h0Z"/>
  <path d="M28.17,1008.13c.34,2.37,2.67,3.56,4.72,4.24,3.12,1.05,6.48,1.36,9.76,1.39,7.06.07,14.17-.48,21.22-.78.96-.04.97-1.54,0-1.5-6.27.27-12.54.6-18.81.76-3.33.08-6.67-.01-9.93-.79-2.04-.49-5.16-1.25-5.51-3.71-.13-.95-1.58-.55-1.45.4h0Z"/>
  <path d="M63.87,1012.98c15.38.87,30.77,1.27,46.17,1.15.96,0,.97-1.51,0-1.5-15.4.11-30.8-.28-46.17-1.15-.96-.05-.96,1.45,0,1.5h0Z"/>
  <path d="M110.05,1014.13c14.87.6,29.74.97,44.63.76.96-.01.97-1.51,0-1.5-14.88.21-29.76-.16-44.63-.76-.97-.04-.96,1.46,0,1.5h0Z"/>
  <path d="M154.67,1014.89c3.4.16,6.8.61,10.21.52,3.73-.09,7.46-.22,11.19-.27,7.12-.11,14.24-.03,21.36.12.97.02.97-1.48,0-1.5-7.12-.15-14.24-.23-21.36-.12-3.73.06-7.46.18-11.19.27-3.41.08-6.81-.36-10.21-.52-.96-.05-.96,1.45,0,1.5h0Z"/>
  <path d="M197.44,1015.26c16.12,1.41,32.25-1.48,48.37-.41.96.06.96-1.44,0-1.5-16.13-1.06-32.25,1.82-48.37.41-.96-.08-.96,1.42,0,1.5h0Z"/>
  <path d="M245.81,1014.85c20.76,1.11,41.54.55,62.22-1.57.95-.1.96-1.6,0-1.5-20.68,2.11-41.46,2.68-62.22,1.57-.96-.05-.96,1.45,0,1.5h0Z"/>
  <path d="M329.91,1005.37c-.08,4.32-6.09,5.36-9.36,5.84-4.15.6-8.34.51-12.52.57-.96.02-.97,1.52,0,1.5,3.44-.05,6.88,0,10.32-.32,3.63-.34,7.89-.86,10.84-3.22,1.37-1.1,2.19-2.61,2.22-4.38.02-.97-1.48-.97-1.5,0h0Z"/>
  <path d="M54.06,295.43c.5,11.58.69,23.17.59,34.76,0,.97,1.49.97,1.5,0,.1-11.59-.09-23.18-.59-34.76-.04-.96-1.54-.97-1.5,0h0Z"/>
  <path d="M54.65,330.19c.03,7.83.07,15.65.1,23.48,0,.96,1.5.97,1.5,0-.03-7.83-.07-15.65-.1-23.48,0-.96-1.5-.97-1.5,0h0Z"/>
  <path d="M54.75,353.67c-.05,2.54.11,5.07.1,7.61s-.11,5.26-.16,7.89c-.09,5.27-.09,10.54.17,15.8s-.04,10.55-.04,15.8.05,10.53.13,15.8c.02.96,1.52.97,1.5,0-.08-5.27-.13-10.53-.13-15.8s.3-10.56.04-15.8-.25-10.53-.17-15.8c.04-2.63.14-5.26.16-7.89s-.14-5.07-.1-7.61c.02-.97-1.48-.97-1.5,0h0Z"/>
  <path d="M54.95,416.57c.05,10.73-.23,21.46-.18,32.19,0,.96,1.5.97,1.5,0-.05-10.73.23-21.46.18-32.19,0-.96-1.5-.97-1.5,0h0Z"/>
  <path d="M54.77,448.75c-.05,14.35-.12,28.69-.16,43.04,0,.97,1.5.97,1.5,0,.05-14.35.12-28.69.16-43.04,0-.97-1.5-.97-1.5,0h0Z"/>
  <path d="M54.61,491.79c.55,10.69.78,21.39.69,32.09,0,.97,1.49.97,1.5,0,.09-10.7-.14-21.4-.69-32.09-.05-.96-1.55-.97-1.5,0h0Z"/>
  <path d="M55.3,523.88c0,9.78.23,19.56.24,29.35,0,.97,1.5.97,1.5,0,0-9.78-.23-19.56-.24-29.35,0-.97-1.5-.97-1.5,0h0Z"/>
  <path d="M55.54,553.23c-.41,10.7.27,21.4.63,32.09.03.96,1.53.97,1.5,0-.36-10.69-1.04-21.39-.63-32.09.04-.97-1.46-.96-1.5,0h0Z"/>
  <path d="M56.16,585.32c-.72,9.51-.91,19.04-.74,28.58.02.96,1.52.97,1.5,0-.17-9.53.02-19.07.74-28.58.07-.96-1.43-.96-1.5,0h0Z"/>
  <path d="M55.42,613.9c.8,11.99.85,24.01.17,36-.05.96,1.45.96,1.5,0,.68-11.99.63-24.01-.17-36-.06-.96-1.56-.97-1.5,0h0Z"/>
  <path d="M55.59,649.9c.18,11.6.44,23.2.62,34.8.01.96,1.51.97,1.5,0-.18-11.6-.44-23.2-.62-34.8-.01-.96-1.51-.97-1.5,0h0Z"/>
  <path d="M56.21,684.7c.64,11.21.93,22.43.92,33.66,0,.97,1.5.97,1.5,0,.01-11.23-.28-22.45-.92-33.66-.05-.96-1.55-.97-1.5,0h0Z"/>
  <path d="M57.13,718.36c-.04,13.44-.13,26.87-.47,40.31-.02.97,1.48.97,1.5,0,.34-13.43.43-26.87.47-40.31,0-.97-1.5-.97-1.5,0h0Z"/>
  <path d="M56.66,758.67c.27,13.69.54,27.39.8,41.08.02.96,1.52.97,1.5,0-.27-13.69-.54-27.39-.8-41.08-.02-.96-1.52-.97-1.5,0h0Z"/>
  <path d="M57.47,799.75c-.1,8.35-.05,16.7-.15,25.05-.01.97,1.49.97,1.5,0,.1-8.35.05-16.7.15-25.05.01-.97-1.49-.97-1.5,0h0Z"/>
  <path d="M57.31,824.8c-.26,9.53.08,19.05.54,28.56.05.96,1.55.97,1.5,0-.45-9.52-.8-19.03-.54-28.56.03-.97-1.47-.96-1.5,0h0Z"/>
  <path d="M57.85,853.36c-.14,11.09-.11,22.18-.25,33.26-.01.97,1.49.97,1.5,0,.14-11.09.11-22.18.25-33.26.01-.97-1.49-.97-1.5,0h0Z"/>
  <path d="M57.6,886.62c.23,9.39.48,18.79.71,28.18.02.96,1.52.97,1.5,0-.23-9.39-.48-18.79-.71-28.18-.02-.96-1.52-.97-1.5,0h0Z"/>
  <path d="M58.31,914.8c-.28,9.39-.81,18.79-.08,28.17.07.96,1.57.96,1.5,0-.73-9.38-.2-18.78.08-28.17.03-.97-1.47-.96-1.5,0h0Z"/>
  <path d="M58.23,942.97c.28,14.85.24,29.71.52,44.56.02.96,1.52.97,1.5,0-.28-14.85-.24-29.71-.52-44.56-.02-.96-1.52-.97-1.5,0h0Z"/>
  <path d="M58.75,985.23c.19,9.04.15,18.09.33,27.13.02.96,1.52.97,1.5,0-.19-9.04-.15-18.09-.33-27.13-.02-.96-1.52-.97-1.5,0h0Z"/>
  <path d="M53.42,296.14c9.62.02,19.23-.21,28.85-.19.97,0,.97-1.5,0-1.5-9.62-.02-19.23.21-28.85.19-.97,0-.97,1.5,0,1.5h0Z"/>
  <path d="M82.26,295.95c10.56.28,21.13.55,31.69.83.97.03.96-1.47,0-1.5-10.56-.28-21.13-.55-31.69-.83-.97-.03-.96,1.47,0,1.5h0Z"/>
  <path d="M113.95,296.77c8.87-.31,17.74-.49,26.62-.68.96-.02.97-1.52,0-1.5-8.87.19-17.75.38-26.62.68-.96.03-.97,1.53,0,1.5h0Z"/>
  <path d="M140.57,296.09c9.91.29,19.82.19,29.74.24.97,0,.97-1.5,0-1.5-9.91-.04-19.83.06-29.74-.24-.97-.03-.96,1.47,0,1.5h0Z"/>
  <path d="M170.3,296.33c18.39.73,36.78.81,55.18,1.04.97.01.97-1.49,0-1.5-18.4-.23-36.79-.31-55.18-1.04-.97-.04-.96,1.46,0,1.5h0Z"/>
  <path d="M225.49,297.37c10.03-.68,20.08-.86,30.13-.56.97.03.96-1.47,0-1.5-10.05-.31-20.1-.12-30.13.56-.96.06-.97,1.57,0,1.5h0Z"/>
  <path d="M255.61,296.81c7.12.22,14.24-.08,21.36-.06,1.63,0,3.32.19,4.94.07s3.16-.56,4.74-.74c3.19-.35,6.41-.48,9.61-.36.97.04.96-1.46,0-1.5-3.21-.12-6.42.01-9.61.36-1.44.16-2.85.41-4.28.63-1.75.27-3.63.05-5.4.04-7.12-.03-14.24.28-21.36.06-.97-.03-.96,1.47,0,1.5h0Z"/>
  <path d="M52.95,281.66c-.46,4.55-.71,9.17-.28,13.73.09.95,1.59.96,1.5,0-.43-4.56-.18-9.18.28-13.73.1-.96-1.4-.95-1.5,0h0Z"/>
  <path d="M53.7,282.41c8.57-.23,17.15-.26,25.7.53.96.09.95-1.41,0-1.5-8.54-.79-17.13-.76-25.7-.53-.96.03-.97,1.53,0,1.5h0Z"/>
  <path d="M79.39,282.94c9.57.05,19.13.27,28.7.31.97,0,.97-1.5,0-1.5-9.57-.05-19.13-.27-28.7-.31-.97,0-.97,1.5,0,1.5h0Z"/>
  <path d="M108.09,283.25c10.43.34,20.87.17,31.3.03.96-.01.97-1.51,0-1.5-10.43.13-20.87.31-31.3-.03-.97-.03-.96,1.47,0,1.5h0Z"/>
  <path d="M139.39,283.28c8.22.16,16.44.25,24.66.4.97.02.97-1.48,0-1.5-8.22-.16-16.44-.25-24.66-.4-.97-.02-.97,1.48,0,1.5h0Z"/>
  <path d="M164.05,283.69c4.42-.18,8.84-.17,13.26-.1,2.13.04,4.26.08,6.39.13,1.89.04,3.77.2,5.58-.43.91-.31.52-1.76-.4-1.45-1.83.63-3.77.41-5.68.37-2.13-.04-4.26-.09-6.39-.12-4.26-.07-8.52-.07-12.77.11-.96.04-.97,1.54,0,1.5h0Z"/>
  <path d="M189.09,283.31c9.13.12,18.26.07,27.39.19.97.01.97-1.49,0-1.5-9.13-.12-18.26-.07-27.39-.19-.97-.01-.97,1.49,0,1.5h0Z"/>
  <path d="M216.48,283.5c8.87-.23,17.74-.63,26.61-.12.96.06.96-1.44,0-1.5-8.87-.51-17.74-.11-26.61.12-.96.02-.97,1.52,0,1.5h0Z"/>
  <path d="M243.08,283.38c10.43.21,20.88-.13,31.3.46.96.05.96-1.45,0-1.5-10.42-.59-20.87-.25-31.3-.46-.97-.02-.97,1.48,0,1.5h0Z"/>
  <path d="M274.38,283.84c6.78.23,13.57.32,20.36.26.96,0,.97-1.51,0-1.5-6.79.06-13.57-.03-20.36-.26-.97-.03-.96,1.47,0,1.5h0Z"/>
  <path d="M294.02,283.56c1.04,3.68,1.7,7.58,1.5,11.41-.05.96,1.45.96,1.5,0,.21-3.95-.47-8.02-1.55-11.81-.26-.93-1.71-.53-1.45.4h0Z"/>
  <path d="M71.51,253.66c-5.8,1.24-10.99,5.79-13.32,11.2-2.17,5.02-1.62,11.16-1.26,16.48.06.96,1.56.97,1.5,0-.33-4.9-.87-10.52.86-15.22,1.96-5.33,7.08-9.83,12.63-11.02.94-.2.54-1.65-.4-1.45h0Z"/>
  <path d="M138.77,245.13c-7.22-.29-14.34,1.16-21.48,2.03-.24.03-.76-.02-.96.09-.37.21.58.1.12.07-.61-.05-1.2-.07-1.85-.03-2.76.14-5.51.37-8.26.65s-5.25.6-7.86.97c-2.82.39-5.65.62-8.46,1-6.19.84-12.12,2.94-18.32,3.73-.94.12-.96,1.62,0,1.5,5.42-.69,10.63-2.34,15.99-3.34,2.76-.52,5.56-.63,8.33-1.04s5.79-.81,8.69-1.14,5.61-.57,8.43-.74c.63-.04,1.31,0,1.94-.11.81-.14.24-.17.63-.12.31.03.54.12.87.1,2.81-.14,5.64-.8,8.42-1.17,4.55-.6,9.16-1.12,13.75-.94.97.04.96-1.46,0-1.5h0Z"/>
  <path d="M138.77,246.63c18.84-1.32,37.73-.76,56.57.08,5.35.24,10.69.5,16.03.75.97.04.96-1.46,0-1.5-18.85-.87-37.71-1.93-56.59-1.54-5.34.11-10.68.34-16.02.71-.96.07-.96,1.57,0,1.5h0Z"/>
  <path d="M252.47,252.34c7.86.47,15.71,1.93,23.34,3.86,1.81.46,3.62.95,5.41,1.49,1.9.58,3.4,1.37,4.89,2.71,2.81,2.53,4.74,5.97,5.34,9.71.69,4.29.29,8.79.39,13.12.02.96,1.52.97,1.5,0-.1-4.05.15-8.15-.27-12.18-.4-3.81-1.93-7.38-4.47-10.26-1.25-1.42-2.76-2.71-4.43-3.64-1.56-.87-3.58-1.22-5.29-1.69-4.15-1.14-8.36-2.08-12.6-2.86-4.57-.83-9.18-1.48-13.81-1.76-.96-.06-.96,1.44,0,1.5h0Z"/>
  <path d="M211.38,247.46c13.75.38,27.42,2.03,40.89,4.86.94.2,1.34-1.25.4-1.45-13.59-2.85-27.4-4.53-41.29-4.91-.97-.03-.96,1.47,0,1.5h0Z"/>
  <path d="M294.06,295.04c.27,8.45.39,16.92.08,25.38-.04.97,1.46.96,1.5,0,.31-8.45.19-16.92-.08-25.38-.03-.96-1.53-.97-1.5,0h0Z"/>
  <path d="M294.14,320.41c.02,12.78.36,25.56.81,38.34.03.96,1.53.97,1.5,0-.45-12.77-.8-25.55-.81-38.34,0-.97-1.5-.97-1.5,0h0Z"/>
  <path d="M294.95,358.75c0,10.17-.01,20.35-.01,30.52,0,.97,1.5.97,1.5,0,0-10.17.01-20.35.01-30.52,0-.97-1.5-.97-1.5,0h0Z"/>
  <path d="M294.94,389.27c-.38,7.82-.51,15.65-.4,23.48.01.96,1.51.97,1.5,0-.11-7.83.02-15.66.4-23.48.05-.96-1.45-.96-1.5,0h0Z"/>
  <path d="M294.55,412.75c0,7.39.34,14.78.34,22.17,0,.97,1.5.97,1.5,0,0-7.39-.34-14.78-.34-22.17,0-.97-1.5-.97-1.5,0h0Z"/>
  <path d="M294.89,434.93c-.46,6.52-.14,13.04-.02,19.57.02.96,1.52.97,1.5,0-.12-6.52-.44-13.05.02-19.57.07-.96-1.43-.96-1.5,0h0Z"/>
  <path d="M294.87,454.49c.12,10.69.38,21.39.07,32.08-.03.97,1.47.96,1.5,0,.31-10.69.06-21.39-.07-32.08-.01-.96-1.51-.97-1.5,0h0Z"/>
  <path d="M294.94,486.58c-.08,12.26.38,24.52.3,36.79,0,.97,1.49.97,1.5,0,.08-12.26-.38-24.52-.3-36.79,0-.97-1.49-.97-1.5,0h0Z"/>
  <path d="M295.24,523.36c.11,8.26.42,16.52.53,24.78.01.96,1.51.97,1.5,0-.11-8.26-.42-16.52-.53-24.78-.01-.96-1.51-.97-1.5,0h0Z"/>
  <path d="M295.77,548.14c.07,9.22.3,18.44.07,27.65-.02.97,1.48.97,1.5,0,.24-9.22,0-18.44-.07-27.65,0-.96-1.51-.97-1.5,0h0Z"/>
  <path d="M295.84,575.8c-.49,7.99-.21,16.01.19,24,.05.96,1.55.97,1.5,0-.4-7.99-.68-16.01-.19-24,.06-.96-1.44-.96-1.5,0h0Z"/>
  <path d="M296.02,599.8c-.1,7.83.14,15.65.04,23.48-.01.97,1.49.97,1.5,0,.1-7.83-.14-15.65-.04-23.48.01-.97-1.49-.97-1.5,0h0Z"/>
  <path d="M296.06,623.28l.49,27.39c.02.96,1.52.97,1.5,0l-.49-27.39c-.02-.96-1.52-.97-1.5,0h0Z"/>
  <path d="M296.55,650.67c.09,9.13.31,18.26.4,27.39,0,.96,1.51.97,1.5,0-.09-9.13-.31-18.26-.4-27.39,0-.96-1.51-.97-1.5,0h0Z"/>
  <path d="M296.95,678.06c.08,8.26.4,16.52.02,24.78-.04.97,1.46.96,1.5,0,.38-8.26.06-16.52-.02-24.78,0-.96-1.51-.97-1.5,0h0Z"/>
  <path d="M296.98,702.84c.02,8.17.05,16.35.07,24.52,0,.97,1.5.97,1.5,0-.02-8.17-.05-16.35-.07-24.52,0-.97-1.5-.97-1.5,0h0Z"/>
  <path d="M297.05,727.36c.06,9.48.23,18.96.29,28.44,0,.96,1.51.97,1.5,0-.06-9.48-.23-18.96-.29-28.44,0-.96-1.51-.97-1.5,0h0Z"/>
  <path d="M297.37,756c.28,1.73.09,3.5,0,5.24-.1,1.95-.04,3.91-.04,5.87,0,4.06.01,8.12.02,12.19,0,.97,1.5.97,1.5,0,0-4.22-.01-8.43-.02-12.65,0-1.93-.04-3.87.06-5.8.1-1.76.21-3.5-.07-5.25-.15-.95-1.6-.55-1.45.4h0Z"/>
  <path d="M297.35,779.29c.07,9.3.54,18.6.3,27.9-.03.97,1.47.96,1.5,0,.25-9.3-.23-18.6-.3-27.9,0-.96-1.51-.97-1.5,0h0Z"/>
  <path d="M297.64,807.19c0,7.39,0,14.78,0,22.17,0,.97,1.5.97,1.5,0,0-7.39,0-14.78,0-22.17,0-.97-1.5-.97-1.5,0h0Z"/>
  <path d="M297.64,829.36c.4,9.82.57,19.65.38,29.48-.02.97,1.48.97,1.5,0,.2-9.83.03-19.66-.38-29.48-.04-.96-1.54-.97-1.5,0h0Z"/>
  <path d="M298.02,858.84c.03,7.91.25,15.83.28,23.74,0,.96,1.5.97,1.5,0-.03-7.91-.25-15.83-.28-23.74,0-.96-1.5-.97-1.5,0h0Z"/>
  <path d="M298.97,944.21c-.01,4.76-.1,9.53-.28,14.28-.04.97,1.46.96,1.5,0,.19-4.76.27-9.52.28-14.28,0-.97-1.5-.97-1.5,0h0Z"/>
  <path d="M298.69,958.49c.18,7.66,0,15.31-.6,22.95-.07.96,1.43.96,1.5,0,.59-7.64.77-15.29.6-22.95-.02-.96-1.52-.97-1.5,0h0Z"/>
  <path d="M298.09,981.44c-.11,10.61.31,21.22.2,31.83-.01.97,1.49.97,1.5,0,.11-10.61-.31-21.22-.2-31.83.01-.97-1.49-.97-1.5,0h0Z"/>
  <path d="M52.99,266.55c.67,2.06,1.33,4.16,2.28,6.12.4.83.97,1.92,2.01,1.99.4.03.75-.36.75-.75,0-.43-.34-.72-.75-.75.06,0,.2.05.03,0,.27.09.08.04,0-.02-.08-.07.15.16.04.03-.02-.02-.05-.04-.07-.07-.06-.06-.11-.13-.17-.19.16.19-.04-.07-.08-.13-.06-.1-.12-.2-.18-.3-.14-.24-.26-.49-.38-.75-.8-1.7-1.44-3.7-2.04-5.57-.3-.91-1.75-.52-1.45.4h0Z"/>
  <path d="M65.01,247.03c-3.48,1.69-6.48,4.25-8.8,7.34-1.2,1.6-2.34,3.4-2.93,5.33-.65,2.15-.29,4.44-.31,6.65-.01.97,1.49.97,1.5,0,.02-2.01-.34-4.12.21-6.09.52-1.86,1.67-3.61,2.83-5.14,2.18-2.88,5.02-5.22,8.26-6.8.87-.42.11-1.72-.76-1.3h0Z"/>
  <path d="M65.59,248.4c6.34-1.53,12.63-3.3,19.08-4.34.95-.15.55-1.6-.4-1.45-6.45,1.05-12.74,2.81-19.08,4.34-.94.23-.54,1.67.4,1.45h0Z"/>
  <path d="M84.47,244.09c7.06-.77,14.06-2,21.11-2.77.95-.1.96-1.6,0-1.5-7.06.77-14.06,2-21.11,2.77-.95.1-.96,1.6,0,1.5h0Z"/>
  <path d="M105.58,241.32c9.79-.6,19.5-1.5,29.24-2.63.95-.11.96-1.61,0-1.5-9.74,1.13-19.46,2.03-29.24,2.63-.96.06-.97,1.56,0,1.5h0Z"/>
  <path d="M134.82,238.68c6.61-.41,13.22-.66,19.83-.11.96.08.96-1.42,0-1.5-6.61-.55-13.22-.3-19.83.11-.96.06-.97,1.56,0,1.5h0Z"/>
  <path d="M154.65,238.57c5.92.04,11.83-.03,17.74-.21.96-.03.97-1.53,0-1.5-5.91.18-11.83.25-17.74.21-.97,0-.97,1.49,0,1.5h0Z"/>
  <path d="M172.4,238.36c5.04,0,10.08,0,15.12.19.97.03.96-1.47,0-1.5-5.04-.18-10.08-.18-15.12-.19-.97,0-.97,1.5,0,1.5h0Z"/>
  <path d="M187.52,238.55c8.87.26,17.74.3,26.61.56.97.03.96-1.47,0-1.5-8.87-.26-17.74-.3-26.61-.56-.97-.03-.96,1.47,0,1.5h0Z"/>
  <path d="M213.93,239.08c3.09.44,6.18.81,9.28,1.2,2.78.35,5.53.79,8.32.92.97.04.96-1.46,0-1.5-2.68-.12-5.32-.54-7.99-.88-3.07-.39-6.15-.75-9.21-1.19-.94-.13-1.35,1.31-.4,1.45h0Z"/>
  <path d="M231.53,241.19c7.04.39,14.07,1.03,21.02,2.19.94.16,1.35-1.29.4-1.45-7.09-1.18-14.25-1.85-21.42-2.25-.96-.05-.96,1.45,0,1.5h0Z"/>
  <path d="M252.75,243.42c8.12,1.03,16.11,2.72,24.03,4.74.94.24,1.34-1.21.4-1.45-8.06-2.05-16.18-3.74-24.43-4.79-.96-.12-.95,1.38,0,1.5h0Z"/>
  <path d="M276.98,248.18c3.35.42,6.6,1.36,9.67,2.77,1.33.61,3.1,1.25,4.1,2.33.89.95,1.56,2.16,2.09,3.33,2.2,4.86,2.26,11.05-.04,15.88-.41.87.88,1.63,1.3.76,2.55-5.35,2.49-12.02.04-17.4-.6-1.31-1.37-2.55-2.32-3.64-1.07-1.22-2.95-1.89-4.41-2.56-3.33-1.53-6.8-2.52-10.43-2.98-.96-.12-.95,1.38,0,1.5h0Z"/>
  <path d="M295.55,266.57c8.22,1.12,16.12,5.67,20.77,12.61.53.8,1.83.05,1.3-.76-4.86-7.25-13.05-12.12-21.66-13.3-.94-.13-1.35,1.32-.4,1.45h0Z"/>
  <path d="M316.32,279.18c5.17,8.94,5.65,19.41,5.47,29.48-.02.97,1.48.97,1.5,0,.19-10.34-.37-21.07-5.67-30.24-.48-.84-1.78-.08-1.3.76h0Z"/>
  <path d="M321.79,308.67c.02,7.66.45,15.3.47,22.96,0,.97,1.5.97,1.5,0-.02-7.66-.45-15.3-.47-22.96,0-.97-1.5-.97-1.5,0h0Z"/>
  <path d="M322.26,331.63c-.15,5.65-.1,11.31.15,16.95.04.96,1.54.97,1.5,0-.24-5.65-.29-11.3-.15-16.95.02-.97-1.48-.97-1.5,0h0Z"/>
  <path d="M322.41,348.58c.44,6.6.71,13.21.5,19.82-.03.97,1.47.96,1.5,0,.2-6.61-.07-13.23-.5-19.82-.06-.96-1.56-.97-1.5,0h0Z"/>
  <path d="M322.91,368.4c.19,9.7.78,19.39.97,29.09.02.96,1.52.97,1.5,0-.19-9.7-.78-19.39-.97-29.09-.02-.96-1.52-.97-1.5,0h0Z"/>
  <path d="M323.88,397.5c.04,9,.24,18,.27,26.99,0,.96,1.5.97,1.5,0-.04-9-.24-18-.27-26.99,0-.96-1.5-.97-1.5,0h0Z"/>
  <path d="M324.15,424.49c.08,7.48.31,14.96.39,22.44.01.96,1.51.97,1.5,0-.08-7.48-.31-14.96-.39-22.44-.01-.96-1.51-.97-1.5,0h0Z"/>
  <path d="M324.54,446.93c.06,8.35.11,16.69.17,25.04,0,.96,1.51.97,1.5,0-.06-8.35-.11-16.69-.17-25.04,0-.96-1.51-.97-1.5,0h0Z"/>
  <path d="M324.71,471.97c-.05,9.3.2,18.61.15,27.91,0,.97,1.5.97,1.5,0,.05-9.3-.2-18.61-.15-27.91,0-.97-1.5-.97-1.5,0h0Z"/>
  <path d="M324.85,499.88c-.4,16.22.06,32.45.65,48.66.03.96,1.54.97,1.5,0-.59-16.21-1.05-32.44-.65-48.66.02-.97-1.48-.97-1.5,0h0Z"/>
  <path d="M325.5,548.54c.19,14.48.27,28.95.46,43.43.01.96,1.51.97,1.5,0-.19-14.48-.27-28.95-.46-43.43-.01-.96-1.51-.97-1.5,0h0Z"/>
  <path d="M325.96,591.97c-.18,12.91-.11,25.83-.29,38.74-.01.97,1.49.97,1.5,0,.18-12.91.11-25.83.29-38.74.01-.97-1.49-.97-1.5,0h0Z"/>
  <path d="M325.67,630.71c.09,11.83.24,23.66.33,35.5,0,.96,1.51.97,1.5,0-.09-11.83-.24-23.66-.33-35.5,0-.96-1.51-.97-1.5,0h0Z"/>
  <path d="M331.7,809.83c-.04,14.25.06,28.5.02,42.75,0,.97,1.5.97,1.5,0,.04-14.25-.06-28.5-.02-42.75,0-.97-1.5-.97-1.5,0h0Z"/>
  <path d="M331.73,852.58c-.05,10.7.15,21.39.1,32.09,0,.97,1.5.97,1.5,0,.05-10.7-.15-21.39-.1-32.09,0-.97-1.5-.97-1.5,0h0Z"/>
  <path d="M331.82,884.67c-.24,8.08-.04,16.17-.12,24.26,0,.97,1.49.97,1.5,0,.08-8.09-.12-16.17.12-24.26.03-.97-1.47-.96-1.5,0h0Z"/>
  <path d="M331.7,908.92c.35,11.09.73,22.18.41,33.27-.03.97,1.47.96,1.5,0,.32-11.1-.06-22.18-.41-33.27-.03-.96-1.53-.97-1.5,0h0Z"/>
  <path d="M332.11,942.2c.38,10.43.55,20.86.5,31.3,0,.97,1.5.97,1.5,0,.05-10.43-.12-20.87-.5-31.3-.04-.96-1.54-.97-1.5,0h0Z"/>
  <path d="M332.62,973.49c0,4.39-.03,8.77-.03,13.16,0,.97,1.5.97,1.5,0,0-4.39.03-8.77.03-13.16,0-.97-1.5-.97-1.5,0h0Z"/>
  <path d="M292.74,274.77c5.23-1.34,10.23,1.82,14.46,4.58,3.83,2.49,6.74,5.77,7.99,10.23.26.93,1.71.53,1.45-.4-1.35-4.85-4.52-8.42-8.68-11.13-4.62-3.01-9.93-6.19-15.62-4.73-.93.24-.54,1.69.4,1.45h0Z"/>
  <path d="M315.2,289.58c2,8.93,2.93,18.03,2.26,27.17-.07.96,1.43.96,1.5,0,.68-9.27-.28-18.51-2.31-27.57-.21-.94-1.66-.54-1.45.4h0Z"/>
  <path d="M317.45,316.75c.07,6.78.1,13.57.17,20.35.01.96,1.51.97,1.5,0-.07-6.78-.1-13.57-.17-20.35-.01-.96-1.51-.97-1.5,0h0Z"/>
  <path d="M317.63,337.1c.04,7.04.11,14.09.27,21.13.02.96,1.52.97,1.5,0-.16-7.04-.23-14.08-.27-21.13,0-.96-1.51-.97-1.5,0h0Z"/>
  <path d="M317.89,358.23c.46,6.07.61,12.17.47,18.26-.02.97,1.48.97,1.5,0,.14-6.09,0-12.19-.47-18.26-.07-.96-1.57-.96-1.5,0h0Z"/>
  <path d="M318.36,376.49c.48,6.86.93,13.73.75,20.61-.02.97,1.48.97,1.5,0,.18-6.88-.27-13.75-.75-20.61-.07-.96-1.57-.96-1.5,0h0Z"/>
  <path d="M319.11,397.1c-.11,6.35-.23,12.7-.34,19.05-.02.97,1.48.97,1.5,0,.11-6.35.23-12.7.34-19.05.02-.97-1.48-.97-1.5,0h0Z"/>
  <path d="M318.77,416.15c.15,7.05.8,14.08.95,21.13.02.96,1.52.97,1.5,0-.15-7.05-.8-14.08-.95-21.13-.02-.96-1.52-.97-1.5,0h0Z"/>
  <path d="M319.72,437.27c.01,6.09-.12,12.17-.1,18.26,0,.97,1.5.97,1.5,0-.01-6.09.12-12.17.1-18.26,0-.97-1.5-.97-1.5,0h0Z"/>
  <path d="M319.61,455.54c.07,6.35.14,12.7.21,19.04.01.96,1.51.97,1.5,0-.07-6.35-.14-12.7-.21-19.04-.01-.96-1.51-.97-1.5,0h0Z"/>
  <path d="M319.82,474.58c.01,8.78.36,17.56.37,26.35,0,.97,1.5.97,1.5,0-.01-8.78-.36-17.56-.37-26.35,0-.97-1.5-.97-1.5,0h0Z"/>
  <path d="M317.99,522.9c.16-1.54,1.47-2.89,2.99-3.14s3.13.68,3.81,2.07c.18.36.7.46,1.03.27.37-.22.45-.66.27-1.03-.98-2.01-3.32-3.15-5.5-2.76s-3.87,2.39-4.1,4.59c-.04.4.37.75.75.75.44,0,.71-.35.75-.75h0Z"/>
  <path d="M316.49,522.9c-.29,4.49-.36,9-.35,13.5,0,.97,1.5.97,1.5,0-.01-4.5.06-9.01.35-13.5.06-.96-1.44-.96-1.5,0h0Z"/>
  <path d="M316.14,536.4c-.02,5.67.1,11.35.08,17.02,0,.97,1.5.97,1.5,0,.02-5.67-.1-11.35-.08-17.02,0-.97-1.5-.97-1.5,0h0Z"/>
  <path d="M316.22,553.43c.04,5.41.07,10.83.11,16.24,0,.96,1.51.97,1.5,0-.04-5.41-.07-10.83-.11-16.24,0-.96-1.51-.97-1.5,0h0Z"/>
  <path d="M316.33,569.67c0,5.41,0,10.83,0,16.24,0,.97,1.5.97,1.5,0,0-5.41,0-10.83,0-16.24,0-.97-1.5-.97-1.5,0h0Z"/>
  <path d="M316.32,585.9c-.05,6.27.27,12.52.4,18.79.02.96,1.52.97,1.5,0-.13-6.26-.45-12.52-.4-18.79,0-.97-1.49-.97-1.5,0h0Z"/>
  <path d="M316.84,604.69c.01,3.35.02,6.69.04,10.04l.02,4.9c0,1.26-.13,2.54,0,3.79.31,3.15.17,6.4.27,9.57.1,3.37.21,6.74.2,10.12,0,.97,1.5.97,1.5,0,0-3.3-.09-6.59-.19-9.88-.05-1.59-.1-3.18-.13-4.76s.08-3.25-.08-4.84c-.27-2.83-.07-5.79-.08-8.64-.01-3.43-.02-6.86-.04-10.28,0-.97-1.5-.97-1.5,0h0Z"/>
  <path d="M317.35,643.1c-.01,7.83.43,15.65.42,23.48,0,.97,1.5.97,1.5,0,.01-7.83-.43-15.65-.42-23.48,0-.97-1.5-.97-1.5,0h0Z"/>
  <path d="M317.77,666.58c0,6.87.17,13.74.54,20.61.05.96,1.55.97,1.5,0-.37-6.86-.55-13.73-.54-20.61,0-.97-1.5-.97-1.5,0h0Z"/>
  <path d="M318.31,687.19c.03,8.44.08,16.87.1,25.31,0,.97,1.5.97,1.5,0-.03-8.44-.08-16.87-.1-25.31,0-.97-1.5-.97-1.5,0h0Z"/>
  <path d="M318.41,712.49c.1,8.35.36,16.69.46,25.04.01.96,1.51.97,1.5,0-.1-8.35-.36-16.69-.46-25.04-.01-.96-1.51-.97-1.5,0h0Z"/>
  <path d="M318.88,737.54c.02,5.74.08,11.48.11,17.22,0,.96,1.5.97,1.5,0-.02-5.74-.08-11.48-.11-17.22,0-.96-1.5-.97-1.5,0h0Z"/>
  <path d="M318.98,754.75c.1,2.52.19,5.05.29,7.57.04.96,1.54.97,1.5,0-.1-2.52-.19-5.05-.29-7.57-.04-.96-1.54-.97-1.5,0h0Z"/>
  <path d="M319.3,762.52c.51,2.19,2.66,3.96,4.94,3.87s4.25-2.26,4.76-4.41c.22-.94-1.22-1.34-1.45-.4-.35,1.48-1.67,3.22-3.31,3.31s-3.13-1.21-3.49-2.77c-.22-.94-1.67-.54-1.45.4h0Z"/>
  <path d="M325.99,666.2c.11,4.65.34,9.29.45,13.94.02.96,1.52.97,1.5,0-.11-4.65-.34-9.29-.45-13.94-.02-.96-1.52-.97-1.5,0h0Z"/>
  <path d="M326.44,680.15c.52,5.71.93,11.48.64,17.22-.05.96,1.45.96,1.5,0,.29-5.74-.12-11.51-.64-17.22-.09-.95-1.59-.96-1.5,0h0Z"/>
  <path d="M327.08,697.37c-.1,5.13-.27,10.26-.1,15.39.03.96,1.53.97,1.5,0-.18-5.13,0-10.26.1-15.39.02-.97-1.48-.97-1.5,0h0Z"/>
  <path d="M326.99,712.76c.17,5.56.2,11.13.07,16.69-.02.97,1.48.97,1.5,0,.13-5.56.1-11.13-.07-16.69-.03-.96-1.53-.97-1.5,0h0Z"/>
  <path d="M327.06,729.45c.13,5.57.27,11.13.4,16.7.02.96,1.52.97,1.5,0-.13-5.57-.27-11.13-.4-16.7-.02-.96-1.52-.97-1.5,0h0Z"/>
  <path d="M327.46,746.14c.49,5.2.52,10.44.07,15.64-.08.96,1.42.96,1.5,0,.45-5.2.42-10.45-.07-15.64-.09-.95-1.59-.96-1.5,0h0Z"/>
  <path d="M320.19,500.93c-.03,5.81-.15,11.62-.18,17.43,0,.97,1.49.97,1.5,0,.03-5.81.15-11.62.18-17.43,0-.97-1.49-.97-1.5,0h0Z"/>
  <path d="M325.77,831.07c.29,3.44.46,6.84.42,10.3-.01.97,1.49.97,1.5,0,.04-3.45-.13-6.86-.42-10.3-.08-.95-1.58-.96-1.5,0h0Z"/>
  <path d="M326.19,841.36c.07,7.13.08,14.26.15,21.39,0,.96,1.51.97,1.5,0-.07-7.13-.08-14.26-.15-21.39,0-.96-1.51-.97-1.5,0h0Z"/>
  <path d="M326.34,862.75c0,5.22-.17,10.43-.17,15.65,0,.97,1.5.97,1.5,0,0-5.22.17-10.43.17-15.65,0-.97-1.5-.97-1.5,0h0Z"/>
  <path d="M326.17,878.4c.16,4.78.19,9.56.35,14.35.03.96,1.53.97,1.5,0-.16-4.78-.19-9.56-.35-14.35-.03-.96-1.53-.97-1.5,0h0Z"/>
  <path d="M326.52,892.75c-.38,5.56-.45,11.13-.29,16.7.03.96,1.53.97,1.5,0-.17-5.57-.09-11.14.29-16.7.07-.96-1.43-.96-1.5,0h0Z"/>
  <path d="M326.24,909.45c.03,6.7-.06,13.4-.03,20.09,0,.96,1.5.97,1.5,0-.03-6.7.06-13.4.03-20.09,0-.96-1.5-.97-1.5,0h0Z"/>
  <path d="M326.2,929.54c.28,5.73.43,11.47.46,17.21,0,.97,1.5.97,1.5,0-.02-5.74-.17-11.48-.46-17.21-.05-.96-1.55-.97-1.5,0h0Z"/>
  <path d="M326.66,946.75c-.06,5.3.14,10.61.08,15.91-.01.97,1.49.97,1.5,0,.06-5.3-.14-10.61-.08-15.91.01-.97-1.49-.97-1.5,0h0Z"/>
  <path d="M326.74,962.66c.18,5.39.38,10.79.27,16.19-.02.97,1.48.97,1.5,0,.11-5.4-.1-10.79-.27-16.19-.03-.96-1.53-.97-1.5,0h0Z"/>
  <path d="M54.76,271.47c-4.55-.15-8.89,1.15-12.6,3.76-1.99,1.4-3.81,3.02-5.59,4.68-1.6,1.49-3.02,2.94-3.83,5.01-.35.9,1.1,1.29,1.45.4.74-1.92,2.25-3.24,3.72-4.61,1.69-1.57,3.42-3.11,5.33-4.41,3.42-2.35,7.37-3.48,11.53-3.34.97.03.96-1.47,0-1.5h0Z"/>
  <path d="M33.09,328.62c.06-7.51-.02-15.03-.14-22.54-.06-3.44-.02-6.87-.05-10.31s-.02-7.1,1.29-10.44c.35-.9-1.1-1.29-1.45-.4-1.24,3.17-1.37,6.59-1.35,9.96.02,3.58-.01,7.15.05,10.72.13,7.67.21,15.34.15,23.01,0,.97,1.49.97,1.5,0h0Z"/>
  <path d="M31.59,328.62c-.02,5.93-.09,11.87-.11,17.8,0,.97,1.5.97,1.5,0,.02-5.93.09-11.87.11-17.8,0-.97-1.5-.97-1.5,0h0Z"/>
  <path d="M31.47,346.43c-.45,6.14-.43,12.31-.03,18.46.06.96,1.56.97,1.5,0-.41-6.14-.42-12.32.03-18.46.07-.96-1.43-.96-1.5,0h0Z"/>
  <path d="M31.45,364.88c-.01,4.44-.1,8.87-.12,13.31,0,.97,1.5.97,1.5,0,.01-4.44.1-8.87.12-13.31,0-.97-1.5-.97-1.5,0h0Z"/>
  <path d="M31.33,378.19l.57,16.43c.03.96,1.53.97,1.5,0l-.57-16.43c-.03-.96-1.53-.97-1.5,0h0Z"/>
  <path d="M31.9,394.62c-.18,4.17-.18,8.35-.25,12.52-.02.97,1.48.97,1.5,0,.07-4.17.07-8.35.25-12.52.04-.97-1.46-.96-1.5,0h0Z"/>
  <path d="M31.65,407.14c-.36,5.65-.27,11.31-.04,16.96.04.96,1.54.97,1.5,0-.24-5.65-.32-11.31.04-16.96.06-.96-1.44-.96-1.5,0h0Z"/>
  <path d="M31.61,424.1c.25,5.91.41,11.82.18,17.73-.04.97,1.46.96,1.5,0,.23-5.91.07-11.82-.18-17.73-.04-.96-1.54-.97-1.5,0h0Z"/>
  <path d="M31.8,441.83c-.02,7.31-.07,14.62-.43,21.92-.05.96,1.45.96,1.5,0,.36-7.3.41-14.61.43-21.92,0-.97-1.5-.97-1.5,0h0Z"/>
  <path d="M31.37,463.75c.07,5.22.13,10.44.2,15.66.01.96,1.51.97,1.5,0-.07-5.22-.13-10.44-.2-15.66-.01-.96-1.51-.97-1.5,0h0Z"/>
  <path d="M31.57,479.41c-.56,4.77-.58,9.56-.38,14.35.04.96,1.54.97,1.5,0-.19-4.79-.17-9.58.38-14.35.11-.96-1.39-.95-1.5,0h0Z"/>
  <path d="M31.19,493.75c-.02,6.52.16,13.04-.11,19.56-.04.97,1.46.96,1.5,0,.27-6.52.09-13.04.11-19.56,0-.97-1.5-.97-1.5,0h0Z"/>
  <path d="M31.06,513.58c.12,5.91.14,11.83.07,17.74-.01.97,1.49.97,1.5,0,.07-5.91.05-11.83-.07-17.74-.02-.96-1.52-.97-1.5,0h0Z"/>
  <path d="M31.13,531.32c0,3.4.14,6.8.12,10.2-.02,3.82-.03,7.64-.05,11.46,0,.97,1.5.97,1.5,0,.02-3.82.03-7.64.05-11.46.01-3.4-.12-6.8-.12-10.2,0-.97-1.5-.97-1.5,0h0Z"/>
  <path d="M31.21,552.97c0,5.13.03,10.26.04,15.39,0,.97,1.5.97,1.5,0,0-5.13-.03-10.26-.04-15.39,0-.97-1.5-.97-1.5,0h0Z"/>
  <path d="M31.24,568.36c0,5.57.18,11.13.18,16.7,0,.97,1.5.97,1.5,0,0-5.57-.18-11.13-.18-16.7,0-.97-1.5-.97-1.5,0h0Z"/>
  <path d="M31.43,585.06c0,5.13-.07,10.26-.07,15.39,0,.97,1.5.97,1.5,0,0-5.13.07-10.26.07-15.39,0-.97-1.5-.97-1.5,0h0Z"/>
  <path d="M31.36,600.45c.12,4.44.27,8.87.39,13.31.03.96,1.53.97,1.5,0-.12-4.44-.27-8.87-.39-13.31-.03-.96-1.53-.97-1.5,0h0Z"/>
  <path d="M31.75,613.76c-.18,4.08-.2,8.17-.1,12.26.02.96,1.52.97,1.5,0-.11-4.09-.08-8.17.1-12.26.04-.97-1.46-.96-1.5,0h0Z"/>
  <path d="M31.65,626.01c.15,4.61.15,9.22.02,13.83-.03.97,1.47.96,1.5,0,.14-4.61.13-9.22-.02-13.83-.03-.96-1.53-.97-1.5,0h0Z"/>
  <path d="M31.67,639.84c.1,4.26.15,8.52.25,12.78.02.96,1.52.97,1.5,0-.1-4.26-.15-8.52-.25-12.78-.02-.96-1.52-.97-1.5,0h0Z"/>
  <path d="M31.92,652.62c-.18,4.61-.2,9.22.06,13.83.05.96,1.55.97,1.5,0-.26-4.6-.24-9.22-.06-13.83.04-.97-1.46-.96-1.5,0h0Z"/>
  <path d="M31.98,666.45c-.16,4.44,0,8.87.31,13.3.07.96,1.57.97,1.5,0-.3-4.43-.47-8.86-.31-13.3.03-.97-1.47-.96-1.5,0h0Z"/>
  <path d="M32.29,679.75c-.13,4.61-.17,9.22-.08,13.83.02.96,1.52.97,1.5,0-.09-4.61-.05-9.22.08-13.83.03-.97-1.47-.96-1.5,0h0Z"/>
  <path d="M32.21,693.58c0,4.52-.22,9.04-.22,13.57,0,.97,1.5.97,1.5,0,0-4.52.22-9.04.22-13.57,0-.97-1.5-.97-1.5,0h0Z"/>
  <path d="M31.98,707.15c.04,5.83.18,11.65.22,17.48,0,.96,1.51.97,1.5,0-.04-5.83-.18-11.65-.22-17.48,0-.96-1.51-.97-1.5,0h0Z"/>
  <path d="M32.21,724.62c0,5.13.07,10.26.07,15.39,0,.97,1.5.97,1.5,0,0-5.13-.07-10.26-.07-15.39,0-.97-1.5-.97-1.5,0h0Z"/>
  <path d="M32.28,740.02c-.13,4.43-.12,8.87.04,13.3.03.96,1.53.97,1.5,0-.16-4.43-.17-8.87-.04-13.3.03-.97-1.47-.96-1.5,0h0Z"/>
  <path d="M32.32,753.32c.02,4.95.11,9.91.13,14.86,0,.96,1.5.97,1.5,0-.02-4.95-.11-9.91-.13-14.86,0-.96-1.5-.97-1.5,0h0Z"/>
  <path d="M32.45,768.18c.09,4.08.04,8.17.13,12.26.02.96,1.52.97,1.5,0-.08-4.08-.04-8.17-.13-12.26-.02-.96-1.52-.97-1.5,0h0Z"/>
  <path d="M32.58,780.44c-.24,3.47-.4,6.97-.11,10.45.08.96,1.58.96,1.5,0-.29-3.48-.13-6.97.11-10.45.07-.96-1.43-.96-1.5,0h0Z"/>
  <path d="M32.47,790.88v11.48c0,.97,1.5.97,1.5,0v-11.48c0-.97-1.5-.97-1.5,0h0Z"/>
  <path d="M32.47,802.36c-.23,3.74.14,7.48.28,11.22.04.96,1.54.97,1.5,0-.15-3.73-.52-7.48-.28-11.22.06-.96-1.44-.96-1.5,0h0Z"/>
  <path d="M32.75,813.58c-.08,3.74.29,7.48.59,11.21.08.96,1.58.96,1.5,0-.3-3.73-.67-7.47-.59-11.21.02-.97-1.48-.97-1.5,0h0Z"/>
  <path d="M33.34,824.79c.12,5.22.07,10.44.19,15.66.02.96,1.52.97,1.5,0-.12-5.22-.07-10.44-.19-15.66-.02-.96-1.52-.97-1.5,0h0Z"/>
  <path d="M33.54,840.45c.09,4.61.09,9.22.18,13.83.02.96,1.52.97,1.5,0-.09-4.61-.09-9.22-.18-13.83-.02-.96-1.52-.97-1.5,0h0Z"/>
  <path d="M33.71,854.27c.02,3.91.03,7.83.05,11.74,0,.96,1.5.97,1.5,0-.02-3.91-.03-7.83-.05-11.74,0-.96-1.5-.97-1.5,0h0Z"/>
  <path d="M33.8,866.54c-.41,4.08-.45,8.18-.12,12.27.08.96,1.58.96,1.5,0-.33-4.09-.29-8.19.12-12.27.1-.96-1.41-.95-1.5,0h0Z"/>
  <path d="M33.68,878.8c-.1,2.95-.14,5.91-.24,8.86-.03.97,1.47.96,1.5,0,.1-2.95.14-5.91.24-8.86.03-.97-1.47-.96-1.5,0h0Z"/>
  <path d="M33.44,887.67c-.02,6.35-.17,12.7-.42,19.04-.04.97,1.46.96,1.5,0,.25-6.34.4-12.69.42-19.04,0-.97-1.5-.97-1.5,0h0Z"/>
  <path d="M33.01,906.71c0,8,.28,16,.28,24,0,.97,1.5.97,1.5,0,0-8-.28-16-.28-24,0-.97-1.5-.97-1.5,0h0Z"/>
  <path d="M33.29,930.71c.11,6.7.2,13.39.31,20.09.02.96,1.52.97,1.5,0-.11-6.7-.2-13.39-.31-20.09-.02-.96-1.52-.97-1.5,0h0Z"/>
  <path d="M33.6,950.8c-.13,7.65-.24,15.3.13,22.95.05.96,1.55.97,1.5,0-.37-7.65-.27-15.3-.13-22.95.02-.97-1.48-.97-1.5,0h0Z"/>
  <path d="M33.73,973.75c-.12,6.44-.26,12.87-.38,19.31-.02.97,1.48.97,1.5,0,.12-6.44.26-12.87.38-19.31.02-.97-1.48-.97-1.5,0h0Z"/>
  <path d="M33.35,993.06c.13,6.41.07,12.82-.35,19.22-.06.96,1.44.96,1.5,0,.43-6.4.48-12.81.35-19.22-.02-.96-1.52-.97-1.5,0h0Z"/>
  <path d="M322.34,308.76c2.65,1.07,3.71,4.09,3.89,6.72.11,1.59,0,3.18-.07,4.77s-.09,3.1-.16,4.65c-.05.96,1.45.96,1.5,0,.09-1.82.11-3.64.2-5.46s.15-3.62-.13-5.41c-.46-2.88-2.04-5.59-4.83-6.71-.9-.36-1.28,1.09-.4,1.45h0Z"/>
  <path d="M325.99,324.9c-.12,7.83.2,15.65.08,23.48-.01.97,1.49.97,1.5,0,.12-7.83-.2-15.65-.08-23.48.01-.97-1.49-.97-1.5,0h0Z"/>
  <path d="M326.08,348.38c-.16,3.26-.09,6.53.22,9.78.04.4.32.75.75.75.38,0,.79-.34.75-.75-.31-3.25-.38-6.52-.22-9.78.05-.96-1.45-.96-1.5,0h0Z"/>
  <path d="M326.29,358.16c.24,3.78.43,7.56.52,11.35.02.96,1.52.97,1.5,0-.09-3.79-.29-7.57-.52-11.35-.06-.96-1.56-.97-1.5,0h0Z"/>
  <path d="M326.82,369.52c.4,5.99.82,11.98,1.02,17.98.03.96,1.53.97,1.5,0-.2-6-.62-11.99-1.02-17.98-.06-.96-1.57-.97-1.5,0h0Z"/>
  <path d="M324.87,396.5c1.8-.52,3.17-1.91,3.81-3.66s.7-3.59.66-5.35c-.03-.96-1.53-.97-1.5,0,.07,2.76-.17,6.63-3.36,7.56-.93.27-.53,1.72.4,1.45h0Z"/>
  <path d="M326.84,362.9c8.94,8.92,16.9,18.85,23.32,29.74.49.83,1.79.08,1.3-.76-6.49-10.99-14.54-21.03-23.56-30.04-.68-.68-1.75.38-1.06,1.06h0Z"/>
  <path d="M326.5,350.11c13.38,10.06,23.49,23.81,32.16,37.96.5.82,1.8.07,1.3-.76-8.82-14.38-19.11-28.27-32.7-38.5-.77-.58-1.52.72-.76,1.3h0Z"/>
  <path d="M350.22,392.54c-.05,1.01-.17,2.04-.15,3.05.02.83.26,1.62.94,2.14,1.55,1.21,3.46.32,4.92-.55,1.66-.98,3.2-2.14,4.67-3.37,1.3-1.09,3-2.34,3.03-4.21.02-.96-.5-1.82-1.33-2.28-.96-.53-2.05-.45-3.1-.31-.4.05-.75.31-.75.75,0,.36.35.8.75.75.81-.11,1.85-.31,2.55.24s.32,1.5-.13,2.07c-.53.68-1.27,1.23-1.92,1.79-.7.59-1.42,1.17-2.16,1.71s-1.5,1.04-2.28,1.51c-.73.44-1.55.99-2.43.99-.8,0-1.24-.46-1.26-1.24-.02-1.01.1-2.04.15-3.05s-1.45-.96-1.5,0h0Z"/>
  <path d="M359.11,386.96c-.85.16-1.55.7-2.28,1.12s-1.47.81-2.21,1.21c-1.47.79-2.92,1.61-4.18,2.71-.73.64.34,1.7,1.06,1.06,1.16-1.02,2.52-1.76,3.87-2.48.68-.36,1.36-.72,2.03-1.1s1.33-.93,2.1-1.07c.4-.07.62-.56.52-.92-.12-.42-.52-.6-.92-.52h0Z"/>
  <path d="M351.67,397.53c-.52,1.97-2.4,4.81-.07,6.42,1.96,1.36,4.71-.33,6.49-1.26,2.43-1.26,4.72-2.77,6.86-4.47,1.7-1.35,4.23-3.25,3.5-5.76-.34-1.19-1.43-2.09-2.59-2.4-1.39-.37-2.82.02-4.07.66-.86.44-.1,1.73.76,1.3,1.09-.55,2.49-.92,3.59-.2,1.19.77,1.09,2.04.28,3.06-.72.92-1.73,1.66-2.65,2.39-1,.79-2.04,1.52-3.11,2.21s-2.11,1.3-3.21,1.87-2.13,1.15-3.27,1.47-2.21.09-2.23-1.25.84-2.43,1.16-3.63c.25-.93-1.2-1.33-1.45-.4h0Z"/>
  <path d="M352.04,403.94c-.37,2.04-.35,4.1.04,6.14.08.4.55.63.92.52.42-.11.6-.52.52-.92-.34-1.75-.36-3.58-.04-5.34.07-.4-.11-.81-.52-.92-.36-.1-.85.12-.92.52h0Z"/>
  <path d="M367.65,394.91c4.99,3.03,7.95,8.45,11.07,13.19,1.73,2.64,3.49,5.26,5.19,7.92s3.19,5.32,3.73,8.39c.17.95,1.61.55,1.45-.4-.53-3.04-2.02-5.79-3.65-8.38-1.84-2.93-3.79-5.81-5.69-8.7-3.19-4.85-6.24-10.22-11.34-13.31-.83-.5-1.58.79-.76,1.3h0Z"/>
  <path d="M388.16,424.94c.92.36,1.89.49,2.87.59,1.1.11,2.21.22,3.32.23s2.11-.21,3.17-.25c.46-.02.92,0,1.32.25.15.09.3.2.41.35.06.08.1.16.13.25.02.16.04.16.08-.02l.45-.34-.07.03.92.52v-.04c-.33-.9-1.78-.52-1.46.4v.04c.14.35.54.68.94.52,1.16-.45.6-1.93-.08-2.58-.94-.89-2.2-.95-3.41-.8-1.39.17-2.73.21-4.13.1s-2.77-.18-4.05-.68c-.9-.35-1.29,1.1-.4,1.45h0Z"/>
  <path d="M399.56,426.13c-.49,2.23,2.68,1.34,3.85,1.39,2.14.1,1.6,3.26,1.56,4.67-.03,1.18-.06,2.37-.08,3.55-.02.78-.28,2,.52,2.51.31.19.75,0,.99.13s.23.76.23.98c.03,1.26-.07,2.53-.1,3.78-.03.97,1.47.96,1.5,0,.03-1.26.12-2.53.1-3.78-.01-.73-.15-1.56-.72-2.08-.24-.22-.59-.38-.92-.39-.38,0-.22-.07-.14.14-.09-.23.02-.7.02-.97.03-1.24.06-2.48.09-3.71.04-1.68.36-3.83-.76-5.26-1.38-1.75-3.33-.58-5.12-.99l.45.34-.03.08c.2-.94-1.24-1.34-1.45-.4h0Z"/>
  <path d="M352.09,409.52c-1.37,1.36-2.73,2.73-4.1,4.09-1.28,1.28-2.61,2.52-3.7,3.96-2.02,2.67-3.13,5.91-3.29,9.24-.05.96,1.45.96,1.5,0,.15-3.18,1.3-6.3,3.32-8.77,1.05-1.29,2.29-2.43,3.46-3.6,1.29-1.29,2.58-2.58,3.87-3.87.68-.68-.38-1.74-1.06-1.06h0Z"/>
  <path d="M351.4,437.36c-.39-3.4-.85-7.27.98-10.36.85-1.44,2.13-2.56,3.53-3.46.66-.42,1.35-.8,2.05-1.15.56-.28,1.59-.55,1.99-1.05l-.73.19c.37.07.92.73,1.17.97.45.44.89.89,1.31,1.36.93,1.05,1.76,2.19,2.47,3.4.77,1.3,1.73,3.32.04,4.32-1.06.63-2.47.65-3.66.79-1.39.16-4.14-.23-4.43,1.65-.22,1.4-.1,2.94-.08,4.35.02,1.57.09,3.14.2,4.71.03.39.32.77.75.75,7.84-.42,15.56,1.95,21.83,6.68.77.58,1.52-.72.76-1.3-6.45-4.86-14.52-7.32-22.59-6.88l.75.75c-.12-1.73-.19-3.45-.2-5.18,0-.87,0-1.73.03-2.6,0-.3-.07-.96.24-1.18.15-.11.78-.06.96-.07,2.11-.12,5.35-.13,6.96-1.76,2.01-2.03.35-4.94-.94-6.86-.81-1.21-1.73-2.36-2.75-3.41-.6-.62-1.51-1.79-2.42-1.95-.25-.04-.55-.02-.73.19-.23.28-1.01.47-1.34.64-.35.17-.7.35-1.05.54-.8.43-1.58.91-2.31,1.45-1.34.99-2.53,2.21-3.31,3.69-1.75,3.31-1.39,7.18-.99,10.76.11.95,1.61.96,1.5,0h0Z"/>
  <path d="M344.87,425.81c-.05,1.13-.1,2.26-.14,3.39-.02.59.65.91,1.13.65.05-.03.1-.05.15-.08.35-.19.48-.69.27-1.03-.23-.35-.66-.47-1.03-.27-.05.03-.1.05-.15.08l1.13.65c.05-1.13.1-2.26.14-3.39.02-.39-.36-.77-.75-.75-.42.02-.73.33-.75.75h0Z"/>
  <path d="M344.95,429.73c1.02.85,2.51.69,3.66.19.16-.07.3-.29.34-.45.05-.18.03-.42-.08-.58s-.26-.3-.45-.34c-.21-.05-.38,0-.58.08.03-.01.19-.07.07-.03-.02,0-.04.02-.07.02-.05.02-.1.04-.15.05-.11.03-.22.06-.33.09-.06.01-.11.02-.17.03-.03,0-.06.01-.1.02-.11.02.07-.02.08-.01-.04-.02-.15.02-.2.02-.06,0-.12,0-.18,0-.12,0-.23,0-.35-.01-.03,0-.05,0-.08,0-.09,0,.19.03.07,0-.05-.01-.11-.02-.16-.03s-.1-.03-.15-.05c-.02,0-.04-.02-.07-.02-.12-.04.13.07.07.03-.04-.03-.09-.05-.13-.07-.02-.01-.04-.03-.06-.04-.11-.07.15.12.05.04-.16-.13-.32-.22-.53-.22-.18,0-.4.08-.53.22-.25.28-.32.79,0,1.06h0Z"/>
  <path d="M345.62,426.56c.58.05,1.15-.06,1.72-.14l-.2.03c.35-.05.7-.08,1.06-.05.18.02.41-.1.53-.22.13-.13.23-.34.22-.53-.02-.44-.33-.71-.75-.75-.58-.05-1.15.06-1.72.14l.2-.03c-.35.05-.7.08-1.06.05-.18-.02-.41.1-.53.22-.13.13-.23.34-.22.53.02.44.33.71.75.75h0Z"/>
  <path d="M347.48,425.85c.08.28.14.57.18.86-.02-.16,0,.03,0,.07,0,.08.01.16.02.24.01.15.02.29.02.44,0,.3-.02.59-.05.88-.02.17.02-.11,0,.07-.01.07-.02.13-.03.2-.03.16-.06.31-.1.46-.09.38.12.83.52.92s.82-.12.92-.52c.33-1.32.32-2.71-.03-4.03-.1-.38-.54-.65-.92-.52s-.63.52-.52.92h0Z"/>
  <path d="M340.97,425.86c-.95,20.09-1.25,40.21-1.07,60.33,0,.96,1.51.97,1.5,0-.19-20.11.11-40.23,1.07-60.33.05-.96-1.45-.96-1.5,0h0Z"/>
  <path d="M341.95,441.17c.8-1.82,2.28-3.26,3.75-4.54s3.19-2.5,4.85-3.67c.33-.23.49-.66.27-1.03-.19-.33-.69-.5-1.03-.27-1.76,1.24-3.52,2.49-5.15,3.9s-3.15,2.92-3.99,4.85c-.16.37-.11.81.27,1.03.32.19.86.1,1.03-.27h0Z"/>
  <path d="M349.66,433.9c-2.5,3.78-5.32,7.91-4.85,12.68.2,2.07,1.03,3.9,2.44,5.43,1.5,1.62,3.41,2.77,5.01,4.28,3.24,3.06,4.24,7.56,3.83,11.88-.45,4.73-2.72,9-5.36,12.86-1.53,2.24-3.21,4.38-4.86,6.54-.43.56-.83,1.17-1.29,1.71-.32.38-.53.39-.95.59-.51.25-1.15.82-.89,1.45.36.88,1.81.5,1.45-.4.36.9-.2.18.16.26.04.01.31-.03.38-.06.29-.13.51-.32.73-.55.74-.77,1.32-1.74,1.97-2.59,1.43-1.88,2.88-3.74,4.23-5.67,2.55-3.65,4.82-7.66,5.65-12.09.72-3.85.48-7.99-1.35-11.51-.92-1.77-2.24-3.22-3.77-4.47-1.67-1.36-3.6-2.59-4.78-4.45-3.22-5.09.75-10.9,3.55-15.13.53-.81-.76-1.56-1.3-.76h0Z"/>
  <path d="M350.5,438.12c1.82.3,3.66.36,5.49.12.4-.05.75-.31.75-.75,0-.36-.35-.8-.75-.75-1.69.22-3.41.22-5.09-.06-.4-.07-.81.1-.92.52-.1.36.12.86.52.92h0Z"/>
  <path d="M350.7,441.84l5.87.33c.4.02.75-.36.75-.75,0-.43-.34-.73-.75-.75l-5.87-.33c-.4-.02-.75.36-.75.75,0,.43.34.73.75.75h0Z"/>
  <path d="M349.57,437.6c-.11,1.25-.03,2.49.18,3.72.07.39.56.64.92.52.42-.14.6-.51.52-.92-.03-.15-.05-.29-.07-.44,0-.06,0-.04,0,.03,0-.04-.01-.09-.02-.14,0-.07-.02-.14-.02-.2-.03-.28-.05-.57-.06-.85-.02-.58,0-1.16.04-1.73.03-.39-.37-.77-.75-.75-.44.02-.71.33-.75.75h0Z"/>
  <path d="M349.76,440.37c-3.72,1.64-2.36,6.63-.68,9.26.98,1.54,2.29,2.82,3.82,3.8,1.77,1.14,3.49,2.02,4.56,3.93.48.84,1.77.09,1.3-.76-.84-1.49-2.03-2.58-3.47-3.48s-2.84-1.71-3.97-3c-1.68-1.91-4.22-6.94-.79-8.45.88-.39.12-1.68-.76-1.3h0Z"/>
  <path d="M357.22,457.1c.16.35.32.71.48,1.06.07.16.14.32.22.49.07.15-.02-.04.04.1.04.09.08.19.11.28.13.33.24.66.34.99.05.17.09.34.12.52.02.1.04.2.06.3.01.09.02.1,0,.03,0,.05.01.1.02.16.04.39.31.77.75.75.37-.02.8-.33.75-.75-.09-.83-.29-1.62-.59-2.4s-.66-1.52-1-2.28c-.16-.36-.71-.47-1.03-.27-.37.24-.44.64-.27,1.03h0Z"/>
  <path d="M345.26,493.4c4.33-3.49,8.13-8.2,10.93-12.99,3.41-5.83,4.96-12.9,3.89-19.59-.15-.95-1.6-.55-1.45.4,1.04,6.53-.69,13.46-4.11,19.06-2.72,4.44-6.26,8.78-10.32,12.07-.75.61.32,1.66,1.06,1.06h0Z"/>
  <path d="M378.4,450.06c3.72,4.92,3.73,11.36,3.67,17.26-.01.97,1.49.97,1.5,0,.07-6.14,0-12.9-3.87-18.02-.58-.76-1.88-.01-1.3.76h0Z"/>
  <path d="M382.14,467.27c-.15,4.87-.41,9.74-.79,14.61-.07.96,1.43.96,1.5,0,.38-4.86.64-9.73.79-14.61.03-.97-1.47-.96-1.5,0h0Z"/>
  <path d="M347.46,491.77c6.75.24,13.72.06,20.33-1.45,5.41-1.23,11.26-3.5,14.85-7.91.6-.74-.45-1.81-1.06-1.06-3.54,4.35-9.32,6.48-14.65,7.63-6.35,1.37-13,1.52-19.47,1.29-.97-.03-.96,1.47,0,1.5h0Z"/>
  <path d="M407.08,442.42c-2.69.79-5.43,1.84-7.48,3.82s-3.33,4.68-3.18,7.51c.05.96,1.55.97,1.5,0-.14-2.51,1.05-4.88,2.86-6.57s4.31-2.62,6.69-3.32c.92-.27.53-1.72-.4-1.45h0Z"/>
  <path d="M396.43,453.75c-.12,5.31.08,10.63.31,15.93.04.96,1.54.97,1.5,0-.23-5.31-.43-10.62-.31-15.93.02-.97-1.48-.97-1.5,0h0Z"/>
  <path d="M396.78,469.91c.04,1.86.09,3.78.65,5.57s1.64,3,2.76,4.41c.81,1.03,1.24,1.96,1.19,3.29-.04,1,.16,2.04.21,3.05.11,2.06-.16,4.13-.07,6.16l.37-.65c-1.61.87-2.27,2.6-1.8,4.35.25.93,1.7.54,1.45-.4-.3-1.12.08-2.1,1.11-2.66.22-.12.38-.39.37-.65-.09-2.04.18-4.11.07-6.16-.06-1.09-.17-2.16-.17-3.24,0-.84-.11-1.54-.46-2.31-.8-1.73-2.41-2.9-3.21-4.62-.89-1.9-.91-4.08-.96-6.14-.02-.96-1.52-.97-1.5,0h0Z"/>
  <path d="M384.74,495.62c5.25-.14,10.5-.19,15.75-.33.96-.03.97-1.53,0-1.5-5.25.14-10.5.19-15.75.33-.96.03-.97,1.53,0,1.5h0Z"/>
  <path d="M345.61,496.85c13.05.02,26.11-.44,39.13-1.23.96-.06.97-1.56,0-1.5-13.02.79-26.09,1.25-39.13,1.23-.97,0-.97,1.5,0,1.5h0Z"/>
  <path d="M384.46,494.78c-.11.76-.14,1.58.04,2.33.09.38.55.65.92.52.4-.13.62-.51.52-.92-.02-.09-.04-.18-.05-.27l.03.2c-.07-.52-.06-1.07,0-1.6l-.03.2s0-.05,0-.07c.03-.21.03-.39-.08-.58-.09-.16-.27-.3-.45-.34-.19-.04-.41-.03-.58.08-.15.1-.32.26-.34.45h0Z"/>
  <path d="M383.57,499.24c.99,0,1.99.05,2.98.06.39,0,.77-.35.75-.75s-.33-.75-.75-.75c-.99,0-1.99-.05-2.98-.06-.39,0-.77.35-.75.75s.33.75.75.75h0Z"/>
  <path d="M385.8,498.55c-.06.61.21,1.28.62,1.73.45.49,1.04.58,1.68.58,1.84,0,3.68-.04,5.52-.07s3.65.04,5.46-.07c1.65-.1,1.98-1.46,1.72-2.87-.17-.95-1.62-.55-1.45.4.04.2.1.47.05.67-.08.31-.11.28-.44.31-.6.05-1.22.01-1.82.02-1.26.02-2.52.03-3.78.05s-2.48.03-3.72.05c-.58,0-1.16.05-1.74.02-.45-.02-.63-.37-.59-.81.09-.96-1.41-.96-1.5,0h0Z"/>
  <path d="M384.16,498.16c-.1-.15-.2-.3-.28-.47l.08.18c-.04-.09-.07-.18-.08-.28l.03.2c0-.06,0-.12,0-.19l-.03.2c0-.05.02-.1.04-.15l-.08.18c.02-.05.05-.1.08-.14l-.12.15s.06-.07.1-.1l-.15.12c.05-.04.11-.07.17-.1l-.18.08c.09-.04.18-.06.28-.07l-.2.03c.16-.02.32-.01.49,0l-.2-.03c.23.03.47.1.71.09.29-.01.55-.13.79-.3.16-.12.29-.25.34-.45.05-.18.03-.42-.08-.58s-.26-.3-.45-.34-.42-.04-.58.08c-.08.06-.17.12-.27.16l.18-.08s-.08.03-.12.03l.2-.03c-.06,0-.12,0-.17,0l.2.03c-.3-.04-.6-.12-.9-.11-.38.01-.73.11-1.03.34-.35.27-.56.73-.51,1.18.05.42.22.79.46,1.13.11.16.25.29.45.34.18.05.42.03.58-.08s.3-.26.34-.45.04-.41-.08-.58h0Z"/>
  <path d="M400.27,498.78c.17-.05.33-.09.5-.11l-.2.03c.2-.03.4-.03.61-.02.27.02.54.07.81.01.43-.09.68-.44.81-.83.06-.18.13-.35.19-.53.16-.53.17-1.16-.27-1.57-.15-.14-.31-.2-.5-.27-.12-.05-.24-.1-.37-.14-.16-.05-.32-.1-.48-.14-.18-.04-.38-.09-.57-.07-.2.02-.38.07-.53.22-.13.13-.23.34-.22.53s.07.4.22.53c.14.13.34.24.53.22.06,0,.12,0,.18,0l-.2-.03c.36.05.71.18,1.04.31l-.18-.08c.05.02.11.04.16.08l-.15-.12s.04.04.06.06l-.12-.15s.04.06.05.09l-.08-.18s.03.1.04.15l-.03-.2c0,.08,0,.15,0,.23l.03-.2c-.02.16-.07.32-.13.47s-.1.31-.16.45l.08-.18s-.04.07-.06.11l.12-.15s-.03.03-.04.04l.15-.12s-.03.02-.05.03l.18-.08s-.06.02-.09.03l.2-.03c-.15.02-.3-.02-.45-.03s-.29-.02-.44-.02c-.35,0-.7.06-1.04.16-.38.11-.65.53-.52.92s.52.64.92.52h0Z"/>
  <path d="M387.45,500.41c-.08,1.3-.11,2.6-.08,3.91,0,.39.34.77.75.75s.76-.33.75-.75c-.03-1.3,0-2.61.08-3.91.03-.39-.36-.77-.75-.75-.43.02-.72.33-.75.75h0Z"/>
  <path d="M398.66,500.21c0,1.17,0,2.35,0,3.52,0,.39.34.77.75.75s.75-.33.75-.75c0-1.17,0-2.35,0-3.52,0-.39-.34-.77-.75-.75s-.75.33-.75.75h0Z"/>
  <path d="M388.25,523.09c.2,3.59.45,7.18.65,10.77.05.96,1.55.97,1.5,0-.2-3.59-.45-7.18-.65-10.77-.05-.96-1.55-.97-1.5,0h0Z"/>
  <path d="M401.11,521.44c.09,3.77.31,7.54.4,11.31.02.96,1.52.97,1.5,0-.09-3.77-.31-7.54-.4-11.31-.02-.96-1.52-.97-1.5,0h0Z"/>
  <path d="M386.89,522.28c-.15-.25-.05-.05.03.12.05.11.1.19.17.29.19.26.48.5.75.68.6.4,1.31.46,2.01.46,1.72,0,3.45-.08,5.17-.22,1.57-.13,3.19-.25,4.74-.56,1.15-.23,2.4-.73,3.23-1.57.68-.69-.38-1.75-1.06-1.06s-1.74,1.03-2.66,1.2c-1.3.24-2.65.35-3.97.46s-2.68.19-4.02.22c-.63.02-1.3.08-1.93.01-.41-.05-.68-.16-.98-.45-.01.22-.03.2-.04-.05-.04-.11-.08-.21-.15-.3-.49-.83-1.78-.08-1.3.76h0Z"/>
  <path d="M388.29,428.91c2.17,0,4.35-.08,6.52-.01.33.01.71.02,1.01.17.39.2.29.57.35.95.12.77.62,1.33,1.32,1.64.82.35,1.68.23,2.52.05.42-.09,1.11-.36,1.52-.13.32.17.41.57.47.89.2.98.18,2.03.19,3.03.01,1.13-.03,2.26-.12,3.39-.08.96,1.42.96,1.5,0,.1-1.22.14-2.44.12-3.67-.02-1.06-.01-2.2-.26-3.24-.19-.82-.68-1.59-1.53-1.85-1.11-.34-2.15.3-3.25.28-.4,0-.86-.12-1.01-.54-.15-.44-.02-.89-.28-1.34-.4-.69-1.17-.97-1.92-1.07-1.07-.15-2.19-.05-3.27-.05h-3.89c-.97.01-.97,1.51,0,1.51h0Z"/>
  <path d="M345.06,423.54c1.68.3,3.53.55,4.96-.6.55-.44.98-1.05,1.12-1.74.16-.77-.11-1.45-.4-2.15-.16-.38-.52-1.06.11-1.16.59-.09,1.23.12,1.82.17,1.51.13,3-.74,3.67-2.09.43-.86-.87-1.62-1.3-.76-.27.55-.69.98-1.28,1.21s-1.14.14-1.73.05c-1.2-.17-2.72-.11-3.02,1.37-.14.7.16,1.33.42,1.95.23.56.38,1.06,0,1.6-.9,1.26-2.7.93-3.99.69-.94-.17-1.35,1.28-.4,1.45h0Z"/>
  <path d="M388.19,521.53c-1.32-2.47-1.76-5.31-2.21-8.04-.49-2.91-.78-5.86-.48-8.8l-.75.75c3.91-.2,7.83-.4,11.74-.6.96-.05,1.91-.11,2.87-.14.83-.03,1.58.18,2.38.21,1.28.05,1.39-1.83.11-1.74-.4.03-.75.32-.75.75v.07c0,.25.14.54.37.65,1.19.55.92,2.16.94,3.24.03,1.42.04,2.84.03,4.26-.03,2.89-.2,5.77-.68,8.62-.16.94,1.28,1.35,1.45.4.57-3.33.74-6.71.74-10.09,0-1.65.04-3.32-.07-4.97-.08-1.14-.56-2.26-1.65-2.76l.37.65v-.07c-.25.25-.5.5-.75.75l-.19-.06-.37-.65v.1c.13-.22.26-.43.38-.65.15-.11-.38-.12-.53-.15-.33-.05-.66-.08-.99-.08-.67-.01-1.35.04-2.02.08-1.51.08-3.03.15-4.54.23-2.95.15-5.89.3-8.84.45-.44.02-.71.33-.75.75-.32,3.08.03,6.16.53,9.2.48,2.87.97,5.8,2.36,8.4.46.85,1.75.09,1.3-.76h0Z"/>
  <path d="M388.9,533.86c.08,6.17.61,12.31,1.06,18.46.07.96,1.57.96,1.5,0-.45-6.15-.98-12.29-1.06-18.46-.01-.96-1.51-.97-1.5,0h0Z"/>
  <path d="M401.51,532.75c.42,5.39.84,10.78,1.26,16.18.07.96,1.58.96,1.5,0-.42-5.39-.84-10.78-1.26-16.18-.07-.96-1.58-.96-1.5,0h0Z"/>
  <path d="M402.77,548.93c0,6.49.59,12.98,1.5,19.4.13.95,1.58.55,1.45-.4-.89-6.29-1.44-12.65-1.44-19,0-.97-1.5-.97-1.5,0h0Z"/>
  <path d="M404.24,568.13c.61,7.51,1.14,15.04,2.52,22.46.18.95,1.62.55,1.45-.4-1.36-7.28-1.87-14.68-2.47-22.06-.08-.96-1.58-.96-1.5,0h0Z"/>
  <path d="M406.74,590.39c.64,5.52,1.75,10.95,2.86,16.39.19.95,1.64.55,1.45-.4-1.08-5.3-2.19-10.61-2.81-15.99-.11-.95-1.61-.96-1.5,0h0Z"/>
  <path d="M409.6,606.77c1.63,7.11,3.33,14.21,4.59,21.4.17.95,1.61.55,1.45-.4-1.26-7.19-2.96-14.29-4.59-21.4-.22-.94-1.66-.54-1.45.4h0Z"/>
  <path d="M414.2,628.17c1.05,6.19,2.74,12.24,4.46,18.28.26.93,1.71.53,1.45-.4-1.72-6.04-3.41-12.08-4.46-18.28-.16-.95-1.61-.55-1.45.4h0Z"/>
  <path d="M418.65,646.45c.96,3.12,1.98,6.21,2.99,9.31.5,1.53,1,3.05,1.49,4.58.23.73.46,1.46.69,2.2.17.56.27,1.13.81,1.44.84.48,1.6-.82.76-1.3.13.18.12.1-.03-.23-.06-.21-.13-.42-.19-.63-.1-.31-.2-.63-.29-.94-.23-.74-.47-1.47-.7-2.21-.44-1.37-.89-2.74-1.34-4.11-.93-2.83-1.86-5.67-2.73-8.52-.28-.92-1.73-.53-1.45.4h0Z"/>
  <path d="M424.29,663.53c1.49,6.95,3.55,13.76,5.74,20.52.3.91,1.74.52,1.45-.4-2.19-6.76-4.25-13.57-5.74-20.52-.2-.94-1.65-.54-1.45.4h0Z"/>
  <path d="M430.03,684.05c1.41,5.58,3.37,10.99,5.25,16.42.31.91,1.76.52,1.45-.4-1.88-5.43-3.84-10.84-5.25-16.42-.24-.94-1.68-.54-1.45.4h0Z"/>
  <path d="M435.29,700.47c1.75,5.79,3.76,11.5,6.02,17.12.36.88,1.81.5,1.45-.4-2.26-5.61-4.27-11.32-6.02-17.12-.28-.92-1.73-.53-1.45.4h0Z"/>
  <path d="M389.96,552.32c.4,5.13.8,10.27,1.2,15.4.07.96,1.57.96,1.5,0-.4-5.13-.8-10.27-1.2-15.4-.07-.96-1.57-.96-1.5,0h0Z"/>
  <path d="M391.16,567.72c.06,6.2.91,12.36,1.97,18.45.16.95,1.61.55,1.45-.4-1.04-5.97-1.86-11.99-1.91-18.05,0-.96-1.51-.97-1.5,0h0Z"/>
  <path d="M393.1,585.97c.52,6.68,1.87,13.26,3.35,19.78.21.94,1.66.54,1.45-.4-1.45-6.39-2.78-12.84-3.3-19.38-.08-.96-1.58-.96-1.5,0h0Z"/>
  <path d="M396.42,605.56c.76,8.43,3.16,16.55,5.27,24.72.24.93,1.69.54,1.45-.4-2.08-8.03-4.47-16.03-5.22-24.32-.09-.95-1.59-.96-1.5,0h0Z"/>
  <path d="M402.48,631.07c.97,0,.97-1.5,0-1.5s-.97,1.5,0,1.5h0Z"/>
  <path d="M401.69,630.27c1.87,7.31,4.03,14.55,5.6,21.94.2.94,1.65.54,1.45-.4-1.58-7.38-3.73-14.62-5.6-21.94-.24-.93-1.69-.54-1.45.4h0Z"/>
  <path d="M407.3,652.21c1.38,6.93,3.51,13.68,5.97,20.3.33.9,1.78.51,1.45-.4-2.46-6.62-4.59-13.37-5.97-20.3-.19-.95-1.63-.55-1.45.4h0Z"/>
  <path d="M413.27,672.51c1.57,6.53,3.81,12.87,5.62,19.34.26.93,1.71.53,1.45-.4-1.81-6.47-4.05-12.81-5.62-19.34-.23-.94-1.67-.54-1.45.4h0Z"/>
  <path d="M418.89,691.85c2.42,8.32,5.21,16.53,7.84,24.78.29.92,1.74.52,1.45-.4-2.63-8.25-5.42-16.46-7.84-24.78-.27-.93-1.72-.53-1.45.4h0Z"/>
  <path d="M426.72,716.63c2.06,5.92,4.34,11.77,6.4,17.69.31.91,1.76.52,1.45-.4-2.06-5.92-4.34-11.77-6.4-17.69-.31-.91-1.76-.52-1.45.4h0Z"/>
  <path d="M433.12,734.32c1.87,5.41,3.66,10.86,4.88,16.46.2.94,1.65.54,1.45-.4-1.21-5.6-3-11.05-4.88-16.46-.31-.91-1.76-.52-1.45.4h0Z"/>
  <path d="M441.3,717.59c1.8,5.61,3.63,11.21,5.56,16.77.31.91,1.76.52,1.45-.4-1.93-5.56-3.76-11.16-5.56-16.77-.29-.92-1.74-.52-1.45.4h0Z"/>
  <path d="M438,750.78c2.33,7.14,4.65,14.3,6.26,21.65.21.94,1.65.54,1.45-.4-1.61-7.35-3.92-14.51-6.26-21.65-.3-.91-1.75-.52-1.45.4h0Z"/>
  <path d="M444.26,772.43c1.22,5.63,2.33,11.29,3.34,16.97.17.95,1.61.55,1.45-.4-1-5.68-2.12-11.33-3.34-16.97-.2-.94-1.65-.54-1.45.4h0Z"/>
  <path d="M446.86,734.35c2.24,5.77,4.04,11.72,5.46,17.74.22.94,1.67.54,1.45-.4-1.42-6.03-3.22-11.97-5.46-17.74-.35-.89-1.8-.5-1.45.4h0Z"/>
  <path d="M447.57,789.2c.86,8.09,3.1,15.95,3.96,24.03.1.95,1.6.96,1.5,0-.86-8.09-3.1-15.95-3.96-24.03-.1-.95-1.6-.96-1.5,0h0Z"/>
  <path d="M452.32,752.09c1.31,4.89,2.77,9.74,4.09,14.63.25.93,1.7.54,1.45-.4-1.31-4.89-2.77-9.74-4.09-14.63-.25-.93-1.7-.54-1.45.4h0Z"/>
  <path d="M456.41,766.73c2.14,8.08,3.93,16.25,5.35,24.49.16.95,1.61.55,1.45-.4-1.43-8.24-3.21-16.41-5.35-24.49-.25-.93-1.69-.54-1.45.4h0Z"/>
  <path d="M451.55,813.43c2.64,17.96,5.23,35.96,6.58,54.07,1.33,17.75,1.48,35.67-.85,53.35-1.32,10.06-3.49,20-6.58,29.66-.3.92,1.15,1.32,1.45.4,5.49-17.12,7.93-35.06,8.37-53,.45-18.26-1.1-36.51-3.33-54.62-1.24-10.11-2.71-20.19-4.19-30.26-.14-.95-1.59-.55-1.45.4h0Z"/>
  <path d="M461.73,791.01c.65,5.14,1.3,10.29,1.95,15.43.12.94,1.62.96,1.5,0-.65-5.14-1.3-10.29-1.95-15.43-.12-.94-1.62-.96-1.5,0h0Z"/>
  <path d="M463.71,806.65c.76,5.47,1.78,10.91,2.54,16.38.13.95,1.58.55,1.45-.4-.76-5.47-1.78-10.91-2.54-16.38-.13-.95-1.58-.55-1.45.4h0Z"/>
  <path d="M466.23,822.83c.45,5.16,1.43,10.24,2.38,15.33.18.95,1.62.55,1.45-.4-.92-4.95-1.89-9.9-2.32-14.93-.08-.95-1.58-.96-1.5,0h0Z"/>
  <path d="M468.58,837.96c.59,5.92,1.2,11.84,1.78,17.76.09.95,1.6.96,1.5,0-.59-5.92-1.2-11.84-1.78-17.76-.09-.95-1.6-.96-1.5,0h0Z"/>
  <path d="M470.36,855.72c.33,4.3.66,8.6,1,12.9.07.96,1.57.96,1.5,0-.33-4.3-.66-8.6-1-12.9-.07-.96-1.57-.96-1.5,0h0Z"/>
  <path d="M450.7,950.52c-1.21,5.04-2.79,10-4.85,14.75-.38.88.91,1.64,1.3.76,2.11-4.88,3.76-9.94,5-15.11.22-.94-1.22-1.34-1.45-.4h0Z"/>
  <path d="M471.36,868.61c0,4.75.43,9.48.44,14.23,0,.97,1.5.97,1.5,0,0-4.75-.43-9.48-.44-14.23,0-.97-1.5-.97-1.5,0h0Z"/>
  <path d="M443.93,1000.99c4.72-4.96,8.74-10.47,11.93-16.54.45-.85-.85-1.61-1.3-.76-3.13,5.96-7.06,11.36-11.69,16.23-.67.7.39,1.76,1.06,1.06h0Z"/>
  <path d="M471.79,882.84c.38,26.92-3.76,53.83-10.8,79.78-1.94,7.15-4.12,14.24-6.51,21.25-.31.92,1.14,1.31,1.45.4,8.68-25.42,14.58-51.93,16.64-78.74.58-7.55.83-15.12.72-22.69-.01-.96-1.51-.97-1.5,0h0Z"/>
  <path d="M360.23,1008.77c3.83,1.49,7.78,3.01,11.9,3.4.96.09.95-1.41,0-1.5-3.96-.37-7.82-1.91-11.5-3.34-.9-.35-1.29,1.1-.4,1.45h0Z"/>
  <path d="M339.72,994.65c5.81,5.79,12.82,11.15,20.52,14.12.9.35,1.29-1.1.4-1.45-3.76-1.46-7.26-3.6-10.54-5.92s-6.44-4.95-9.31-7.82c-.68-.68-1.75.38-1.06,1.06h0Z"/>
  <path d="M322.22,971.54c4.58,8.4,10.41,16.63,17.5,23.11.71.65,1.78-.41,1.06-1.06-7-6.4-12.73-14.5-17.26-22.8-.46-.85-1.76-.09-1.3.76h0Z"/>
  <path d="M445.77,965.45c-1.84,6.37-4.91,12.44-8.4,18.05-.51.82.79,1.58,1.3.76,3.56-5.72,6.68-11.92,8.55-18.41.27-.93-1.18-1.33-1.45-.4h0Z"/>
  <path d="M371.93,1012.14c6.58,1.59,13.37,1.87,20.06.85.95-.14.55-1.59-.4-1.45-6.41.97-12.96.67-19.26-.85-.94-.23-1.34,1.22-.4,1.45h0Z"/>
  <path d="M391.99,1013c8.05-1.29,16.02-3.8,23.25-7.58.86-.45.1-1.74-.76-1.3-7.12,3.72-14.97,6.15-22.89,7.43-.95.15-.55,1.6.4,1.45h0Z"/>
  <path d="M415.24,1005.42c9.76-4.16,18.28-11.9,23.43-21.16.47-.84-.83-1.6-1.3-.76-5.05,9.06-13.35,16.56-22.89,20.63-.89.38-.12,1.67.76,1.3h0Z"/>
  <path d="M442.87,999.93c-3,3.4-6.24,6.55-9.77,9.39-.32.26-.26.79,0,1.06.31.32.75.25,1.06,0,3.54-2.84,6.78-5.99,9.77-9.39.64-.72-.42-1.79-1.06-1.06h0Z"/>
  <path d="M433.09,1009.32c-4.75,3.72-10.03,6.75-15.62,8.99-.89.35-.5,1.81.4,1.45,5.86-2.34,11.32-5.49,16.29-9.38.76-.59-.31-1.65-1.06-1.06h0Z"/>
  <path d="M417.29,1018.38c-3.72,1.85-7.52,3.37-11.56,4.36-.94.23-.54,1.67.4,1.45,4.16-1.01,8.09-2.6,11.92-4.51.86-.43.11-1.72-.76-1.3h0Z"/>
  <path d="M405.73,1022.74c-6.37,1.41-12.79,2.59-19.25,3.53-.95.14-.55,1.59.4,1.45,6.46-.95,12.88-2.13,19.25-3.53.94-.21.54-1.65-.4-1.45h0Z"/>
  <path d="M386.68,1026.25c-6.3-.04-12.72.38-18.96-.64-.94-.15-1.35,1.29-.4,1.45,6.39,1.04,12.92.65,19.36.69.97,0,.97-1.49,0-1.5h0Z"/>
  <path d="M344.1,1017.11c6.87,4.85,15.13,7.85,23.22,9.94.94.24,1.33-1.2.4-1.45-7.98-2.07-16.09-5.01-22.86-9.79-.79-.56-1.54.74-.76,1.3h0Z"/>
  <path d="M324.66,1000.3c5.79,6.29,12.46,11.9,19.44,16.81.79.56,1.54-.74.76-1.3-6.88-4.84-13.43-10.39-19.14-16.58-.66-.71-1.71.35-1.06,1.06h0Z"/>
  <path d="M309.8,977.62c4.01,8.14,9.23,15.57,14.85,22.68.6.76,1.65-.31,1.06-1.06-5.54-7-10.67-14.35-14.62-22.37-.43-.87-1.72-.11-1.3.76h0Z"/>
  <path d="M311.56,929.09c2.21,14.39,5.78,28.54,10.58,42.28.32.91,1.77.52,1.45-.4-4.8-13.74-8.37-27.89-10.58-42.28-.15-.95-1.59-.55-1.45.4h0Z"/>
  <path d="M317.18,870.79c-4.62,19.05-6.36,38.52-5.64,58.1.04.96,1.54.97,1.5,0-.71-19.45,1-38.78,5.59-57.7.23-.94-1.22-1.34-1.45-.4h0Z"/>
  <path d="M304.81,965c1.1,4.41,2.98,8.56,4.99,12.62.43.86,1.72.11,1.3-.76-1.96-3.95-3.77-7.98-4.84-12.27-.23-.94-1.68-.54-1.45.4h0Z"/>
  <path d="M299.1,944.54c1.71,6.87,3.77,13.65,5.71,20.46.26.93,1.71.53,1.45-.4-1.94-6.81-4-13.59-5.71-20.46-.23-.94-1.68-.54-1.45.4h0Z"/>
  <path d="M318.63,871.18c1.94-10.05,3.92-20.08,5.86-30.13.18-.94-1.26-1.35-1.45-.4-1.94,10.05-3.92,20.08-5.86,30.13-.18.94,1.26,1.35,1.45.4h0Z"/>
  <path d="M324.49,841.06c2.56-9.54,5.14-19.07,7.7-28.6.25-.93-1.2-1.33-1.45-.4-2.56,9.54-5.14,19.07-7.7,28.6-.25.93,1.2,1.33,1.45.4h0Z"/>
  <path d="M341.77,772.17c-2.62,13.57-6.38,26.88-11.03,39.89-.33.91,1.12,1.3,1.45.4,4.65-13.01,8.41-26.32,11.03-39.89.18-.94-1.26-1.35-1.45-.4h0Z"/>
  <path d="M346.02,743.8c-.33,9.59-1.77,19.1-4.25,28.37-.25.93,1.2,1.33,1.45.4,2.51-9.4,3.97-19.05,4.3-28.77.03-.97-1.47-.96-1.5,0h0Z"/>
  <path d="M347.42,705.46c-.61,12.77-1.08,25.55-1.4,38.34-.02.97,1.48.97,1.5,0,.32-12.78.79-25.56,1.4-38.34.05-.96-1.45-.96-1.5,0h0Z"/>
  <path d="M347.03,665.15c-.31,13.44-.03,26.87.4,40.31.03.96,1.53.97,1.5,0-.43-13.44-.71-26.87-.4-40.31.02-.97-1.48-.97-1.5,0h0Z"/>
  <path d="M347.89,648.42c-.48,5.56-.77,11.15-.87,16.73-.02.97,1.48.97,1.5,0,.09-5.58.39-11.17.87-16.73.08-.96-1.42-.96-1.5,0h0Z"/>
  <path d="M334.39,647.39c.23,5.65.15,11.32-.26,16.96-.07.96,1.43.96,1.5,0,.41-5.64.48-11.31.26-16.96-.04-.96-1.54-.97-1.5,0h0Z"/>
  <path d="M334.14,664.35c-.22,7.31-.09,14.62-.31,21.92-.03.97,1.47.96,1.5,0,.22-7.31.09-14.62.31-21.92.03-.97-1.47-.96-1.5,0h0Z"/>
  <path d="M333.83,686.27c-.01,8.61.26,17.22.24,25.83,0,.97,1.5.97,1.5,0,.01-8.61-.26-17.22-.24-25.83,0-.97-1.5-.97-1.5,0h0Z"/>
  <path d="M334.07,712.1c-.93,10.03-1.71,20.08-2.64,30.12-.09.96,1.41.95,1.5,0,.93-10.03,1.71-20.08,2.64-30.12.09-.96-1.41-.95-1.5,0h0Z"/>
  <path d="M331.43,742.22c-.36,5.35-.34,10.71-.7,16.05-.06.96,1.44.96,1.5,0,.36-5.35.34-10.71.7-16.05.06-.96-1.44-.96-1.5,0h0Z"/>
  <path d="M330.76,758.07c-1.81,8.02-3.96,15.96-6.37,23.83-.28.93,1.16,1.32,1.45.4,2.41-7.87,4.56-15.8,6.37-23.83.21-.94-1.23-1.34-1.45-.4h0Z"/>
  <path d="M324.38,781.9c-2.35,6.3-4.57,12.66-5.98,19.25-.2.94,1.24,1.34,1.45.4,1.41-6.59,3.63-12.94,5.98-19.25.34-.91-1.11-1.3-1.45-.4h0Z"/>
  <path d="M318.4,801.14c-2.04,8.52-4.28,17-6.83,25.39-.28.93,1.17,1.32,1.45.4,2.55-8.39,4.78-16.86,6.83-25.39.22-.94-1.22-1.34-1.45-.4h0Z"/>
  <path d="M311.57,826.53c-2.72,6.98-4.76,14.19-6.07,21.57-.17.94,1.28,1.35,1.45.4,1.32-7.37,3.35-14.59,6.07-21.57.35-.9-1.1-1.29-1.45-.4h0Z"/>
  <path d="M305.5,848.1c-2.98,10.37-4.95,20.98-6.68,31.62-.15.94,1.29,1.35,1.45.4,1.74-10.64,3.71-21.25,6.68-31.62.27-.93-1.18-1.33-1.45-.4h0Z"/>
  <path d="M325.55,527.35c1.67.66,3.96.57,5.67.23,2.51-.5,5.01-1.18,7.41-2.04,4.58-1.63,8.81-4.07,12.16-7.64.66-.7-.4-1.77-1.06-1.06-3.17,3.38-7.15,5.71-11.49,7.26-2.08.74-4.21,1.32-6.36,1.81-1.82.42-4.11.71-5.93,0-.9-.35-1.29,1.1-.4,1.45h0Z"/>
  <path d="M325.27,472c11.3,7.99,19.56,20.24,22.8,33.69.92,3.83,1.4,7.74,1.44,11.67,0,.96,1.51.97,1.5,0-.12-14.34-6.22-28.32-15.93-38.77-2.73-2.94-5.77-5.58-9.04-7.89-.79-.56-1.54.74-.76,1.3h0Z"/>
  <path d="M358.36,473.81c1.83.86,2.55,3.18,3.05,4.98.63,2.25.8,4.58.56,6.9l.22-.53c.3-.03.34-.08.13-.17l-.15-.12c-.15-.12-.28-.26-.41-.39-.26-.28-.49-.59-.7-.91-.43-.64-.8-1.32-1.23-1.96-.83-1.21-1.95-2.34-3.46-2.57-.94-.15-1.35,1.3-.4,1.45,2.11.33,2.92,2.63,4.02,4.16.52.73,1.25,1.7,2.18,1.89.45.1.97-.06,1.21-.47s.18-1.15.19-1.63c.1-2.37-.25-4.78-1.01-7.03-.63-1.88-1.54-4-3.44-4.9-.87-.41-1.63.88-.76,1.3h0Z"/>
  <path d="M333.32,629.54c-.03,2.58-.08,5.17-.13,7.75-.04,2.38-.28,4.85,0,7.22.23,1.93,1.14,3.49,3.01,4.2,2.12.79,4.71.99,6.96,1.07,1.15.04,2.29,0,3.43-.17s2.39-.31,3.29-1.01c1.65-1.29,1.27-4.14,1.35-5.97.11-2.66.21-5.32.3-7.97.04-1.21.16-2.45.11-3.66-.03-.83-.3-1.61-1.12-1.95-1.13-.46-2.66-.31-3.86-.36-1.38-.06-2.76-.1-4.15-.1-2.81-.01-5.61.09-8.42.21-.96.04-.97,1.54,0,1.5,4.13-.18,8.26-.3,12.39-.11.95.04,2.16-.06,3.08.19.62.17.59.45.58,1.06-.01.57-.03,1.14-.05,1.71-.07,2.28-.15,4.56-.24,6.83-.04,1.08-.09,2.15-.13,3.23s.03,2.19-.21,3.22-.96,1.29-1.89,1.5c-1.16.26-2.35.37-3.54.38-2.11.01-4.25-.25-6.31-.71-.88-.2-1.79-.47-2.37-1.22s-.71-1.79-.75-2.72c-.1-2.29.04-4.61.08-6.9s.09-4.8.12-7.21c.01-.97-1.49-.97-1.5,0h0Z"/>
  <path d="M326.73,592.99c7.76,1.15,16.04,3.99,22.11,9.1,3.29,2.77,4.84,6.77,5.88,10.84.57,2.21.94,4.47,1.12,6.75.08,1.09.12,2.19.12,3.29,0,.75-.26,1.73.13,2.39v-.76c.22-.29-.42-.11-.55-.1-.67.02-1.33-.07-1.99-.13-1.3-.11-2.61-.21-3.91-.29-2.45-.16-4.9-.28-7.35-.35-5.06-.14-10.13-.09-15.19.14-.96.04-.97,1.54,0,1.5,5.55-.26,11.11-.29,16.66-.1,2.69.1,5.39.25,8.08.45,1.28.1,2.59.31,3.86.29.69-.01,1.25-.09,1.69-.66.16-.21.12-.55,0-.76-.13-.23.08-1.33.08-1.64,0-.63,0-1.25-.03-1.88-.05-1.1-.14-2.19-.27-3.28-.28-2.25-.72-4.47-1.36-6.64-1.15-3.92-2.85-7.63-6.06-10.28-6.29-5.18-14.63-8.16-22.61-9.35-.94-.14-1.35,1.3-.4,1.45h0Z"/>
  <path d="M335.66,624.55c-.04.82-.08,1.64-.08,2.46s-.02,1.74.16,2.58c.08.38.55.64.92.52.4-.13.61-.51.52-.92-.02-.07-.02-.14-.04-.21-.02-.09.02.18,0,.04,0-.05-.01-.1-.02-.14-.02-.19-.03-.38-.04-.57-.02-.45-.02-.91-.02-1.36,0-.8.04-1.6.08-2.4.02-.39-.36-.77-.75-.75-.42.02-.73.33-.75.75h0Z"/>
  <path d="M348.24,624.89v4.55c0,.39.34.77.75.75s.75-.33.75-.75v-4.55c0-.39-.34-.77-.75-.75s-.75.33-.75.75h0Z"/>
  <path d="M106.58,332.54c4.11-.51,8.31-.53,12.45-.62,5.92-.13,11.85-.16,17.77-.11.97,0,.97-1.49,0-1.5-5.92-.05-11.85-.02-17.77.11-4.14.09-8.33.12-12.45.62-.95.12-.96,1.62,0,1.5h0Z"/>
  <path d="M89.57,347.46c2.99-7.03,9.54-13.42,17.21-14.95.95-.19.55-1.63-.4-1.45-8,1.6-14.98,8.29-18.1,15.64-.37.88.92,1.64,1.3.76h0Z"/>
  <path d="M88.2,346.89c-2.27,5.59-2.9,11.43-2.6,17.42.05.96,1.55.97,1.5,0-.29-5.88.33-11.54,2.55-17.03.36-.89-1.09-1.28-1.45-.4h0Z"/>
  <path d="M85.6,364.31c.44,5.25.19,10.51,0,15.76-.03.97,1.47.96,1.5,0,.19-5.25.44-10.52,0-15.76-.08-.95-1.58-.96-1.5,0h0Z"/>
  <path d="M85.6,380.07c.3,8.03-.3,16.06,0,24.08.04.96,1.54.97,1.5,0-.3-8.03.3-16.06,0-24.08-.04-.96-1.54-.97-1.5,0h0Z"/>
  <path d="M85.6,404.16c-.15,7.76.17,15.51.14,23.26,0,.97,1.5.97,1.5,0,.03-7.76-.29-15.51-.14-23.26.02-.97-1.48-.97-1.5,0h0Z"/>
  <path d="M85.74,427.42c.12,7.27.13,14.55,0,21.82-.02.97,1.48.97,1.5,0,.13-7.27.12-14.55,0-21.82-.02-.96-1.52-.97-1.5,0h0Z"/>
  <path d="M85.74,449.24c.15,8.13-.13,16.27,0,24.4.02.96,1.52.97,1.5,0-.13-8.13.15-16.27,0-24.4-.02-.96-1.52-.97-1.5,0h0Z"/>
  <path d="M85.74,473.64c-.3,7.41-.06,14.83.22,22.23.04.96,1.54.97,1.5,0-.28-7.41-.52-14.82-.22-22.23.04-.97-1.46-.96-1.5,0h0Z"/>
  <path d="M85.95,495.87c.32,9.47.2,18.95-.4,28.41-.06.96,1.44.96,1.5,0,.6-9.46.72-18.94.4-28.41-.03-.96-1.53-.97-1.5,0h0Z"/>
  <path d="M85.56,524.28c.03,7.31-.09,14.61-.06,21.92,0,.96,1.5.97,1.5,0-.03-7.31.09-14.61.06-21.92,0-.96-1.5-.97-1.5,0h0Z"/>
  <path d="M164.22,330.49c-9.14.38-18.29.15-27.43-.18-.97-.04-.96,1.46,0,1.5,9.14.33,18.29.56,27.43.18.96-.04.97-1.54,0-1.5h0Z"/>
  <path d="M164.22,331.99c9.08.1,18.16-.22,27.24-.25.97,0,.97-1.5,0-1.5-9.08.03-18.16.34-27.24.25-.97-.01-.97,1.49,0,1.5h0Z"/>
  <path d="M191.46,331.74c7.22.02,14.44-.03,21.66-.16.96-.02.97-1.52,0-1.5-7.22.13-14.44.18-21.66.16-.97,0-.97,1.5,0,1.5h0Z"/>
  <path d="M236.18,330.24c-7.69-.11-15.37-.05-23.06-.16-.97-.01-.97,1.49,0,1.5,7.69.11,15.37.05,23.06.16.97.01.97-1.49,0-1.5h0Z"/>
  <path d="M236.18,331.74c5.27.04,10.65,2.23,14.9,5.3,1.92,1.39,3.68,3.48,5.01,5.42s2.25,4.11,3.13,6.29c.36.88,1.81.5,1.45-.4-1.89-4.7-4.41-9.24-8.53-12.38-4.45-3.38-10.36-5.68-15.96-5.73-.97,0-.97,1.49,0,1.5h0Z"/>
  <path d="M259.22,348.75c.41,1.43.92,2.82,1.28,4.26.75,2.99,1.15,6.05,1.36,9.12.06.96,1.57.97,1.5,0-.21-3.15-.62-6.3-1.37-9.37-.37-1.49-.89-2.93-1.31-4.41-.27-.93-1.72-.53-1.45.4h0Z"/>
  <path d="M261.86,362.13c-.06,7.33.37,14.65.37,21.98,0,.97,1.5.97,1.5,0,0-7.33-.43-14.65-.37-21.98,0-.97-1.49-.97-1.5,0h0Z"/>
  <path d="M262.23,384.11c-.06,7.31.19,14.62,0,21.93-.02.97,1.48.97,1.5,0,.18-7.31-.07-14.62,0-21.93,0-.97-1.49-.97-1.5,0h0Z"/>
  <path d="M262.24,406.04c-.19,6.79.04,13.59.04,20.38,0,.97,1.5.97,1.5,0,0-6.79-.23-13.59-.04-20.38.03-.97-1.47-.96-1.5,0h0Z"/>
  <path d="M262.28,426.42c.06,7.05.02,14.09.02,21.14,0,.97,1.5.97,1.5,0,0-7.05.04-14.09-.02-21.14,0-.96-1.51-.97-1.5,0h0Z"/>
  <path d="M262.3,447.56c-.19,7.82.05,15.64,0,23.47,0,.97,1.49.97,1.5,0,.05-7.82-.19-15.64,0-23.47.02-.97-1.48-.97-1.5,0h0Z"/>
  <path d="M262.3,471.03c-.05,9.11,0,18.21,0,27.32,0,.97,1.5.97,1.5,0,0-9.11-.05-18.21,0-27.32,0-.97-1.49-.97-1.5,0h0Z"/>
  <path d="M262.3,498.35c-.05,6.59-.28,13.17,0,19.76.04.96,1.54.97,1.5,0-.28-6.58-.05-13.17,0-19.76,0-.97-1.49-.97-1.5,0h0Z"/>
  <path d="M262.3,518.1c.12,7.67-.05,15.34.01,23.01,0,.96,1.51.97,1.5,0-.06-7.67.11-15.34-.01-23.01-.02-.96-1.52-.97-1.5,0h0Z"/>
  <path d="M262.31,541.11c-.04,2.24-.29,4.46-.78,6.65-.32,1.44-.76,2.86-.98,4.32-.06.4.1.8.52.92.35.1.86-.12.92-.52.23-1.5.69-2.97,1.01-4.45.5-2.27.76-4.59.8-6.91.02-.97-1.48-.97-1.5,0h0Z"/>
  <path d="M260.55,552.08c-.42,2-.95,4-1.91,5.82-1.07,2.05-2.59,3.74-4.23,5.35-3.13,3.05-6.29,5.74-10.63,6.81-.94.23-.54,1.68.4,1.45,4.58-1.14,7.97-3.97,11.29-7.2,1.7-1.66,3.29-3.43,4.41-5.54,1.05-1.97,1.65-4.12,2.11-6.29.2-.94-1.25-1.34-1.45-.4h0Z"/>
  <path d="M243.79,570.06c-6.11,1.21-12.32,1.88-18.56,1.83-.97,0-.97,1.49,0,1.5,6.36.04,12.72-.65,18.96-1.89.95-.19.55-1.63-.4-1.45h0Z"/>
  <path d="M224.82,571.88c-8.16-.07-16.33.1-24.49,0-.97-.01-.97,1.49,0,1.5,8.16.1,16.33-.07,24.49,0,.97,0,.97-1.49,0-1.5h0Z"/>
  <path d="M200.02,571.8c-7.8-.08-15.59,0-23.39-.08-.97-.01-.97,1.49,0,1.5,7.8.08,15.59,0,23.39.08.97.01.97-1.49,0-1.5h0Z"/>
  <path d="M145.72,573.25c5.2.03,10.4.15,15.6.08s10.22.05,15.31-.11c.96-.03.97-1.53,0-1.5-5.1.16-10.21.04-15.31.11s-10.4-.05-15.6-.08c-.97,0-.97,1.49,0,1.5h0Z"/>
  <path d="M145.72,571.75c-5.86-.49-11.72-.08-17.58-.06-2.59,0-5.18-.08-7.78,0-2.19.06-4.39.15-6.58.07-4.61-.18-9.11-.97-13.05-3.48-3.67-2.34-6.72-5.65-9.07-9.29-2.51-3.9-4.41-8.4-4.66-13.07-.05-.96-1.55-.97-1.5,0,.47,8.54,5.72,16.97,12.36,22.15,3.56,2.78,7.43,4.23,11.88,4.83,4.93.66,9.85.16,14.8.25,7.05.12,14.14-.48,21.18.11.96.08.96-1.42,0-1.5h0Z"/>
  <path d="M93.35,325.72c-10.18,5.9-17.62,17.41-16.85,29.41.06.96,1.56.97,1.5,0-.73-11.49,6.36-22.47,16.11-28.12.84-.48.08-1.78-.76-1.3h0Z"/>
  <path d="M76.5,355.13c.14,5.02.17,10.04.31,15.05.03.96,1.53.97,1.5,0-.14-5.02-.17-10.04-.31-15.05-.03-.96-1.53-.97-1.5,0h0Z"/>
  <path d="M76.81,370.19c.08,5.71.3,11.42.38,17.14.01.96,1.51.97,1.5,0-.08-5.71-.3-11.42-.38-17.14-.01-.96-1.51-.97-1.5,0h0Z"/>
  <path d="M77.19,387.33c-.03,5.79-.03,11.58-.06,17.37,0,.97,1.49.97,1.5,0,.03-5.79.03-11.58.06-17.37,0-.97-1.49-.97-1.5,0h0Z"/>
  <path d="M111.86,321.62c-6.38-.04-12.69,1.54-18.51,4.1-.88.39-.12,1.68.76,1.3,5.57-2.45,11.65-3.94,17.75-3.9.97,0,.97-1.49,0-1.5h0Z"/>
  <path d="M77.13,404.7c.01,5.79.09,11.58.1,17.37,0,.97,1.5.97,1.5,0-.01-5.79-.09-11.58-.1-17.37,0-.97-1.5-.97-1.5,0h0Z"/>
  <path d="M111.86,323.12c6.73.18,13.5.52,20.23.33.96-.03.97-1.53,0-1.5-6.73.2-13.51-.15-20.23-.33-.97-.03-.97,1.47,0,1.5h0Z"/>
  <path d="M132.1,323.44c7.9.15,15.8.09,23.69-.17.96-.03.97-1.53,0-1.5-7.9.26-15.8.32-23.69.17-.97-.02-.97,1.48,0,1.5h0Z"/>
  <path d="M155.79,323.27c7.63-.02,15.26.08,22.89.06.97,0,.97-1.5,0-1.5-7.63.02-15.26-.08-22.89-.06-.97,0-.97,1.5,0,1.5h0Z"/>
  <path d="M178.68,323.33c7.72-.04,15.44.03,23.16.16.97.02.97-1.48,0-1.5-7.72-.13-15.44-.2-23.16-.16-.96,0-.97,1.51,0,1.5h0Z"/>
  <path d="M201.84,323.48c6.48.02,12.96,0,19.44.02.97,0,.97-1.5,0-1.5-6.48-.02-12.96,0-19.44-.02-.97,0-.97,1.5,0,1.5h0Z"/>
  <path d="M221.28,323.5c6.3-.37,12.62-.25,18.9.36.96.09.95-1.41,0-1.5-6.28-.62-12.6-.74-18.9-.36-.96.06-.97,1.56,0,1.5h0Z"/>
  <path d="M239.98,323.84c2.77.72,5.59.76,8.32,1.7,3.49,1.21,6.83,2.84,9.92,4.86,5.78,3.78,10.79,8.95,12.29,15.92.98,4.56.37,9.4-.12,13.99-.1.96,1.4.95,1.5,0,.46-4.35.91-8.75.29-13.11-.48-3.37-1.93-6.61-3.82-9.42-3.98-5.93-10.78-10.13-17.28-12.78-1.83-.75-3.71-1.46-5.66-1.79-1.67-.28-3.39-.39-5.03-.82-.93-.24-1.33,1.2-.4,1.45h0Z"/>
  <path d="M77.23,422.07c-.02,6.7.14,13.39.46,20.08.05.96,1.55.97,1.5,0-.33-6.69-.48-13.38-.46-20.08,0-.97-1.5-.97-1.5,0h0Z"/>
  <path d="M77.7,442.15c-.32,6.27-.04,12.57.31,18.83.05.96,1.55.97,1.5,0-.35-6.26-.63-12.56-.31-18.83.05-.96-1.45-.96-1.5,0h0Z"/>
  <path d="M78.01,460.98c-.02,8.54.33,17.09.31,25.63,0,.97,1.5.97,1.5,0,.02-8.54-.33-17.09-.31-25.63,0-.97-1.5-.97-1.5,0h0Z"/>
  <path d="M78.32,486.61c-.05,6.9.02,13.79-.03,20.69,0,.97,1.49.97,1.5,0,.05-6.9-.02-13.79.03-20.69,0-.97-1.49-.97-1.5,0h0Z"/>
  <path d="M271.32,362.29c.97,0,.97-1.5,0-1.5s-.97,1.5,0,1.5h0Z"/>
  <path d="M270.38,360.3c.15,8.54.26,17.09.4,25.63.02.96,1.52.97,1.5,0-.15-8.54-.26-17.09-.4-25.63-.02-.96-1.52-.97-1.5,0h0Z"/>
  <path d="M270.78,385.94c0,7.51-.2,15.03-.2,22.54,0,.97,1.5.97,1.5,0,0-7.51.2-15.03.2-22.54,0-.97-1.5-.97-1.5,0h0Z"/>
  <path d="M270.58,408.48c0,7,.21,14,.21,21,0,.97,1.5.97,1.5,0,0-7-.21-14-.21-21,0-.97-1.5-.97-1.5,0h0Z"/>
  <path d="M78.29,507.3c-.13,6.79-.19,13.59-.02,20.39.02.96,1.52.97,1.5,0-.16-6.79-.1-13.59.02-20.39.02-.97-1.48-.97-1.5,0h0Z"/>
  <path d="M270.79,429.48c.64,6.15.92,12.35.83,18.53-.01.97,1.49.97,1.5,0,.09-6.18-.19-12.38-.83-18.53-.1-.95-1.6-.96-1.5,0h0Z"/>
  <path d="M271.62,448.01c-.43,7.62-.28,15.23.17,22.84.06.96,1.56.97,1.5,0-.45-7.61-.6-15.23-.17-22.84.05-.96-1.45-.96-1.5,0h0Z"/>
  <path d="M271.79,470.85c-.47,8.33-.85,16.68-.47,25.02.04.96,1.54.97,1.5,0-.38-8.34,0-16.69.47-25.02.05-.96-1.45-.96-1.5,0h0Z"/>
  <path d="M271.33,495.87c.2,5.97.39,11.94.59,17.91.03.96,1.53.97,1.5,0-.2-5.97-.39-11.94-.59-17.91-.03-.96-1.53-.97-1.5,0h0Z"/>
  <path d="M271.92,513.78c.44,7.2.36,14.42-.03,21.62-.05.96,1.45.96,1.5,0,.39-7.2.48-14.42.03-21.62-.06-.96-1.56-.97-1.5,0h0Z"/>
  <path d="M78.27,527.68c0,7,.03,14,.42,21,.05.96,1.55.97,1.5,0-.39-6.99-.43-14-.42-21,0-.97-1.5-.97-1.5,0h0Z"/>
  <path d="M78.69,548.68c-.11,8.96,3.41,17.03,10.02,23.07.71.65,1.77-.41,1.06-1.06-3.12-2.85-5.73-6.22-7.39-10.12s-2.24-7.82-2.19-11.89c.01-.97-1.49-.97-1.5,0h0Z"/>
  <path d="M88.71,571.75c5.76,5.68,13.39,8.75,21.48,8.65.96-.01.97-1.51,0-1.5-7.7.1-14.93-2.8-20.41-8.21-.69-.68-1.75.38-1.06,1.06h0Z"/>
  <path d="M271.88,535.4c0,3.81-.12,7.62-.13,11.43,0,.97,1.5.97,1.5,0,0-3.81.12-7.62.13-11.43,0-.97-1.5-.97-1.5,0h0Z"/>
  <path d="M271.76,546.83c.9,8-1.46,15.62-6.08,22.15-.56.79.74,1.54,1.3.76,4.75-6.71,7.21-14.67,6.28-22.9-.11-.95-1.61-.96-1.5,0h0Z"/>
  <path d="M110.18,580.4c6.38.25,12.77.07,19.15.32.97.04.96-1.46,0-1.5-6.38-.25-12.77-.07-19.15-.32-.97-.04-.96,1.46,0,1.5h0Z"/>
  <path d="M129.34,580.72c9.69.71,19.4.98,29.11.81.96-.02.97-1.52,0-1.5-9.71.18-19.43-.09-29.11-.81-.96-.07-.96,1.43,0,1.5h0Z"/>
  <path d="M158.45,581.52c9.94.47,19.88.21,29.81-.29.96-.05.97-1.55,0-1.5-9.93.5-19.88.76-29.81.29-.96-.05-.96,1.45,0,1.5h0Z"/>
  <path d="M188.26,581.23c8.99-.01,17.98-.22,26.97.15.97.04.96-1.46,0-1.5-8.99-.37-17.98-.17-26.97-.15-.97,0-.97,1.5,0,1.5h0Z"/>
  <path d="M215.23,581.39c7.23.22,14.45.16,21.67-.2.96-.05.97-1.55,0-1.5-7.22.35-14.45.42-21.67.2-.97-.03-.96,1.47,0,1.5h0Z"/>
  <path d="M265.79,568.82c-3.66,3.61-7.96,6.61-12.78,8.45-5.08,1.94-10.7,2.46-16.11,2.42-.97,0-.97,1.49,0,1.5,5.66.05,11.59-.52,16.89-2.62,4.92-1.95,9.3-4.99,13.06-8.69.69-.68-.37-1.74-1.06-1.06h0Z"/>
  <path d="M176.06,18.27c.85-3.83.82-7.78.7-11.68-.05-1.67-.22-3.44-1.25-4.82-.83-1.12-2.19-1.93-3.62-1.75-1.28.16-2.32,1.26-2.52,2.52-.3,1.88-.27,3.92-.32,5.82-.06,2.14-.04,4.28.05,6.41.07,1.69.01,3.59.73,5.16.61,1.34,2.05,2.41,3.58,2.13,1.81-.33,2.28-2.27,2.65-3.8.23-.94-1.22-1.34-1.45-.4-.17.7-.3,1.65-.75,2.24-.57.73-1.49.57-2.13,0-1.22-1.12-1.05-3.43-1.12-4.92-.18-3.8-.12-7.62.17-11.42.06-.82.02-1.68.88-2.12.74-.38,1.59,0,2.17.5,1.35,1.18,1.39,3.15,1.43,4.81.08,3.65.14,7.33-.65,10.92-.21.94,1.24,1.34,1.45.4Z"/>
  <path d="M298.82,879.72c-3.42,16.69-3.99,34.06-2.01,50.97.55,4.65,1.3,9.27,2.29,13.85.2.94,1.65.54,1.45-.4-3.56-16.37-4.2-33.46-2.44-50.1.49-4.67,1.21-9.31,2.15-13.91.19-.94-1.25-1.35-1.45-.4h0Z"/>
  <path d="M49.02,311.86c.94,18.51,1.26,37.05.95,55.59-.02.97,1.48.97,1.5,0,.31-18.53,0-37.07-.95-55.59-.05-.96-1.55-.97-1.5,0h0Z"/>
  <path d="M50.11,372.92v9.39c0,.97,1.5.97,1.5,0v-9.39c0-.97-1.5-.97-1.5,0h0Z"/>
  <path d="M300.76,519.53c.35,18.96.71,37.91,1.06,56.87.02.96,1.52.97,1.5,0-.35-18.96-.71-37.91-1.06-56.87-.02-.96-1.52-.97-1.5,0h0Z"/>
  <path d="M71.33,259.38c-7.31,2.66-11.9,10.66-10.53,18.31.17.95,1.62.55,1.45-.4-1.21-6.8,3-14.1,9.49-16.47.9-.33.51-1.78-.4-1.45h0Z"/>
  <path d="M49.35,623.36c.15,18.45.31,36.91.46,55.36s.31,36.74.46,55.11c.09,10.39.17,20.78.26,31.17,0,.96,1.51.97,1.5,0-.15-18.45-.31-36.91-.46-55.36s-.31-36.74-.46-55.11c-.09-10.39-.17-20.78-.26-31.17,0-.96-1.51-.97-1.5,0h0Z"/>
  <path d="M52.38,954.92c.13,18.78.26,37.56.39,56.35,0,.96,1.51.97,1.5,0-.13-18.78-.26-37.56-.39-56.35,0-.96-1.51-.97-1.5,0h0Z"/>
  <path d="M300.51,504.4c.04,3.48.08,6.96.13,10.43.01.96,1.51.97,1.5,0-.04-3.48-.08-6.96-.13-10.43-.01-.96-1.51-.97-1.5,0h0Z"/>
  <path d="M140.59,228.98c16.61.43,33.22.44,49.83.68,4.65.07,9.31.15,13.96.27.97.03.97-1.47,0-1.5-16.61-.43-33.22-.44-49.83-.68-4.65-.07-9.31-.15-13.96-.27-.97-.03-.97,1.47,0,1.5h0Z"/>
  <path d="M86.55,57.48c11.33-16.7,27.76-28.98,46.12-37.02,3.27-1.43,6.6-2.72,9.96-3.94.9-.33.51-1.78-.4-1.45-16.29,5.9-31.67,14.25-44.18,26.39-4.78,4.63-9.05,9.76-12.79,15.27-.54.8.76,1.55,1.3.76h0Z"/>
  <path d="M83.04,59.98c-1.02,1.46-1.89,3.03-2.59,4.67-.15.36-.12.82.27,1.03.32.17.86.12,1.03-.27.7-1.64,1.57-3.21,2.59-4.67.23-.32.07-.85-.27-1.03-.38-.2-.79-.07-1.03.27h0Z"/>
  <path d="M270.42,80.73c6.11,18.27,7.86,37.92,4.42,56.91-3.25,17.94-11.04,35.01-22.7,49.05-6.66,8.02-14.51,14.99-23.23,20.71-.8.53-.05,1.83.76,1.3,15.64-10.25,28.43-24.52,36.81-41.24s12.31-35.62,11.51-54.34c-.47-11.15-2.59-22.2-6.13-32.78-.3-.91-1.75-.52-1.45.4h0Z"/>
  <path d="M42.56,1019.41c11.97-1.42,24.07-.43,36.08-.06,10.04.31,20.08.6,30.13.9,3.65.11,7.29.21,10.94.36.97.04.96-1.46,0-1.5-8.03-.32-16.06-.51-24.09-.75-8.44-.25-16.88-.46-25.32-.78-9.25-.35-18.51-.76-27.72.33-.95.11-.96,1.61,0,1.5h0Z"/>
  <path d="M175.55,249.3c-17.36-.27-34.73.24-52.04,1.64-12.13.98-24.25,2.36-36.23,4.49-3.93.7-7.86,1.47-11.72,2.5-.93.25-.54,1.7.4,1.45,8.25-2.2,16.79-3.46,25.24-4.58,14.45-1.92,29-3.05,43.55-3.63,10.26-.41,20.53-.52,30.8-.36.97.01.97-1.49,0-1.5h0Z"/>
  <path d="M299.63,446.23c.21,17.74.41,35.48.62,53.22.01.96,1.51.97,1.5,0-.21-17.74-.41-35.48-.62-53.22-.01-.96-1.51-.97-1.5,0h0Z"/>
  <path d="M327.58,762.04c.08,2.64.23,5.28.31,7.92.03.96,1.53.97,1.5,0-.08-2.64-.23-5.28-.31-7.92-.03-.96-1.53-.97-1.5,0h0Z"/>
  <path d="M323.12,765.63c.15,6.16-.31,12.32-.08,18.48.04.96,1.54.97,1.5,0-.23-6.16.23-12.32.08-18.48-.02-.96-1.52-.97-1.5,0h0Z"/>
  <path d="M198.74,277.94c10.45-.4,20.91-.18,31.35-.08s20.97.17,31.45.37c5.95.11,11.9.27,17.85.52.97.04.96-1.46,0-1.5-20.94-.87-41.93-.88-62.88-1.02-5.93-.04-11.85-.02-17.77.21-.96.04-.97,1.54,0,1.5h0Z"/>
  <path d="M68.6,278.2c5.29-.52,10.62-.69,15.92-.73,5.63-.05,11.31.02,16.91.72.96.12.95-1.38,0-1.5-5.59-.7-11.28-.77-16.91-.72-5.31.04-10.64.21-15.92.73-.95.09-.96,1.6,0,1.5h0Z"/>
  <path d="M241.37,255.91c7.49.85,14.96,1.89,22.4,3.13.94.16,1.35-1.29.4-1.45-7.57-1.26-15.17-2.32-22.8-3.18-.96-.11-.95,1.39,0,1.5h0Z"/>
  <path d="M302.42,790.31c.14,12,.28,24.01.43,36.01.01.96,1.51.97,1.5,0-.14-12-.28-24.01-.43-36.01-.01-.96-1.51-.97-1.5,0h0Z"/>
  <path d="M136.8,331.81c.97,0,.97-1.5,0-1.5s-.97,1.5,0,1.5h0Z"/>
  <path d="M88.92,347.84c.97,0,.97-1.5,0-1.5s-.97,1.5,0,1.5h0Z"/>
</svg>