<?xml version="1.0" encoding="UTF-8"?>
<svg id="Layer_1" data-name="Layer 1" xmlns="http://www.w3.org/2000/svg" viewBox="0 0 128.01 197.7">
  <path d="M58.47,194.74c-10.5-1.72-20.92-4.97-30.16-10.3-4.48-2.58-8.66-5.67-12.18-9.47-3.76-4.06-6.79-8.85-9.02-13.92-4.42-10.03-5.48-21.46-2.19-31.97,3.1-9.92,9.04-18.64,13.88-27.75,5.17-9.71,9.36-20.5,6.24-31.57l-2.74,1.16c6.95,11.34,15.19,21.87,24.55,31.32,1,1.01,3.04,0,2.51-1.46-5.33-14.52-5.49-30.45-1.4-45.3,4.08-14.8,12.25-28.51,23.61-38.88,6.37-5.81,13.78-10.51,21.83-13.62l-1.85-1.85c-6.72,22.93-13.68,47.8-5.6,71.34,1.99,5.81,4.87,11.21,8.67,16.04.48.6,1.64.56,2.12,0,9.02-10.61,12.45-25.38,8.91-38.87l-2.74,1.16c14.22,22.09,23.77,48.38,21.88,74.95-.84,11.85-4.12,23.36-10.05,33.67-5.52,9.59-13.09,18.09-22.21,24.39-10.13,7-22.08,11.12-34.45,10.87-1.93-.04-1.93,2.96,0,3,23.31.47,44.32-13.76,56.8-32.76,6.6-10.05,10.71-21.41,12.31-33.32,1.81-13.44.57-27.14-2.83-40.23-3.88-14.94-10.51-29.13-18.85-42.09-.91-1.41-3.18-.53-2.74,1.16,3.26,12.4.18,26.17-8.14,35.95h2.12c-14.24-18.07-12.88-42.86-7.9-63.99,1.62-6.89,3.61-13.68,5.6-20.47.3-1.02-.76-2.27-1.85-1.85-14.99,5.8-27.54,16.57-36.36,29.93s-13.9,29.2-14.16,45.19c-.14,8.96,1.29,17.96,4.38,26.38l2.51-1.46c-9.18-9.28-17.26-19.58-24.08-30.71-.88-1.43-3.21-.51-2.74,1.16,2.78,9.87-.87,19.55-5.42,28.27-4.9,9.4-10.97,18.29-14.37,28.4-3.58,10.66-2.98,22.31,1.08,32.75,4,10.28,10.87,18.96,20.09,25.03,10.16,6.69,22.19,10.66,34.14,12.61,1.89.31,2.7-2.58.8-2.89h0Z" style="fill: #010101;"/>
  <path d="M62.41,98.28c5.97,12.2,4.24,26.8-3.7,37.67-4.12,5.64-9.22,10.73-11.31,17.57-1.89,6.19-.89,13.08,4.48,17.19s12.66,4.15,19.05,2.52c3.5-.89,6.97-2.13,10.27-3.59,3.08-1.36,6-3.19,8.21-5.76,3.8-4.42,5.46-10.28,5.43-16.04-.04-6.43-2.23-12.54-5.48-18.02-7.98-13.51-22.04-23.19-27.18-38.42-.61-1.82-3.51-1.04-2.89.8,4.4,13.04,15.02,22.11,23.14,32.75,3.91,5.13,7.42,10.85,8.79,17.22,1.15,5.32.83,11.26-1.68,16.16-3.04,5.95-8.86,8.55-14.89,10.63s-13.39,3.77-19.45.36c-2.5-1.41-4.45-3.6-5.25-6.39-.9-3.09-.43-6.4.6-9.4,2.2-6.38,7.3-11.22,11.14-16.61,8.31-11.65,9.6-27.31,3.31-40.16-.85-1.73-3.44-.22-2.59,1.51h0Z" style="fill: #010101;"/>
</svg>