<?xml version="1.0" encoding="UTF-8"?>
<svg id="Layer_1" data-name="Layer 1" xmlns="http://www.w3.org/2000/svg" viewBox="0 0 462.88 247.23">
  <path d="M.05,63.76c1.94,20.81,6.34,41.4,13.52,61.04,7.15,19.54,17.01,38.12,29.7,54.63,11.73,15.26,25.85,28.64,41.8,39.42,15.86,10.72,33.59,18.82,52.22,23.29,10.92,2.62,22.1,3.85,33.3,4.46,11.45.62,22.94.79,34.41.47,22.61-.62,45.3-3.3,67.07-9.55,18.96-5.45,37.14-13.7,53.26-25.13,15.23-10.8,28.61-24.36,38.29-40.39,11.32-18.76,16.54-40.27,20.19-61.66,3.93-23.03,2.93-46.34,2.39-69.58-.13-5.75-.22-11.5-.2-17.25,0-1.93-2.99-1.93-3,0-.09,22.88,1.79,45.81.04,68.67-.87,11.34-2.82,22.57-5.28,33.67-2.39,10.79-5.47,21.51-9.96,31.63-7.62,17.16-19.39,32.1-33.63,44.26-14.1,12.04-30.53,21.38-47.86,27.91-20.75,7.82-42.74,11.89-64.8,13.57-11.14.85-22.33,1.1-33.5.95s-23.3-.59-34.83-2.13c-19.16-2.55-37.65-8.89-54.5-18.33-16.57-9.27-31.5-21.37-44.2-35.48-13.46-14.95-24.27-32.19-32.47-50.54-8.38-18.76-14-38.75-17.14-59.04-.76-4.94-1.36-9.91-1.83-14.89-.18-1.91-3.18-1.92-3,0H.05Z" style="fill: #010101;"/>
  <path d="M386.58,68.49c2.32-4.82,6.06-8.77,10.19-12.1,4.75-3.82,10.22-6.87,15.87-9.11,11.18-4.43,24.62-6.32,35.89-1.03,5.93,2.79,10.04,7.74,11.09,14.28s-.91,13.19-4.34,18.71c-3.76,6.06-9.13,10.95-14.57,15.48-5.93,4.93-12.11,9.54-18.48,13.89-12.87,8.79-26.43,16.51-40.27,23.64-1.75.9-3.5,1.79-5.25,2.67s-.21,3.45,1.51,2.59c14.65-7.35,29.03-15.3,42.68-24.38,6.81-4.53,13.42-9.35,19.77-14.5,5.79-4.7,11.49-9.66,15.83-15.79,4.06-5.74,6.64-12.61,6.37-19.72-.26-6.83-3.25-13.04-8.81-17.1s-12.48-5.54-19.07-5.89-12.64.78-18.61,2.66c-11.58,3.65-23.55,10.5-30.43,20.79-.73,1.09-1.37,2.22-1.94,3.4-.83,1.73,1.75,3.26,2.59,1.51h0Z" style="fill: #010101;"/>
  <path d="M386.58,85.32c2.57-3.75,5.31-7.32,8.53-10.52,3.48-3.46,7.07-6.87,11.11-9.68s8.67-5.32,13.53-6.19c3.98-.71,8.28-.36,12.2.58,3.47.83,7.69,2.29,9.47,5.66,2.67,5.06-.98,10.01-3.62,14.12-1.52,2.37-3.06,4.76-4.97,6.85s-4.09,3.96-6.28,5.75c-4.29,3.51-8.95,6.55-13.77,9.26-10.49,5.9-21.74,10.21-32.69,15.15-1.76.79-.23,3.38,1.51,2.59,10.45-4.72,21.18-8.85,31.26-14.36,5.07-2.77,9.94-5.89,14.49-9.47,2.45-1.93,4.85-3.97,7.03-6.21,2.05-2.1,3.73-4.53,5.32-6.98s3.39-4.78,4.47-7.44c1.03-2.52,1.4-5.32.85-8-.95-4.55-4.72-7.19-8.81-8.75s-8.94-2.24-13.43-2.05c-5,.21-9.67,1.97-14.02,4.38-5.46,3.02-10.1,7.18-14.56,11.49-3.88,3.74-7.17,7.87-10.22,12.31-1.1,1.6,1.5,3.1,2.59,1.51h0Z" style="fill: #010101;"/>
  <path d="M1.15,65.21c24.03,8.04,49,12.96,74.19,15.5s50.45,2.7,75.66,1.53c25.51-1.18,50.93-3.73,76.29-6.7,12.78-1.5,25.56-3.05,38.32-4.71,12.76-1.66,25.49-3.74,37.67-8.06s23.66-10.21,35.23-15.82c12.2-5.92,24.41-11.83,36.61-17.75,2.98-1.44,5.95-2.89,8.93-4.33,1.74-.84.22-3.43-1.51-2.59-12.05,5.84-24.11,11.69-36.16,17.53s-23.49,11.77-35.58,16.84c-5.86,2.46-11.85,4.6-18,6.23s-12.52,2.82-18.86,3.79c-12.7,1.94-25.49,3.34-38.24,4.88-25.2,3.04-50.46,5.75-75.81,7.24-25.08,1.47-50.27,1.72-75.33-.24-24.94-1.95-49.72-6.16-73.69-13.38-2.99-.9-5.96-1.85-8.91-2.84-1.84-.61-2.62,2.28-.8,2.89h0Z" style="fill: #010101;"/>
  <path d="M384.9,22.07c-24.98-7.45-50.51-13.01-76.31-16.67S256.72-.09,230.66,0c-26.07.09-52.14,2.09-77.92,6s-51.21,9.76-76.04,17.62c-12.33,3.9-24.49,8.3-36.46,13.21-5.93,2.43-11.8,4.98-17.62,7.65-2.9,1.33-5.79,2.64-8.44,4.44s-5.27,3.98-7.64,6.27c-2.2,2.13-4.26,4.4-6.19,6.79-1.2,1.49.91,3.62,2.12,2.12,3.98-4.94,8.57-9.59,13.91-13.05,2.68-1.74,5.62-3.01,8.52-4.33s5.72-2.58,8.6-3.82c11.81-5.1,23.84-9.68,36.03-13.78,24.47-8.22,49.6-14.46,75.04-18.78,25.5-4.33,51.33-6.71,77.2-7.23,25.86-.52,51.76.83,77.43,4.04s50.99,8.28,75.85,15.21c3.02.84,6.04,1.71,9.04,2.61,1.85.55,2.65-2.34.8-2.89h0Z" style="fill: #010101;"/>
  <path d="M335.6,44.77c-17.13-2.4-34.38-3.89-51.67-4.49s-34.86-.3-52.24.84-34.83,3.16-52.08,6-34.44,6.53-51.36,11.08c-16.68,4.48-33.14,9.78-49.27,15.95-1.99.76-3.98,1.54-5.96,2.32-1.77.7-1,3.61.8,2.89,15.96-6.33,32.24-11.82,48.76-16.49s33.64-8.59,50.72-11.64c17.17-3.06,34.48-5.28,51.87-6.64,17.24-1.35,34.54-1.86,51.83-1.5s34.36,1.58,51.42,3.72c2.13.27,4.25.55,6.38.85.81.11,1.6-.2,1.85-1.05.2-.7-.25-1.73-1.05-1.85h0Z" style="fill: #010101;"/>
</svg>