<?xml version="1.0" encoding="UTF-8"?>
<svg id="Layer_1" data-name="Layer 1" xmlns="http://www.w3.org/2000/svg" viewBox="0 0 161.17 191.27">
  <path d="M6.41,167.34C1.98,172.59-.35,179.33.04,186.21c.05.85.65,1.45,1.5,1.5,22.73,1.39,45.47,2.37,68.23,2.95,22.76.58,45.53.75,68.3.51,2.82-.03,5.65-.07,8.47-.11,2.6-.04,5.31.13,7.88-.34,3.41-.62,5.86-3.3,6.51-6.66s-.07-6.82-1.98-9.53c-2.4-3.41-6.52-5.2-10.5-5.98-4.75-.93-9.65-.77-14.47-.81-5.65-.05-11.29-.1-16.94-.15-11.29-.1-22.59-.2-33.88-.3-22.75-.2-45.5-.41-68.26-.61-2.82-.03-5.65-.05-8.47-.08-1.93-.02-1.93,2.98,0,3,21.92.2,43.84.39,65.76.59,22,.2,44.01.39,66.01.59,6.95.06,17.65.25,19.68,8.69.62,2.55.3,5.94-2.06,7.54-1.8,1.22-4.24.98-6.31,1.01-2.74.05-5.48.08-8.23.12-21.93.27-43.87.15-65.8-.34-21.93-.49-43.85-1.36-65.75-2.6-2.74-.16-5.47-.32-8.21-.48l1.5,1.5c-.35-6.06,1.56-12.1,5.49-16.75,1.24-1.47-.87-3.6-2.12-2.12h0Z"/>
  <path d="M50.32,176.48c.25-14.84.49-29.68.74-44.52.03-1.93-2.97-1.93-3,0-.25,14.84-.49,29.68-.74,44.52-.03,1.93,2.97,1.93,3,0h0Z"/>
  <path d="M115.37,177.27c-1.57-14.78-2.13-29.65-1.66-44.51.06-1.93-2.94-1.93-3,0-.47,14.86.09,29.73,1.66,44.51.2,1.9,3.2,1.92,3,0h0Z"/>
  <path d="M90.39.82c-14.48-1.76-29.87-.75-43.8,3.74-6.95,2.24-13.72,5.58-19.33,10.3-3.09,2.6-5.88,5.74-8.58,8.74-2.35,2.62-4.47,5.39-6.19,8.46-3.32,5.91-5.9,12.45-7.45,19.05-.75,3.19-.97,6.36-1.15,9.62-.2,3.85-.35,7.7-.31,11.55.14,15.02,3.67,30.84,14.52,41.89,1.4,1.42,2.85,2.79,4.28,4.18,1.35,1.31,2.57,2.76,3.94,4.04,2.79,2.6,6.47,4,9.67,6,3.5,2.18,7.47,3.51,11.43,4.6,4.3,1.19,8.68,2.08,13.1,2.71,8.69,1.25,17.47,1.55,26.23,1.18,8.01-.34,16.12-1.03,23.95-2.79,7.23-1.62,14.28-4.37,20.09-9.07s10.46-10.71,14.17-17.03c1.84-3.13,3.45-6.4,4.89-9.73s2.99-7.03,4.04-10.66c2.23-7.71,2.24-16.15,1.37-24.08-.79-7.28-2.18-14.57-4.56-21.51s-5.5-13.75-10.59-18.97c-4.81-4.93-10.29-9.27-16.38-12.48-6.76-3.55-13.97-6.08-21.43-7.7-3.82-.83-7.67-1.45-11.54-1.98-.81-.11-1.6.2-1.85,1.05-.2.7.25,1.74,1.05,1.85,14.26,1.94,29.05,5.59,40.55,14.7,2.58,2.04,5.07,4.22,7.37,6.57s4.14,5.08,5.71,7.98c3.31,6.13,5.47,12.84,6.92,19.63,1.54,7.24,2.48,14.67,2.2,22.08-.16,4.13-.59,8.29-1.77,12.26-1.04,3.5-2.45,6.94-3.91,10.28-5.55,12.66-14.22,25.36-27.38,30.89-6.68,2.81-13.96,4.07-21.13,4.82-8.36.88-16.8,1.27-25.21.9s-16.76-1.52-24.87-3.74c-3.88-1.06-7.71-2.32-11.12-4.48-3.08-1.94-6.75-3.22-9.33-5.85s-5.31-5.25-7.92-7.92-4.79-5.8-6.61-9.15c-3.48-6.38-5.5-13.46-6.32-20.67s-.62-14.52-.23-21.77c.16-3.03.41-5.94,1.13-8.89.78-3.2,1.84-6.34,3.05-9.4s2.6-6.05,4.23-8.89c1.73-3.02,3.87-5.69,6.23-8.24,2.63-2.86,5.29-5.88,8.32-8.33,2.87-2.32,6.14-4.26,9.44-5.89,12.49-6.16,27.28-7.92,41.06-7.58,3.34.08,6.67.32,9.99.72,1.91.23,1.9-2.77,0-3h0Z"/>
  <path d="M77.52,67.88c-2.45.25-5.03,1.8-5.61,4.37-.53,2.31.6,4.65,2.5,5.97,2.08,1.43,4.89,1.26,7.11.29.53-.23,1.08-.51,1.46-.96.53-.62.7-1.32.79-2.11.14-1.25.2-2.49-.03-3.74-.25-1.4-1.04-2.61-2.21-3.41s-2.64-.89-3.94-.31c-.72.32-.94,1.42-.54,2.05.48.74,1.28.88,2.05.54-.29.13-.1.04-.03.03.36-.08-.23-.03,0-.02.07,0,.15,0,.23,0,.12,0,.32.08,0,0,.15.04.3.08.45.13-.29-.1-.1-.04-.04,0,.1.06.21.12.31.19.23.15.03.02-.01-.01.06.06.12.11.18.16.07.07.14.15.21.22.15.15-.12-.2-.01-.01.09.16.19.3.27.47-.03-.07-.07-.21.02.06.05.14.09.29.13.43.02.09.1.59.07.34.02.23.04.46.04.68,0,.46-.02.92-.05,1.38-.02.23-.04.46-.06.69,0,.06-.05.28,0,.02-.02.09-.04.18-.06.27.05-.25.06,0-.02.02l.06-.09c-.11.1-.13.12-.06.05.14-.09-.1.05-.14.07-.12.07-.25.12-.37.19-.21.11.19-.06-.03.01-.11.04-.22.08-.33.12-.18.06-.36.11-.54.16s-.37.08-.56.11c.29-.05-.02,0-.09,0-.12.01-.23.02-.35.02-.21,0-.42,0-.63-.01-.04,0-.33-.03-.15,0,.22.03-.22-.04-.21-.04-.18-.04-.36-.09-.54-.14-.09-.03-.17-.06-.26-.09.28.1-.12-.07-.15-.08-.15-.08-.29-.17-.43-.26-.32-.2.13.14-.03-.02-.06-.06-.12-.11-.18-.16-.13-.13-.25-.26-.37-.4.04.04.17.24.01.01-.07-.1-.13-.2-.2-.31-.08-.14-.15-.28-.22-.43.15.31-.05-.16-.07-.26-.02-.08-.04-.15-.06-.23-.01-.05-.06-.3-.02-.09.04.24,0-.13,0-.15,0-.1,0-.2,0-.29s.04-.36-.02-.01c.02-.1.03-.19.06-.29s.06-.19.08-.28c.07-.25-.08.1.02-.05.06-.09.11-.21.17-.3.02-.03.23-.32.13-.19-.13.16.17-.18.16-.17.08-.08.16-.17.25-.24.05-.04.28-.24.07-.08.09-.07.19-.14.29-.2.2-.13.4-.23.61-.34.22-.12-.31.09.09-.03.11-.03.22-.07.33-.1s.23-.05.34-.08c.31-.09-.2,0,.15-.03.78-.08,1.54-.63,1.5-1.5-.03-.74-.66-1.59-1.5-1.5h0Z"/>
  <path d="M75.58,18.46c.45,12.74,1.48,25.46,1.45,38.21,0,4.27-.12,8.54-.28,12.8-.07,1.93,2.93,1.93,3,0,.49-12.86.03-25.61-.62-38.45-.21-4.18-.4-8.37-.55-12.56-.07-1.92-3.07-1.93-3,0h0Z"/>
  <path d="M83.92,71.79c14.81-11.57,28.95-24,42.3-37.24,3.79-3.76,7.51-7.58,11.18-11.46,1.32-1.4-.79-3.53-2.12-2.12-12.9,13.67-26.59,26.59-41.02,38.64-4.09,3.42-8.25,6.77-12.46,10.06-1.52,1.19.62,3.3,2.12,2.12h0Z"/>
  <path d="M24.8,21.04c11.74,13.57,23.78,26.87,36.14,39.88,3.49,3.67,7.01,7.33,10.55,10.95,1.35,1.38,3.47-.74,2.12-2.12-12.53-12.84-24.76-25.98-36.67-39.39-3.37-3.79-6.7-7.6-10.02-11.44-1.26-1.46-3.38.67-2.12,2.12h0Z"/>
  <path d="M83.36,75.54c17.87,1.18,35.8.5,53.66-.61,5.13-.32,10.26-.68,15.39-1.03,1.92-.13,1.93-3.13,0-3-17.86,1.24-35.74,2.48-53.65,2.24-5.13-.07-10.27-.26-15.39-.6-1.93-.13-1.92,2.87,0,3h0Z"/>
  <path d="M72.49,72.99c-3.51,1.67-7.87,1.15-11.64,1.15-4.48,0-8.95,0-13.43,0-8.79,0-17.57,0-26.36,0-5.06,0-10.11,0-15.17,0-1.93,0-1.93,3,0,3,18.24,0,36.47.01,54.71.02,4.48,0,9.24.42,13.4-1.56,1.74-.83.22-3.42-1.51-2.59h0Z"/>
  <path d="M72.09,76.75c-12.17,11.01-25.19,21.04-38.78,30.23-3.89,2.63-7.82,5.18-11.79,7.68-1.63,1.03-.13,3.62,1.51,2.59,14.04-8.83,27.59-18.44,40.37-29.02,3.67-3.04,7.28-6.16,10.81-9.36,1.43-1.3-.69-3.41-2.12-2.12h0Z"/>
  <path d="M81.82,79.1c15.04,8.5,29.51,17.99,43.28,28.43,3.95,3,7.84,6.08,11.68,9.23,1.48,1.22,3.61-.89,2.12-2.12-13.5-11.1-27.74-21.31-42.61-30.49-4.27-2.63-8.58-5.18-12.95-7.64-1.68-.95-3.2,1.64-1.51,2.59h0Z"/>
  <path d="M76.24,79.23c1.66,18.44,1.91,36.99.74,55.47-.12,1.93,2.88,1.92,3,0,1.17-18.48.92-37.03-.74-55.47-.17-1.91-3.17-1.93-3,0h0Z"/>
  <path d="M70.51,3.53c-.06.77-.03,1.54-.02,2.31,0,.72,0,1.42.17,2.12.39,1.63,1.64,2.71,3.28,2.93.7.09,1.4.05,2.1.02s1.43-.04,2.13-.1c.99-.09,1.82-.43,2.41-1.27.42-.61.6-1.43.75-2.14.38-1.79.4-3.56.14-5.36-.11-.78-1.14-1.28-1.85-1.05-.85.28-1.17,1.01-1.05,1.85-.04-.29.03.28.03.34.02.2.03.39.04.59.02.39.02.79,0,1.18,0,.2-.02.39-.04.59,0,.1-.02.2-.03.29.02-.15.02-.14,0,.04-.06.34-.12.68-.2,1.02-.08.35-.17.73-.31,1.07.07-.17.07-.18,0-.03.12-.14.13-.14.01-.02.07-.08.15-.12.25-.14-.08.03-.16.05-.23.06.33-.1,0,0-.09,0-.19.01-.39.02-.58.03-.41.02-.81.04-1.22.06-.38.02-.76.04-1.15.05-.15,0-.3,0-.46,0-.08,0-.54-.06-.18,0-.17-.03-.33-.07-.49-.12.16.08.17.08.02,0-.14-.09-.14-.09,0,.03-.09-.07-.33-.42-.14-.11-.04-.06-.31-.49-.11-.14-.07-.13-.1-.3-.14-.44-.01-.06-.1-.46-.03-.06-.06-.33-.03-.69-.03-1.02,0-.85-.05-1.7.02-2.55.06-.78-.73-1.53-1.5-1.5-.86.04-1.44.66-1.5,1.5h0Z"/>
  <path d="M79.7,8.64c-2.12.02-4.26.3-6.37.45-.94.06-1.9.17-2.85.14-1.55-.04-3.28.07-4.03,1.68-1,2.15,1.09,3.69,2.5,4.93s2.76,2.49,4.41,3.29c.82.4,1.66.68,2.57.78,1.04.12,1.9-.16,2.87-.46,1.68-.51,3.33-1.56,4.4-2.97.72-.96,1.15-2.14,1.66-3.22.47-1.02,1.52-2.49,1.24-3.67-.35-1.47-1.71-1.47-2.91-1.34-1.33.14-2.66.24-3.99.4-.8.1-1.5.62-1.5,1.5,0,.74.69,1.6,1.5,1.5.85-.1,1.7-.18,2.55-.26.42-.04.85-.08,1.27-.12.21-.02.43-.05.64-.07.37,0,.42-.03.16-.11l-.69-.9.07.2v-.8c-.1.68-.57,1.38-.86,2-.36.77-.7,1.55-1.08,2.31-.53,1.08-1.43,1.82-2.49,2.37-.89.45-2.03.83-3.01.58-1.16-.29-2.19-1.02-3.11-1.77-1.01-.83-2.03-1.69-2.98-2.58-.08-.08-.33-.46-.45-.49.04.01-.13.22-.07.25.04.02.5-.07.57-.07.21,0,.43.03.64.04,1.48.05,2.98-.14,4.45-.24,1.62-.12,3.27-.33,4.9-.34,1.93-.02,1.93-3.02,0-3h0Z"/>
</svg>