<?xml version="1.0" encoding="UTF-8"?>
<svg id="Layer_1" data-name="Layer 1" xmlns="http://www.w3.org/2000/svg" viewBox="0 0 156.79 136.51">
  <path d="M1.49,74.97c1.41,8.53,3.35,16.99,5.92,25.25,2.31,7.43,5.26,14.82,9.88,21.13,7.94,10.86,22.08,18.87,35.51,13.37,5.81-2.37,10.75-6.91,12.64-13.01,2.23-7.19-.14-14.73-3.78-21.02-3.85-6.65-9.18-12.5-14.55-17.96s-11.3-10.62-17.51-15.26c-3.11-2.33-6.31-4.53-9.59-6.61-1.58-1-3.18-1.97-4.79-2.91s-3.43-2.02-5.35-2.42c-3.4-.72-6.52.82-8.37,3.7-2,3.12-1.61,6.74-1.03,10.22.32,1.94.75,3.85,1.06,5.79s3.2,1.09,2.89-.8c-.56-3.46-1.83-7.2-1.43-10.74.31-2.69,2.46-5.56,5.4-5.37,1.65.11,3.15.99,4.55,1.78,1.62.93,3.23,1.89,4.81,2.88,3.05,1.91,6.03,3.92,8.93,6.04,5.7,4.17,11.1,8.75,16.15,13.69,5,4.88,9.92,10.09,13.9,15.85s7.12,12.06,6.49,18.94c-.55,5.93-4.39,10.77-9.55,13.51-11.65,6.19-24.8-.15-32.53-9.53-5.07-6.15-8.2-13.71-10.59-21.24-2.71-8.52-4.72-17.27-6.18-26.09-.31-1.9-3.21-1.09-2.89.8h0Z" style="fill: #010101;"/>
  <path d="M51.8,51.08c-.29,14.41-1.45,30.71,9.57,41.84,4.92,4.97,11.94,8.18,18.99,6.72s12.62-6.92,15.95-12.95c7.29-13.23,4.79-28.92-.8-42.25-3.11-7.4-6.91-14.61-10.96-21.54-1.97-3.36-4.14-6.62-6.72-9.53-2.43-2.75-5.38-5.31-8.95-6.4-7.63-2.32-13.48,4.25-14.98,11.11-.9,4.09-.87,8.37-1.07,12.54-.2,4.45-.41,8.89-.61,13.34-.1,2.22-.2,4.45-.31,6.67-.09,1.93,2.91,1.93,3,0,.38-8.22.74-16.44,1.13-24.67.17-3.68.35-7.63,2.06-10.98,1.3-2.55,3.54-4.91,6.48-5.4,3.42-.58,6.69,1.55,9.07,3.78,2.64,2.47,4.8,5.42,6.73,8.46,3.88,6.12,7.27,12.69,10.36,19.24,5.8,12.28,9.72,26.27,5.03,39.58-2.05,5.81-5.9,11.2-11.33,14.27-6.11,3.45-12.97,2.27-18.42-1.87-12.94-9.84-11.49-27.53-11.2-41.95.04-1.93-2.96-1.93-3,0h0Z" style="fill: #010101;"/>
  <path d="M104.43,58.52c.6,3.01.88,6.09,1.6,9.08.84,3.47,2.41,6.88,4.22,9.95,3.82,6.5,9.66,12.64,16.62,15.76,3.77,1.69,7.87,2.25,11.86.95,3.31-1.07,6.33-3.04,8.84-5.43,4.67-4.47,7.55-10.65,8.66-16.97,1.22-6.98.42-13.99-2.09-20.6-1.56-4.11-3.55-8.04-5.58-11.94s-4.23-7.98-6.49-11.89-4.56-7.61-7.06-11.27c-2.36-3.46-4.8-7-7.73-10.01-2.63-2.71-5.86-5.01-9.6-5.81s-7.47-.26-10.39,2.08-4.41,6.34-5.41,9.96c-1.15,4.16-1.74,8.47-1.89,12.78-.32,8.88,1.15,17.73,2.94,26.39.45,2.2.93,4.39,1.42,6.59.42,1.88,3.31,1.09,2.89-.8-1.77-8.05-3.53-16.14-4.1-24.38s-.11-16.08,2.83-23.45c1.3-3.25,3.55-5.95,7.18-6.45s6.86.89,9.56,2.98c2.96,2.3,5.25,5.37,7.43,8.39,2.37,3.28,4.59,6.66,6.71,10.1,4.3,7.02,8.27,14.29,11.85,21.7,3.05,6.31,5.29,12.86,5.1,19.94-.15,5.93-1.82,11.89-5.19,16.81s-9.84,9.93-16.36,8.89c-3.63-.57-6.94-2.57-9.8-4.81s-5.25-4.72-7.33-7.54-3.82-5.93-5.07-9.21c-1.08-2.83-1.61-5.71-2.08-8.7-.21-1.3-.4-2.6-.66-3.89-.38-1.89-3.27-1.09-2.89.8h0Z" style="fill: #010101;"/>
  <path d="M11.27,83.23c4.37,12.13,9.01,24.67,17.59,34.54,2.38,2.74,5.07,5.18,8.02,7.31,1.57,1.13,3.07-1.47,1.51-2.59-13.08-9.44-18.97-25.46-24.23-40.06-.65-1.8-3.55-1.03-2.89.8h0Z" style="fill: #010101;"/>
  <path d="M16.75,79.56c9.77,12.04,19.05,24.48,27.82,37.27,1.08,1.58,3.69.08,2.59-1.51-8.91-13-18.36-25.64-28.29-37.88-1.22-1.5-3.33.63-2.12,2.12h0Z" style="fill: #010101;"/>
  <path d="M22.57,76.04c11.92,10.27,22.21,22.31,30.48,35.69,1.01,1.64,3.61.14,2.59-1.51-8.39-13.59-18.84-25.87-30.95-36.3-1.46-1.25-3.59.86-2.12,2.12h0Z" style="fill: #010101;"/>
  <path d="M61.91,35.21c-1.28,18.08,2.44,36.34,10.58,52.53.87,1.72,3.46.21,2.59-1.51-7.91-15.73-11.41-33.46-10.17-51.01.14-1.93-2.86-1.92-3,0h0Z" style="fill: #010101;"/>
  <path d="M65.89,26.38c6.79,17.62,11.59,35.97,14.3,54.66.28,1.9,3.17,1.09,2.89-.8-2.71-18.69-7.51-37.04-14.3-54.66-.69-1.78-3.59-1.01-2.89.8h0Z" style="fill: #010101;"/>
  <path d="M71.5,25.24c7.25,14.03,12.11,29.2,14.43,44.81.28,1.9,3.17,1.09,2.89-.8-2.36-15.87-7.37-31.27-14.74-45.53-.89-1.72-3.48-.2-2.59,1.51h0Z" style="fill: #010101;"/>
  <path d="M107.85,25.57c-.26,16.11,3.48,32.35,11.03,46.61,1.91,3.6,4.29,7.07,7.9,9.13,1.68.96,3.19-1.63,1.51-2.59-2.99-1.71-4.93-4.56-6.54-7.53-1.81-3.32-3.36-6.79-4.71-10.33-2.73-7.16-4.62-14.67-5.53-22.27-.52-4.32-.73-8.67-.66-13.03.03-1.93-2.97-1.93-3,0h0Z" style="fill: #010101;"/>
  <path d="M115.38,21.26c6.88,17.81,14.08,35.5,21.6,53.05.76,1.77,3.34.24,2.59-1.51-7.42-17.31-14.52-34.76-21.3-52.33-.69-1.78-3.59-1.01-2.89.8h0Z" style="fill: #010101;"/>
  <path d="M120.04,18.12c9.32,11.02,16.24,24.03,20.21,37.91,1.14,3.99,2.03,8.04,2.69,12.13.3,1.9,3.2,1.09,2.89-.8-2.35-14.7-7.88-28.88-16.1-41.29-2.32-3.51-4.86-6.87-7.57-10.07-1.25-1.48-3.36.66-2.12,2.12h0Z" style="fill: #010101;"/>
</svg>