<?xml version="1.0" encoding="UTF-8"?>
<svg id="Layer_1" data-name="Layer 1" xmlns="http://www.w3.org/2000/svg" viewBox="0 0 153.36 265.63">
  <path d="M132.41,82c-19.84,6.67-39.69,13.06-60.36,16.64-20.67,3.58-41.57,5.67-62.28,8.98-1.95.31-3.91.59-5.86.93-.93.16-1.86.41-2.52,1.14-.75.83-.89,2.01-1.06,3.07-.31,2-.44,3.89-.23,5.9.22,2.17.61,4.32.77,6.51.19,2.62.37,5.24.56,7.87l1.12,15.77c1.51,21.37,3.03,42.74,4.54,64.11l1.13,15.9c.31,4.34.57,8.69,1.28,12.98,1.31,7.96,4.63,15.7,11.85,19.96,6.86,4.04,15.3,4.27,23.03,3.59,9.65-.84,19.27-2.64,28.81-4.3,10.35-1.8,20.67-3.82,30.94-6.04s20.17-4.38,30.07-7.2c4.18-1.19,8.32-2.79,11.63-5.69,2.91-2.55,4.86-6.02,5.98-9.69,2.5-8.17,1.41-17.08.8-25.45-1.34-18.54-3.18-37.04-5.74-55.45-2.51-18.07-5.7-36.04-9.2-53.95-.96-4.9-1.94-9.79-2.93-14.68-.38-1.89-3.28-1.09-2.89.8,3.67,18.07,7.16,36.18,10.02,54.4,2.73,17.37,4.85,34.82,6.41,52.33.83,9.27,1.78,18.61,2.02,27.92.19,7.38-.44,15.87-6.15,21.24-3.17,2.99-7.43,4.41-11.54,5.54-4.72,1.29-9.49,2.42-14.26,3.56-9.9,2.36-19.86,4.52-29.85,6.48s-20.02,3.72-30.09,5.28c-8.31,1.29-16.85,2.85-25.28,1.91-3.63-.4-7.26-1.4-10.41-3.29-3.34-2.01-5.85-4.98-7.53-8.47-3.64-7.56-3.59-16.58-4.17-24.77-1.47-20.71-2.94-41.41-4.4-62.12-.73-10.31-1.46-20.62-2.19-30.92-.18-2.54-.36-5.08-.54-7.62-.16-2.18-.54-4.33-.77-6.51-.19-1.87-.12-3.63.19-5.48.08-.47.22-.94.3-1.41.02-.12.09-.12-.03-.01.13-.12-.17.02.16-.11-.26.11.23-.06.33-.08.25-.05.51-.1.77-.15.75-.13,1.5-.22,2.25-.34,2.46-.39,4.92-.8,7.38-1.17,5.1-.78,10.21-1.48,15.32-2.17,10.11-1.36,20.23-2.69,30.33-4.18s20.05-3.15,29.92-5.53c9.84-2.37,19.52-5.32,29.14-8.45,4.7-1.53,9.38-3.1,14.06-4.68,1.82-.61,1.04-3.51-.8-2.89h0Z" style="fill: #010101;"/>
  <path d="M24.43,103.04c-2.19-14.45-1.78-29.31,1.12-43.63,1.45-7.15,3.51-14.18,6.16-20.97s5.6-12.98,9.55-18.78,8.66-10.57,14.75-13.64c5.74-2.9,12.51-4.02,18.74-2.07,13.35,4.18,18.91,18.83,21.76,31.18,1.97,8.57,3.6,17.2,5.63,25.76,2.08,8.75,4.37,17.46,6.84,26.11.53,1.85,3.43,1.06,2.89-.8-4.59-16.02-8.27-32.21-11.74-48.5-2.84-13.36-7.61-28.48-20.78-35.09-13.07-6.56-27.92.07-36.79,10.42-4.66,5.44-8.14,11.78-11.08,18.28-3.15,6.97-5.68,14.22-7.54,21.64-3.68,14.71-4.8,30.09-3.15,45.17.21,1.91.46,3.81.75,5.71s3.18,1.09,2.89-.8h0Z" style="fill: #010101;"/>
  <path d="M32.41,103.64c-2.91-13.88-.89-28.15,2.48-41.75,2.74-11.05,5.83-22.6,11.94-32.34,2.81-4.47,6.38-8.52,10.88-11.34,2.49-1.56,5.4-3.06,8.4-3.07,3.2,0,5.83,2.06,8.07,4.13,8.42,7.74,12.61,18.76,15.47,29.57,1.85,7.02,3.26,14.16,4.71,21.27,1.64,8.05,3.2,16.12,4.68,24.21.35,1.9,3.24,1.09,2.89-.8-2.64-14.43-5.27-28.95-8.81-43.2-2.85-11.47-6.98-23.26-15.45-31.85-2.15-2.18-4.57-4.34-7.43-5.51-3.17-1.3-6.55-.87-9.67.39-5.24,2.13-9.74,5.88-13.23,10.28-7.29,9.2-10.84,20.76-13.9,31.92-4.34,15.85-7.35,32.55-3.93,48.88.4,1.89,3.29,1.09,2.89-.8h0Z" style="fill: #010101;"/>
</svg>