<?xml version="1.0" encoding="UTF-8"?>
<svg id="Layer_1" data-name="Layer 1" xmlns="http://www.w3.org/2000/svg" viewBox="0 0 194.31 123.2">
  <path d="M67.56,13.44c-3.01,13.22-4.95,27.29-1.11,40.55,3.23,11.14,10.52,21.33,21.61,25.6,10.68,4.11,23.19,1.89,30.54-7.24,8.33-10.33,8.44-24.05,6.34-36.54-2.15-12.75-6.46-29.53-21.21-32.66-1.88-.4-2.69,2.49-.8,2.89,11.89,2.52,16.12,15.42,18.24,25.86,2.39,11.78,3.73,24.92-2.84,35.66-2.7,4.42-6.7,8.05-11.64,9.77s-10.18,1.64-15.12.26c-10.49-2.93-17.85-11.76-21.38-21.77-4.75-13.46-2.83-27.99.26-41.59.43-1.88-2.46-2.68-2.89-.8h0Z" style="fill: #010101;"/>
  <path d="M70.05,13.51c5.3,2.38,11.15,3.37,16.94,2.71,5.19-.6,11.36-2.31,14.88-6.46,1.56-1.84,3.14-4.84.66-6.64-1.83-1.32-4.36-2.06-6.54-2.53-4.61-.99-9.48-.72-13.97.74-5.08,1.65-9.52,4.72-12.75,8.97-1.17,1.54,1.44,3.03,2.59,1.51,4.7-6.18,12.72-9.29,20.36-8.75,1.91.13,3.79.53,5.6,1.15.85.29,1.68.63,2.48,1.05.47.25.63.24.46.78s-.63,1.15-1,1.6c-2.78,3.43-7.92,4.87-12.1,5.49-5.41.8-11.09.03-16.08-2.21-1.75-.78-3.27,1.8-1.51,2.59h0Z" style="fill: #010101;"/>
  <path d="M142.72,16.76c-11.08,9.09-14.48,24.12-12.66,37.81.93,6.98,2.91,13.97,6.11,20.26,2.75,5.41,6.64,10.44,11.91,13.6,10.9,6.54,24.9,2.73,33.59-5.75,9.7-9.47,12.74-23.92,12.63-37.01-.07-7.9-1.35-16.24-5.77-22.96-3.85-5.86-9.8-10.21-16.85-11.08-1.91-.23-1.89,2.77,0,3,5.65.69,10.64,4.39,13.84,8.97,3.78,5.41,5.28,12.05,5.66,18.55.73,12.22-1.28,25.8-9.12,35.63-6.75,8.47-18.97,13.75-29.51,9.55-11.23-4.47-16.39-17.58-18.73-28.51-3.03-14.14-.73-30.31,11.01-39.94,1.49-1.23-.64-3.34-2.12-2.12h0Z" style="fill: #010101;"/>
  <path d="M141.98,19.19c5.07,4.84,12.28,4.93,18.79,3.8,5.07-.88,11.71-2.28,13.37-7.96.54-1.86-2.35-2.65-2.89-.8-1.29,4.39-7.49,5.21-11.27,5.86-5.39.93-11.64,1.01-15.87-3.03-1.4-1.33-3.52.79-2.12,2.12h0Z" style="fill: #010101;"/>
  <path d="M145.58,19.29c2.7-4.04,7.2-6.67,11.98-7.36,2.31-.33,4.69-.17,6.93.49,2.98.88,5.66,2.17,8.84,1.63,1.9-.33,1.09-3.22-.8-2.89-3.04.52-6.05-1.5-8.97-2.04-2.61-.48-5.26-.43-7.85.11-5.17,1.07-9.79,4.17-12.73,8.55-1.08,1.61,1.52,3.11,2.59,1.51h0Z" style="fill: #010101;"/>
  <path d="M.33,75.18c2.01,11.97,7.96,23.15,16.49,31.75,8.92,8.99,21.28,15.79,34.13,16.25,6.48.23,13.01-1.42,18.24-5.33,4.71-3.52,8.21-8.58,9.04-14.48.99-7.03-.91-14.66-3.31-21.24s-5.88-12.97-9.97-18.78c-4.42-6.27-9.69-12.09-16.55-15.73s-14.55-5.09-22.15-4.21c-1.9.22-1.92,3.22,0,3,6.37-.74,12.92.19,18.76,2.87s10.69,7.04,14.72,12.07c8.14,10.15,14.6,22.96,15.63,36.09.47,6.08-1.15,11.59-5.54,15.93-4.11,4.06-9.63,6.32-15.36,6.74-12.24.9-24.53-5.18-33.39-13.26-9.34-8.51-15.77-20-17.86-32.48-.32-1.9-3.21-1.09-2.89.8H.33Z" style="fill: #010101;"/>
  <path d="M.98,73.94c2.64,2.85,6.95,2.81,10.38,1.6s6.68-3.47,9.14-6.3c5.71-6.57,7.37-15.45,6.64-23.93-.16-1.91-3.17-1.93-3,0,.63,7.27-.45,15.03-5.05,20.94-1.98,2.54-4.54,4.69-7.51,5.99-2.61,1.14-6.31,1.92-8.48-.43-1.32-1.42-3.43.71-2.12,2.12h0Z" style="fill: #010101;"/>
  <path d="M3,72.01c-.05-6.04,3.58-11.08,7.62-15.24,2.11-2.18,4.39-4.22,6.71-6.18s5.02-3.94,8.18-4.16c1.91-.14,1.93-3.14,0-3-3.6.25-6.58,2.05-9.34,4.26s-5.27,4.5-7.66,6.96C3.9,59.38-.05,65.16,0,72.01c.02,1.93,3.02,1.93,3,0h0Z" style="fill: #010101;"/>
</svg>