<?xml version="1.0" encoding="UTF-8"?>
<svg id="Layer_1" data-name="Layer 1" xmlns="http://www.w3.org/2000/svg" viewBox="0 0 518.74 408.26">
  <path d="M32.46,312.5c.07,8.98-.33,18.85,4.04,27.01,1.99,3.72,4.81,6.96,7.69,10.01,4.32,4.57,8.88,8.96,13.53,13.19,9.06,8.27,19.35,15.77,31.77,17.65,3.44.52,6.85.53,10.32.56,3.81.03,7.63.13,11.44.32,7.5.39,14.99,1.17,22.37,2.63s14.39,3.55,21.25,6.38,13.36,5.25,20.2,7.43c12.66,4.05,25.65,7.03,38.83,8.79,24.32,3.24,49.1,2.09,73.01-3.46,23.01-5.34,45-14.66,65.3-26.68,20.88-12.36,40.03-27.55,57.49-44.36,8.86-8.53,17.29-17.5,25.32-26.81,5.6-6.5,10.77-13.2,15.71-20.22,11.72-16.66,22.78-33.79,34.82-50.22,2.16-2.95,4.35-5.88,6.69-8.69,2.56-3.08,5.16-6.05,7.37-9.4,6.07-9.2,10.71-19.56,13.78-30.13,2.66-9.15,4.84-20.05,1.25-29.26-3.04-7.8-5.42-15.83-9.1-23.37-2.66-5.44-5.76-10.66-8.93-15.82-1.01-1.64-3.61-.14-2.59,1.51,5.3,8.61,10.12,17.34,13.51,26.88,1.44,4.05,2.91,8.09,4.42,12.12s1.67,8.57,1.34,12.89c-.85,10.84-4.69,21.59-9.36,31.33-2.25,4.69-4.78,9.26-7.72,13.54-2.07,3.01-4.52,5.65-6.82,8.48-5.46,6.71-10.4,13.84-15.33,20.93-6.01,8.64-11.9,17.36-17.85,26.04-4.92,7.18-9.82,14.41-15.09,21.34-6.41,8.44-13.7,16.36-20.98,24.06-16.48,17.42-34.54,33.41-54.35,46.95-19.28,13.18-40.22,24.02-62.46,31.22-22.59,7.31-46.31,10.72-70.05,9.8-26.42-1.02-52.39-7.4-76.78-17.45-13.73-5.66-28.19-8.39-42.97-9.32-3.64-.23-7.29-.36-10.94-.42s-7.2.08-10.77-.29c-6-.64-11.76-2.71-16.98-5.69s-10.14-6.98-14.69-11.11-9.1-8.51-13.39-13c-2.87-3.01-5.68-6.17-7.65-9.86-1.68-3.14-2.56-6.62-2.98-10.14-.61-5.08-.6-10.24-.64-15.35-.02-1.93-3.02-1.93-3,0h0Z" style="fill: #010101;"/>
  <path d="M.7,295.43c17.71,11.24,36.98,20.04,57.09,26.02s42.56,9.33,64.24,11.21c21.93,1.9,43.95,2.54,65.92,3.88,22.53,1.37,44.99,3.72,67.29,7.22,11.2,1.76,22.35,3.78,33.45,6.08.71.15,1.18.28,1.87,0,.5-.2.99-.55,1.46-.81,1.09-.61,2.18-1.24,3.27-1.87,2.05-1.19,4.07-2.41,6.08-3.66,4.13-2.57,8.18-5.25,12.16-8.05,15.81-11.12,30.39-23.91,43.93-37.69,13.71-13.96,26.38-28.92,38.4-44.35,12.44-15.96,24.18-32.44,35.82-48.98,12.01-17.06,23.92-34.2,36.39-50.92s25.47-32.97,39.63-48.24c3.46-3.73,6.99-7.4,10.59-11,.54-.54.62-1.6,0-2.12-15.79-13.32-33.84-23.58-52.8-31.68-19.07-8.15-38.94-14.24-58.93-19.66-22.39-6.07-44.93-11.61-67.4-17.35-23.79-6.07-47.56-12.26-71.38-18.21-20.78-5.2-43.74-9.38-63.34,1.92-16.34,9.42-26.79,26.2-36.16,42-11.69,19.71-23.53,39.32-35.81,58.68-12.47,19.66-25.29,39.1-38.44,58.3-13.07,19.08-26.47,37.92-40.2,56.53s-28.01,37.26-42.51,55.51c-3.5,4.4-7.02,8.79-10.55,13.17-1.2,1.49.91,3.62,2.12,2.12,14.47-17.9,28.63-36.05,42.47-54.44s27.39-37.07,40.59-55.96c13.2-18.89,26.08-38.01,38.61-57.35s24.73-38.9,36.58-58.66c5.3-8.84,10.38-17.83,15.92-26.52,5-7.83,10.47-15.44,17.19-21.89s15-11.66,24.26-14.02c10.73-2.74,22.03-1.92,32.81.03,11.42,2.06,22.64,5.24,33.88,8.11,11.92,3.04,23.84,6.09,35.76,9.13,23.11,5.9,46.24,11.75,69.33,17.71,20.1,5.19,40.18,10.67,59.67,17.88s37.64,15.87,54.32,27.61c4.09,2.88,8.06,5.93,11.89,9.16v-2.12c-16.39,16.4-31.23,34.24-45.27,52.66s-27.39,37.61-40.76,56.63c-12.89,18.32-25.86,36.59-39.77,54.16-13.44,16.96-27.71,33.31-43.36,48.28-15.57,14.89-32.53,28.39-51.06,39.42-2.28,1.36-4.58,2.67-6.9,3.95l1.16-.15c-19.45-4.04-39.07-7.26-58.8-9.65-19.55-2.37-39.17-3.75-58.83-4.75-19.22-.98-38.46-1.77-57.61-3.69s-38.17-5.01-56.61-10.51c-17.63-5.26-34.58-12.71-50.39-22.11-1.94-1.15-3.86-2.34-5.77-3.55-1.63-1.04-3.14,1.56-1.51,2.59h0Z" style="fill: #010101;"/>
  <path d="M104.72,253.6c-5.6-.34-11.37,1.44-15.78,4.91-4.66,3.66-6.84,9.38-7.8,15.09-1.08,6.4-.45,13.03,2.28,18.96,2.41,5.22,6.6,9.62,11.65,12.37s11.1,3.79,16.88,2.53c6.54-1.42,12.29-5.29,17.64-9.14,5.01-3.61,9.89-7.86,11.45-14.1s-.08-13.02-3.79-18.19-9.99-10.04-16.42-11.85c-3.1-.87-6.38-1.12-9.59-1.04-2.38.05-4.73.38-7.1.46-1.93.07-1.93,3.07,0,3,4.3-.15,8.51-.8,12.81-.18,5.51.8,10.59,3.78,14.59,7.59s6.91,9.03,7.09,14.73c.19,6.02-2.82,10.72-7.3,14.48-2.23,1.87-4.65,3.54-7.07,5.15s-5.09,3.24-7.84,4.45c-5.16,2.27-10.71,2.89-16.11,1.11-10.67-3.52-16.86-14.06-16.67-24.99.06-3.27.63-6.5,1.66-9.61.91-2.76,2.1-5.31,4.21-7.36,3.97-3.87,9.75-5.73,15.23-5.39,1.93.12,1.92-2.88,0-3h0Z" style="fill: #010101;"/>
  <path d="M223.77,87.49c-7.78-2.45-15.36,2.9-18.46,9.85-2.84,6.37-4.1,15.59,1.82,20.65,4.57,3.91,11.42,4.49,16.98,2.59,6.62-2.26,12.13-8.43,12.94-15.47.97-8.41-5.78-15.16-13.28-17.62-1.84-.6-2.63,2.29-.8,2.89,5.37,1.76,10.79,6.3,11.15,12.32s-3.99,11.82-9.33,14.39c-4.24,2.03-9.83,2.18-13.98-.16-5.66-3.19-5.47-10.02-3.82-15.56,1.03-3.46,2.9-6.85,5.86-9.03s6.63-3.06,10.12-1.96c1.85.58,2.64-2.31.8-2.89h0Z" style="fill: #010101;"/>
  <path d="M245.07,61.33c-3.84.73-6.89,4.21-7.42,8.03s1.79,7.4,5.47,8.8c3.02,1.15,7.33.59,9.08-2.43,1.45-2.48,1.09-5.9.23-8.51s-3.07-6.41-6.48-5.97c-.8.1-1.5.62-1.5,1.5,0,.73.69,1.6,1.5,1.5.22-.03.44-.01.66-.02.07,0-.29-.08,0,0,.12.04.25.08.38.11.06.02-.23-.14.01.01.1.06.21.11.31.18.09.06.17.12.26.18-.27-.2.02.03.11.12.17.16.32.33.47.5.05.06.1.12.15.18-.01-.01-.15-.2-.05-.06.08.12.17.23.24.36.15.23.29.47.42.71.06.12.12.23.18.35.04.07.21.47.17.37-.05-.12.08.2.1.26.06.15.11.3.16.45.1.31.19.61.27.93.07.27.13.54.18.81.03.16.06.32.08.47.06.34,0-.04.03.21.05.59.09,1.18.06,1.78,0,.13-.02.25-.03.38-.03.39.04-.12-.02.15s-.1.54-.18.8c-.03.11-.07.21-.1.32-.05.15-.13.27-.01.05-.11.22-.24.42-.36.63-.11.2.19-.17-.05.05-.07.06-.14.14-.21.21-.14.14-.37.28-.69.46-.06.03-.45.22-.26.14-.14.06-.29.11-.43.15s-.29.09-.44.12c-.09.02-.57.1-.35.08-.33.04-.67.05-1,.04-.15,0-.31-.02-.46-.03-.18-.01-.02,0,.01,0-.13-.02-.26-.04-.38-.07-1.31-.26-2.35-.77-3.23-1.64s-1.37-1.98-1.41-3.17c-.11-3.07,2.22-6,5.31-6.59.8-.15,1.25-1.11,1.05-1.85-.23-.83-1.05-1.2-1.85-1.05h0Z" style="fill: #010101;"/>
  <path d="M347.55,197.81c-3.37-.96-6.85-.65-9.87,1.18s-5.11,4.53-6.87,7.4c-3.4,5.55-5.77,13.32-2.15,19.35,3.95,6.59,12.6,7.39,19.16,4.7,3.68-1.51,7.05-3.84,10.02-6.48s4.94-5.75,5.08-9.68-1.6-8.57-4.59-11.29-6.76-3.82-10.4-5.03c-1.84-.61-2.62,2.29-.8,2.89,2.69.9,5.46,1.74,7.85,3.32,2.57,1.69,4.1,4.57,4.72,7.53.69,3.29-.28,6.32-2.55,8.75s-5.1,4.45-7.99,6.04c-5.11,2.81-12.38,3.94-16.8-.79-3.98-4.26-2.56-10.83-.22-15.53,1.42-2.86,3.31-5.73,5.82-7.74s5.63-2.63,8.79-1.73c1.86.53,2.65-2.36.8-2.89h0Z" style="fill: #010101;"/>
</svg>