<?xml version="1.0" encoding="UTF-8"?>
<svg id="Layer_1" data-name="Layer 1" xmlns="http://www.w3.org/2000/svg" viewBox="0 0 200.97 101.03">
  <path d="M139.9,91.49c9.98.48,20.03.52,29.93-1.08,7.9-1.27,16.39-3.54,22.34-9.21,3.11-2.96,5.17-6.81,5.86-11.04.15-.9-.38-1.95-1.45-1.9-2.03.1-3.67,2.07-2.53,4.04.5.87,1.57,1.28,2.49.8,1.05-.55,1.33-1.87,1.49-2.94.17-1.18-.64-2.06-1.85-1.85-15.94,2.82-31.95,6.36-48.24,5.25-1.93-.13-1.92,2.87,0,3,16.55,1.13,32.85-2.49,49.04-5.36l-1.85-1.85c-.04.26-.35,1.08-.27,1.3.03.1,1.53-.16,1.81.2.04.05-.02.4-.09.4l-1.45-1.9c-1.18,7.26-6.61,12.05-13.16,14.75-8.16,3.37-17.34,4.3-26.08,4.59-5.33.18-10.67.04-15.99-.22-1.93-.09-1.93,2.91,0,3h0Z"/>
  <path d="M87.15,31.88c3.5-2.45,7.46-4.07,11.76-4.26,4.02-.18,7.97.76,11.71,2.17,8.35,3.17,15.72,8.56,23.18,13.37,3.53,2.27,7.13,4.7,11.03,6.31s7.69,3.33,11.69,1.59c1.06-.46,2-1.12,2.86-1.89.35-.32.66-.83,1.03-1.09.47-.33,1.48-.41,2.04-.53,2.32-.48,4.74-.5,7.09-.19,4.81.64,9.36,2.53,13.91,4.13,2.66.94,5.35,1.82,8.11,2.4,2.06.44,3.96.91,5.23,2.74,2.05,2.96,1.28,7.13-.58,9.97-1.06,1.62,1.54,3.12,2.59,1.51,1.92-2.94,2.72-6.79,1.81-10.22-.45-1.71-1.39-3.34-2.73-4.51-1.76-1.53-3.72-1.99-5.94-2.48-9.84-2.19-19.07-8.15-29.48-6.41-1.16.19-2.8.37-3.77,1.08-1.1.8-1.77,1.94-3.04,2.59-1.88.96-3.93.66-5.87.04-4.18-1.35-7.97-3.57-11.68-5.88-7.96-4.95-15.55-10.68-24.19-14.42-4.47-1.94-9.25-3.36-14.17-3.32s-9.94,1.78-14.1,4.69c-1.57,1.1-.07,3.7,1.51,2.59h0Z"/>
  <path d="M101.98,23.15c-2.3-3.18-4.86-6.37-6.82-9.77-.51-.88-.32-1.12.4-1.76.62-.55,1.28-1.07,1.94-1.56,1.43-1.06,2.95-2,4.52-2.84,5.75-3.06,12.78-4.82,19.32-4.09,1.41.16,2.92.52,4,1.5,1.23,1.11,1.6,2.84,2,4.38.9,3.45,2.4,6.46,4.54,9.31,4.08,5.44,9.04,10.15,14.29,14.44,6.04,4.94,12.47,9.39,19.14,13.43,1.66,1,3.17-1.59,1.51-2.59-6.39-3.87-12.58-8.1-18.37-12.83s-11.47-9.85-15.47-16.09c-1-1.56-1.84-3.21-2.36-5-.49-1.66-.81-3.35-1.55-4.92-1.55-3.28-4.91-4.45-8.31-4.7-7.15-.51-14.57,1.39-20.81,4.84-1.79.99-3.49,2.14-5.1,3.4-1.47,1.15-3.24,2.44-3.06,4.52s2.16,4.11,3.29,5.75c1.41,2.04,2.84,4.06,4.29,6.06,1.12,1.55,3.72.06,2.59-1.51h0Z"/>
  <path d="M108.54,27.28c1.51-1.42,4.02-1.1,5.9-1.11,2.84-.02,5.68.05,8.52.18,5.62.27,11.23.85,16.79,1.74,1.89.3,2.7-2.59.8-2.89-6.15-.98-12.34-1.62-18.56-1.89-3.08-.13-6.17-.17-9.25-.12-2.27.04-4.58.34-6.31,1.97-1.41,1.33.72,3.45,2.12,2.12h0Z"/>
  <path d="M129.87,15.6c-1.86,6.17-3.02,12.58-3.47,19-.14,1.93,2.86,1.92,3,0,.44-6.16,1.59-12.29,3.37-18.21.56-1.85-2.34-2.64-2.89-.8h0Z"/>
  <path d="M128.07,36.37c6.37-2.12,13.04-2.98,19.74-2.55,1.93.12,1.92-2.88,0-3-6.94-.45-13.94.46-20.54,2.65-1.82.61-1.04,3.5.8,2.89h0Z"/>
  <path d="M139.64,26.91c.34,5.41.19,10.83-.46,16.21-.1.81.76,1.5,1.5,1.5.89,0,1.4-.69,1.5-1.5.65-5.38.8-10.8.46-16.21-.12-1.92-3.12-1.93-3,0h0Z"/>
  <path d="M141.05,45.57c6.6-.93,13.21-1.98,19.88-2.16,1.93-.05,1.93-3.05,0-3-6.94.18-13.82,1.29-20.68,2.26-.81.11-1.23,1.13-1.05,1.85.23.87,1.05,1.16,1.85,1.05h0Z"/>
  <path d="M148.78,35.01c-.07,2.35-.08,4.71.02,7.06s.26,4.84.92,7.14c.53,1.85,3.43,1.06,2.89-.8-.61-2.14-.74-4.31-.82-6.55s-.07-4.57,0-6.85c.05-1.93-2.95-1.93-3,0h0Z"/>
  <path d="M103.39,25.07c.92-1.96,3.25-2.91,5.01-3.95,2.16-1.26,4.33-2.5,6.59-3.57,4.43-2.11,9.21-3.49,14.15-3.18,1.93.12,1.92-2.88,0-3-5.47-.35-10.77,1.26-15.67,3.59-2.47,1.17-4.85,2.54-7.2,3.93-2.06,1.22-4.42,2.4-5.48,4.67-.81,1.74,1.77,3.26,2.59,1.51h0Z"/>
  <path d="M72.57,23.95c1.52-1.06,3.45-1.29,5.24-1.62,2.1-.39,4.21-.69,6.33-.9,4.19-.41,8.4-.49,12.6-.26,1.93.1,1.92-2.9,0-3-4.53-.24-9.06-.14-13.57.37-2.22.25-4.44.57-6.64.99-1.9.36-3.86.71-5.48,1.83s-.08,3.7,1.51,2.59h0Z"/>
  <path d="M6.46,63.96c-4.2,1.77-5.33,6.33-5.99,10.45-.78,4.82-.91,10.15,2.14,14.27,2.6,3.51,6.79,5.5,11.03,6.19,5.5.9,10.98-.22,16.44-.82,22.22-2.42,43.52,7.32,65.67,6.98,5.73-.09,11.49-.48,17.2-.99s11.01-1.28,16.22-3.12c4.29-1.52,8.34-3.75,11.74-6.79,1.67-1.49,3.16-3.2,4.4-5.07,1.05-1.59,2.84-4.13,2.07-6.1-.84-2.16-3.43-1.87-5.23-1.39-2.74.74-5.49,1.42-8.27,2.01-5.5,1.16-11.06,2-16.66,2.5-11.24,1-22.62.71-33.78-.97-5.8-.87-11.53-1.92-17.38-2.45-2.9-.26-5.75-.64-8.57-1.38s-5.43-1.64-8.13-2.49c-11.06-3.47-22.22-6.6-33.47-9.4-2.85-.71-5.71-1.39-8.57-2.06-1.88-.44-2.68,2.46-.8,2.89,10.73,2.49,21.4,5.29,31.97,8.39,5.2,1.53,10.34,3.2,15.52,4.78,2.56.78,5.13,1.43,7.78,1.8s5.43.53,8.15.85c5.41.62,10.75,1.75,16.15,2.45s10.51,1.05,15.79,1.15c10.61.18,21.24-.8,31.64-2.91,2.55-.52,5.08-1.1,7.6-1.76.61-.16,1.22-.32,1.83-.49.42-.11,1.04-.13,1.42-.27.09-.03.5.14.28-.1-.2-.21-.14.14-.22.35-.2.52-.48,1.02-.74,1.5-2.05,3.75-5.22,6.74-8.83,8.98-8.56,5.3-18.91,5.98-28.7,6.61-5.55.36-11.11.69-16.66.38-5.15-.28-10.27-1.04-15.34-1.95-10.16-1.82-20.25-4.26-30.57-5.06-5.15-.4-10.28-.28-15.4.37s-10.09,1.57-15.01.45c-4.05-.92-8.01-3.21-9.46-7.31s-.71-9.3.57-13.4c.5-1.6,1.33-3.46,2.98-4.16.75-.32,1.27-.99,1.05-1.85-.19-.71-1.1-1.36-1.85-1.05h0Z"/>
  <path d="M8.99,62.71c-.79-6.24,2.34-11.97,3.91-17.84.82-3.08,1.15-6.14.71-9.3-.22-1.52-.65-3.28.05-4.74s1.95-1.62,3.01-.48c2.19,2.35,2.04,6.42,3.07,9.32.91,2.55,2.58,5.02,5.19,6.04,5.89,2.28,9.65-4.51,14.04-6.97,5.33-2.98,11.9-2.69,17.57-.92,6.68,2.09,12.6,6.07,18.51,9.7,3.22,1.97,6.44,3.94,9.65,5.92,2.98,1.83,5.92,3.82,9.05,5.38,2.65,1.32,5.65,2.44,8.67,2.17,1.37-.12,2.71-.52,3.89-1.24,1.44-.88,2.49-2.25,4.11-2.82,3.56-1.27,7.93-.13,11.42.84,4.03,1.12,7.97,2.58,11.92,3.93,2.03.69,4.06,1.38,6.08,2.08.94.32,1.87.64,2.81.96.84.29,1.97.5,2.65,1.12,1.18,1.07,1.06,3.49.98,4.93-.1,1.85-.61,3.66-1.44,5.32s1.72,3.24,2.59,1.51c1.59-3.16,2.21-6.67,1.66-10.18-.24-1.51-.74-2.95-1.96-3.94-1.3-1.05-3.07-1.45-4.62-1.98-3.9-1.33-7.8-2.66-11.7-3.99-3.6-1.23-7.2-2.54-10.92-3.33-3.4-.73-7.32-1.31-10.65-.02-1.47.57-2.52,1.54-3.75,2.49-1.34,1.05-2.87,1.46-4.56,1.34-3.19-.22-6.18-1.93-8.85-3.55-3.51-2.13-7-4.29-10.49-6.43-6.44-3.95-12.8-8.34-19.74-11.37-6-2.62-12.56-4.01-19.05-2.54-3.13.71-6.02,2.15-8.45,4.23-1.93,1.66-3.98,4.44-6.68,4.78-3.28.4-4.9-3.41-5.55-5.97-.8-3.13-1.09-6.85-3.6-9.18-2.72-2.52-6.47-1.29-7.76,2.02-.75,1.92-.39,3.93-.12,5.9s.27,3.78-.07,5.67c-1.27,7.11-5.52,13.7-4.58,21.14.24,1.89,3.24,1.91,3,0h0Z"/>
  <path d="M50.63,32.64c-2.3-3.18-4.86-6.37-6.82-9.77-.51-.88-.32-1.12.4-1.76.62-.55,1.28-1.07,1.94-1.56,1.43-1.06,2.95-2,4.52-2.84,5.75-3.06,12.78-4.82,19.32-4.09,1.41.16,2.92.52,4,1.5,1.23,1.11,1.6,2.84,2,4.38.9,3.45,2.4,6.46,4.54,9.31,4.08,5.44,9.04,10.15,14.29,14.44,6.04,4.94,12.47,9.39,19.14,13.43,1.66,1,3.17-1.59,1.51-2.59-6.39-3.87-12.58-8.1-18.37-12.83s-11.47-9.85-15.47-16.09c-1-1.56-1.84-3.21-2.36-5-.49-1.66-.81-3.35-1.55-4.92-1.55-3.28-4.91-4.45-8.31-4.7-7.15-.51-14.57,1.39-20.81,4.84-1.79.99-3.49,2.14-5.1,3.4-1.47,1.15-3.24,2.44-3.06,4.52s2.16,4.11,3.29,5.75c1.41,2.04,2.84,4.06,4.29,6.06,1.12,1.55,3.72.06,2.59-1.51h0Z"/>
  <path d="M57.19,36.77c1.51-1.42,4.02-1.1,5.9-1.11,2.84-.02,5.68.05,8.52.18,5.62.27,11.23.85,16.79,1.74,1.89.3,2.7-2.59.8-2.89-6.15-.98-12.34-1.62-18.56-1.89-3.08-.13-6.17-.17-9.25-.12-2.27.04-4.58.34-6.31,1.97-1.41,1.33.72,3.45,2.12,2.12h0Z"/>
  <path d="M78.52,25.09c-1.86,6.17-3.02,12.58-3.47,19-.14,1.93,2.86,1.92,3,0,.44-6.16,1.59-12.29,3.37-18.21.56-1.85-2.34-2.64-2.89-.8h0Z"/>
  <path d="M76.72,45.86c6.37-2.12,13.04-2.98,19.74-2.55,1.93.12,1.92-2.88,0-3-6.94-.45-13.94.46-20.54,2.65-1.82.61-1.04,3.5.8,2.89h0Z"/>
  <path d="M88.29,36.4c.34,5.41.19,10.83-.46,16.21-.1.81.76,1.5,1.5,1.5.89,0,1.4-.69,1.5-1.5.65-5.38.8-10.8.46-16.21-.12-1.92-3.12-1.93-3,0h0Z"/>
  <path d="M89.7,55.06c6.6-.93,13.21-1.98,19.88-2.16,1.93-.05,1.93-3.05,0-3-6.94.18-13.82,1.29-20.68,2.26-.81.11-1.23,1.13-1.05,1.85.23.87,1.05,1.16,1.85,1.05h0Z"/>
  <path d="M97.43,44.5c-.07,2.35-.08,4.71.02,7.06s.26,4.84.92,7.14c.53,1.85,3.43,1.06,2.89-.8-.61-2.14-.74-4.31-.82-6.55s-.07-4.57,0-6.85c.05-1.93-2.95-1.93-3,0h0Z"/>
  <path d="M52.04,34.56c.92-1.96,3.25-2.91,5.01-3.95,2.16-1.26,4.33-2.5,6.59-3.57,4.43-2.11,9.21-3.49,14.15-3.18,1.93.12,1.92-2.88,0-3-5.47-.35-10.77,1.26-15.67,3.59-2.47,1.17-4.85,2.54-7.2,3.93-2.06,1.22-4.42,2.4-5.48,4.67-.81,1.74,1.77,3.26,2.59,1.51h0Z"/>
  <path d="M21.22,33.44c1.52-1.06,3.45-1.29,5.24-1.62,2.1-.39,4.21-.69,6.33-.9,4.19-.41,8.4-.49,12.6-.26,1.93.1,1.92-2.9,0-3-4.53-.24-9.06-.14-13.57.37-2.22.25-4.44.57-6.64.99-1.9.36-3.86.71-5.48,1.83s-.08,3.7,1.51,2.59h0Z"/>
</svg>