<?xml version="1.0" encoding="UTF-8"?>
<svg id="Layer_1" data-name="Layer 1" xmlns="http://www.w3.org/2000/svg" viewBox="0 0 238.41 151.14">
  <path d="M1.79,63.09c-4.04,14.51-.94,29.88,6.36,42.83s19.49,24.27,33.35,31.22c15.58,7.81,32.88,11.25,50.12,12.79,15.79,1.4,31.84,1.65,47.65.41,14.5-1.14,29.08-3.65,42.67-8.97,13.05-5.11,25.13-12.92,33.87-24.01,5.3-6.73,9.14-14.37,12.22-22.34,1.63-4.22,3.05-8.52,4.42-12.83,1.44-4.55,2.91-9.1,4.08-13.72,2.12-8.39,2.92-17.26-.22-25.5-2.42-6.35-6.69-11.78-11.84-16.16-11.52-9.78-26.23-14.72-40.64-18.43C165.11,3.54,145.84.78,126.52.14c-16.16-.53-32.42.37-48.26,3.76-14.55,3.11-28.87,8.35-41.27,16.67-6.05,4.06-11.65,8.83-16.45,14.32-5.38,6.14-10.3,13.26-12.23,21.3-1.8,7.48-.43,15.17,3.84,21.56,4.03,6.02,9.93,10.61,16.22,14.08,7.07,3.9,14.85,6.48,22.67,8.38,8.46,2.05,17.15,3.18,25.84,3.41,17.56.45,35.18-2.84,51.35-9.72,7.21-3.07,14.09-6.98,19.74-12.48,5.18-5.05,9.3-11.6,9.57-19.01.24-6.57-2.66-12.79-7.39-17.26-4.87-4.59-11.16-7.46-17.46-9.51-7.22-2.34-14.86-3.74-22.39-4.5-8.12-.82-17.31-.35-24.05,4.79-5.31,4.05-9.34,10.82-8.56,17.68s6.11,11.54,12.53,13.12,13.44.75,19.93-.48c1.89-.36,1.09-3.25-.8-2.89-6.23,1.17-13.06,2.05-19.25.23s-10.24-6.9-9.39-13.31,5.87-12.13,11.83-14.46c8.14-3.18,17.18-2.01,25.56-.57,6.47,1.12,12.95,2.62,19.01,5.2,5.49,2.34,10.99,5.69,14.32,10.78,3.55,5.42,4.06,12.19,1.54,18.15-2.78,6.57-8.38,11.74-14.22,15.63-6.59,4.38-14.06,7.42-21.56,9.84-8.03,2.59-16.34,4.34-24.73,5.18-16.65,1.68-33.62-.04-49.52-5.26-6.87-2.25-13.51-5.25-19.34-9.57-5.33-3.94-10.08-9.2-12.06-15.64-2.37-7.71-.16-15.62,3.77-22.41,3.66-6.33,8.58-11.96,14-16.83,10.5-9.43,23.38-15.89,36.78-20.11s28.41-6.49,42.93-7.05c18.03-.7,36.2.63,53.97,3.75,9.11,1.6,18.13,3.67,27.02,6.22,6.67,1.91,13.21,4.25,19.41,7.38,11.51,5.81,22.68,14.78,25.46,28.02,1.89,9.03-.74,18.2-3.38,26.8s-5.06,16.57-8.62,24.45c-3.19,7.06-7.24,13.69-12.51,19.4-4.48,4.85-9.65,9-15.29,12.43-11.64,7.1-24.9,11.15-38.26,13.52-13.86,2.46-28.01,3.11-42.07,2.89-16.66-.26-33.47-1.33-49.68-5.45-15.22-3.87-29.98-10.55-41.37-21.55-10.27-9.91-17.99-22.92-20.16-37.15-1.02-6.66-.62-13.5,1.18-19.99.52-1.86-2.38-2.66-2.89-.8h0Z" style="fill: #010101;"/>
  <path d="M234.31,52.07c-9.31,11.05-22.47,17.68-35.81,22.6-15.46,5.71-31.5,10.03-47.65,13.28-9.41,1.9-18.9,3.39-28.44,4.48-1.9.22-1.92,3.22,0,3,17.18-1.97,34.21-5.18,50.91-9.7,8.04-2.17,16.03-4.61,23.88-7.42,6.95-2.48,13.81-5.31,20.26-8.92,7.11-3.98,13.71-8.97,18.97-15.22,1.24-1.47-.88-3.6-2.12-2.12h0Z" style="fill: #010101;"/>
</svg>