<?xml version="1.0" encoding="UTF-8"?>
<svg id="Layer_1" data-name="Layer 1" xmlns="http://www.w3.org/2000/svg" viewBox="0 0 252.09 224.03">
  <path d="M1.06,139.2c.04,6.08-.28,12.15-.18,18.23.1,6.51.45,13.26,2.37,19.53.81,2.65,1.95,5.22,3.67,7.4,2.19,2.77,5.13,5.2,7.86,7.42s5.92,4.33,9.38,5.64c1.81.68,3.68,1.11,5.59,1.34s3.97.09,5.94.41c8.17,1.33,15.25,6.48,22.38,10.33s14.56,6.41,22.1,8.71c13.34,4.06,27.36,6.38,41.33,5.71,12.47-.6,24.74-3.66,35.9-9.27,11.5-5.78,21.57-14.16,29.91-23.93,4.64-5.43,8.78-11.27,12.49-17.37,2.58-4.25,4.87-8.54,7.84-12.54,6.97-9.41,14.66-18.32,22.31-27.18,3.08-3.57,6.18-7.12,9.32-10.63,3.69-4.14,6.6-8.57,8.79-13.7,2.61-6.1,4.79-13.15,3.8-19.86-.44-2.98-1.87-5.81-3.08-8.54-1.34-3.03-2.81-5.99-4.38-8.9-2.01-3.71-4.17-7.33-6.38-10.92-1.01-1.64-3.61-.14-2.59,1.51,3.92,6.36,7.67,12.84,10.7,19.67,1.14,2.58,2.53,5.29,2.85,8.13.35,3.07-.11,6.22-.82,9.21-1.52,6.42-4.3,12.95-8.35,18.2-2.32,3-5.05,5.73-7.54,8.58-7.68,8.77-15.28,17.64-22.51,26.78-2.83,3.57-5.7,7.17-8.13,11.03-1.47,2.33-2.71,4.8-4.13,7.16-1.85,3.08-3.81,6.09-5.89,9.01-7.45,10.47-16.59,19.88-27.39,26.91-10.12,6.58-21.52,10.89-33.45,12.72-12.89,1.98-26.13,1.01-38.82-1.8-7.25-1.6-14.37-3.8-21.32-6.43-3.71-1.4-7.35-2.89-10.85-4.77-3.68-1.98-7.24-4.16-10.94-6.1-3.49-1.83-7.16-3.52-11.02-4.37s-7.48-.38-11.13-1.44c-3.5-1.01-6.66-2.95-9.48-5.2-1.51-1.2-2.94-2.5-4.35-3.81-1.21-1.14-2.53-2.25-3.58-3.55-3.47-4.31-4.38-10.56-4.91-15.89-.64-6.49-.54-13.03-.41-19.54.05-2.63.12-5.26.11-7.89-.01-1.93-3.01-1.93-3,0h0Z" style="fill: #010101;"/>
  <path d="M3.6,145.87c1.41,2.88,2.91,5.73,4.82,8.31,1.49,2.01,3.2,3.81,4.94,5.61,2.46,2.55,4.78,5.24,7.28,7.75,2.7,2.7,5.62,5.17,8.71,7.41,10.97,7.96,24.01,12.32,37.29,14.45,6.16.99,12.36,1.46,18.56,2.04,8.83.81,17.62,2.03,26.47,2.62,16.75,1.13,34.79-.46,48.97-10.36,6.06-4.23,10.58-9.99,13.23-16.89s3.26-13.8,2.39-20.74c-1.87-14.85-11.02-27.68-22.55-36.81-13.2-10.45-29.27-16.25-45.24-20.97-8.89-2.63-17.86-5.02-26.88-7.18s-17.79-4.85-26.74-3.21c-4.15.76-8.09,2.34-11.91,4.07s-7.29,3.41-10.88,5.22c-6.83,3.44-13.55,7.31-19.21,12.51-5.2,4.78-8.97,10.5-10.98,17.28s-2.41,13.47-1.22,20.13c.54,3.04,1.51,6,2.96,8.74.9,1.71,3.49.19,2.59-1.51-2.9-5.48-3.54-11.97-3.04-18.07s2.4-12.71,6.01-17.95c4.08-5.93,10.08-10.42,16.19-14.07,6.49-3.88,13.42-7.22,20.35-10.24,3.81-1.66,7.85-3.1,12-3.51s8.63.27,12.85,1.16c8.7,1.85,17.34,4.02,25.93,6.35,16.09,4.37,32.53,9.06,46.91,17.73,12.18,7.35,23.06,18.12,27.82,31.78,4.38,12.57,2.95,27.92-6.04,38.19-5.06,5.78-12.08,9.39-19.24,11.9-7.89,2.76-16.19,3.78-24.52,3.79s-17.14-.94-25.67-1.87c-7.05-.78-14.12-1.29-21.17-2.07-12.28-1.36-24.56-4.12-35.52-9.99-6.31-3.37-12.05-7.68-17.03-12.82-2.29-2.36-4.46-4.84-6.74-7.21-1.61-1.67-3.23-3.34-4.58-5.22-1.77-2.47-3.18-5.17-4.51-7.89-.85-1.73-3.44-.22-2.59,1.51h0Z" style="fill: #010101;"/>
  <path d="M168.87,130.02c11.45,2.6,23.59,2.32,34.61-1.94,5.17-2,9.81-4.79,13.84-8.62,3.74-3.55,6.83-7.78,9.35-12.28.65-1.15,1.3-2.31,1.78-3.54s.89-2.52,1.45-3.73,1.36-2.23,1.85-3.47,1.02-2.57,1.51-3.87c1.03-2.74,1.68-5.56,2.68-8.31.48-1.33.97-2.67,1.24-4.06.25-1.29,0-2.6.31-3.88,1.29-5.42,2.06-10.83,1.54-16.41s-2.04-10.82-4.58-15.72c-1.35-2.61-3.02-4.98-4.78-7.32s-3.42-4.52-5.36-6.57c-4-4.24-8.88-7.89-13.61-11.28-9.31-6.68-19.92-12.02-31.26-14.12-.58-.11-1.32-.11-1.87-.29-.45-.15-.85-.57-1.27-.79-1.17-.6-2.78-.56-4.06-.78-3.1-.54-6.18-1.21-9.31-1.61-5.96-.76-12-1.12-18-1.32-11.84-.39-23.74.25-35.4,2.44-11.72,2.2-23.34,5.99-33.84,11.69-8.7,4.73-16.09,12.44-19.47,21.84-.85,2.35-1.37,4.78-1.68,7.26-.24,1.91,2.77,1.89,3,0,2.72-21.99,26.69-31.62,45.41-36.29,10.94-2.73,22.21-3.91,33.47-4.03,5.68-.06,11.37.14,17.04.55,2.85.2,5.71.44,8.55.76,3.09.35,6.14,1.03,9.2,1.57,1.16.2,2.63.19,3.7.59.41.16.76.52,1.15.72.61.31,1.24.35,1.91.47,2.74.48,5.44,1.15,8.09,1.99,5.25,1.67,10.29,3.95,15.06,6.71s9.43,6.08,13.78,9.6c2.19,1.77,4.41,3.55,6.41,5.54s3.6,4.01,5.23,6.16c3.33,4.4,6.2,8.91,7.86,14.22,1.56,4.98,2.08,10.2,1.66,15.4-.22,2.72-.71,5.4-1.42,8.03-.32,1.19-.32,2.23-.34,3.45-.02,1.4-.58,2.79-1.05,4.1-.93,2.61-1.56,5.28-2.51,7.88-.46,1.26-.94,2.5-1.43,3.75s-1.15,2.22-1.75,3.38c-1.19,2.31-1.86,4.81-3.11,7.1-1.18,2.16-2.48,4.26-3.93,6.26-2.88,3.97-6.42,7.53-10.53,10.24-9.22,6.09-21.11,7.96-31.96,6.99-2.82-.25-5.62-.72-8.38-1.35-1.88-.43-2.68,2.46-.8,2.89h0Z" style="fill: #010101;"/>
  <path d="M54.61,42.94c-4.88,17.48,10.25,31.29,23.15,40.22,1.59,1.1,3.09-1.5,1.51-2.59-11.72-8.11-26.24-20.83-21.77-36.83.52-1.86-2.37-2.66-2.89-.8h0Z" style="fill: #010101;"/>
  <path d="M54.1,45.44c-3.08,3.87-6.42,7.65-9.19,11.76-2.41,3.58-3.88,7.65-6.43,11.17-4.44,6.13-10.28,11.08-14.94,17.03-2.61,3.32-4.8,6.89-6.19,10.89-.63,1.83,2.26,2.61,2.89.8,2.41-6.96,7.62-12.37,12.57-17.62,2.52-2.67,5.02-5.36,7.27-8.27,1.11-1.44,2.16-2.93,3.09-4.49,1.16-1.95,2.03-4.04,3.12-6.02,1.26-2.27,2.89-4.28,4.5-6.3,1.81-2.27,3.62-4.54,5.43-6.82,1.19-1.5-.92-3.63-2.12-2.12h0Z" style="fill: #010101;"/>
  <path d="M198.1,127.21c-1.65,2.88-3.31,5.79-5.66,8.17s-5.04,4.04-7.61,5.99c-5.03,3.82-8.81,8.7-10.95,14.67-.65,1.82,2.25,2.61,2.89.8,2.15-6,6.21-10.47,11.3-14.15,2.53-1.83,5.13-3.63,7.22-5.97s3.79-5.2,5.39-7.99c.96-1.68-1.63-3.19-2.59-1.51h0Z" style="fill: #010101;"/>
  <path d="M40.11,107.81c-2.2-.47-4.6.19-6.15,1.86s-2.12,4.27-1.32,6.46c.42,1.15,1.12,2.27,2.2,2.89,1.32.76,2.75.41,3.97-.35,1.99-1.23,3.56-3.19,3.81-5.56s-1.32-5.07-3.76-5.65c-.76-.18-1.66.24-1.85,1.05s.23,1.65,1.05,1.85c.08.02.16.05.23.06.35.07-.15-.1.03,0,.12.07.28.18.41.23.18.08-.15-.17-.02-.02.06.07.15.13.22.2.06.06.11.12.16.17.19.19-.05-.12.02.03.07.15.19.32.28.47.03.06.12.26,0-.03.03.08.06.15.08.23.05.15.1.31.13.47.02.08.03.16.04.24-.06-.37,0,.02,0,.09,0,.16-.01.32-.01.49,0-.3.02-.12,0-.02-.02.09-.04.18-.06.26-.04.17-.1.34-.16.51-.13.39.09-.13-.03.07-.06.1-.1.2-.15.3-.09.16-.18.31-.28.46,0-.01-.26.34-.13.18.11-.13-.07.08-.1.11-.27.31-.57.59-.89.86-.18.15.17-.12-.02.02-.07.05-.15.11-.22.16-.17.12-.34.22-.52.33-.09.05-.18.1-.28.15-.03.01-.26.1-.08.04-.1.03-.2.07-.3.08.12-.02.12-.02.01-.02-.12,0-.1,0,.06.01-.05-.03-.26-.11,0,.02-.08-.04-.15-.09-.23-.13.05.03.2.19-.01-.01-.07-.06-.13-.13-.19-.19-.19-.19-.07-.07-.02,0-.05-.07-.11-.15-.15-.22-.12-.19-.22-.39-.33-.59.13.25-.06-.17-.09-.27-.06-.19-.09-.39-.14-.59-.06-.22,0,.23,0,0,0-.09-.01-.18-.02-.27,0-.23.01-.45.01-.67s-.05.22,0,0c.02-.09.03-.18.05-.26.04-.2.11-.39.17-.58.02-.06.12-.25,0-.01.04-.08.08-.16.12-.24.1-.19.22-.38.35-.56-.04.05-.18.2,0,0,.07-.08.14-.16.22-.23.06-.06.12-.12.19-.18.05-.04.1-.08.15-.13-.12.09-.13.1-.05.04.16-.1.32-.22.49-.31.07-.04.15-.08.23-.12.3-.17-.18.05.11-.05.2-.07.41-.14.62-.19.08-.02.17-.04.25-.05.4-.08-.3,0,.11-.01.19,0,.38-.02.58-.01.11,0,.21.01.32.02-.27-.03-.01,0,.11.03.77.16,1.66-.23,1.85-1.05.17-.75-.23-1.67-1.05-1.85h0Z" style="fill: #010101;"/>
  <path d="M91.53,161.37c-2.09,1.7-1.89,5.23-.05,7.03.56.55,1.45,1.15,2.27,1.04.74-.1,1.5-.73,2-1.25.99-1.05,1.53-2.38,1.69-3.8.17-1.58-.32-3.09-1.3-4.33-.49-.62-1.62-.55-2.12,0-.6.66-.52,1.46,0,2.12-.3-.38.01.04.08.14.08.13.13.29.21.41-.19-.27-.08-.21-.03-.05.02.07.04.13.06.2.04.15.08.29.11.44s-.02.31,0-.07c0,.07.01.14.02.21.01.15.01.31,0,.46,0,.07,0,.14-.01.21,0,.06-.05.37,0,.09s0,0-.01.05c-.01.08-.03.17-.05.25-.03.14-.07.27-.11.41-.03.08-.06.16-.08.24-.1.29.16-.32.02-.05s-.29.54-.46.8c-.14.21.18-.2.06-.07-.05.05-.09.11-.14.16-.1.11-.21.22-.33.32-.05.04-.11.08-.16.13.27-.29.15-.11.03-.04-.14.09-.29.18-.44.25l1.16-.15s-.29-.11-.03,0,.03,0-.02-.02c-.11-.06-.21-.14-.31-.2.39.22.09.06-.03-.06-.05-.05-.1-.11-.15-.17-.13-.15.08.1.1.13-.05-.11-.14-.21-.2-.32-.04-.07-.07-.13-.1-.2-.1-.18.05.12.06.15-.07-.25-.15-.51-.22-.77-.04-.16.04.41.02.13,0-.06-.01-.13-.01-.19,0-.13,0-.25,0-.38,0-.06.02-.13.01-.19,0,.08-.07.39-.02.14.03-.12.05-.24.09-.36.02-.06.04-.12.06-.18.08-.23-.14.27-.05.12.06-.11.11-.22.18-.32.03-.05.08-.1.11-.15-.04.08-.24.27-.07.1.1-.1.2-.2.31-.28.61-.5.56-1.61,0-2.12-.65-.6-1.47-.53-2.12,0h0Z" style="fill: #010101;"/>
  <path d="M95.57,123.61c-.44.5-.78,1.06-.94,1.72s-.15,1.28-.05,1.94c.15,1.02.72,2.09,1.51,2.77,1.03.89,2.37,1.28,3.71.92,1.18-.32,2.22-1.2,2.8-2.27.73-1.33.84-2.93.09-4.27-.38-.69-1.38-.97-2.05-.54s-.95,1.32-.54,2.05c.05.09.09.18.13.27l-.15-.36c.08.2.14.41.17.62l-.05-.4c.03.25.03.5,0,.75l.05-.4c-.04.27-.12.54-.22.8l.15-.36c-.08.18-.17.36-.28.53-.03.05-.07.1-.1.15-.1.16.12-.15.13-.16-.08.04-.15.18-.22.25-.07.07-.14.14-.21.21-.03.03-.09.06-.11.09.02-.04.34-.24.14-.11-.17.11-.35.21-.54.3l.36-.15c-.2.08-.4.14-.61.17l.4-.05c-.22.03-.43.03-.65,0l.4.05c-.22-.03-.43-.09-.63-.17l.36.15c-.17-.07-.32-.17-.47-.26-.2-.13.31.26.13.1-.03-.02-.06-.05-.08-.07-.07-.07-.15-.14-.21-.21-.03-.03-.06-.07-.09-.1-.14-.16.21.29.11.15-.05-.08-.11-.15-.16-.23-.1-.17-.19-.34-.27-.52l.15.36c-.11-.28-.19-.56-.23-.86l.05.4c-.04-.27-.04-.55,0-.82l-.05.4c.03-.23.09-.46.18-.68l-.15.36c.05-.12.1-.23.17-.34.03-.05.06-.09.09-.14.13-.2-.28.34-.06.09.26-.3.44-.65.44-1.06,0-.37-.16-.81-.44-1.06-.57-.52-1.57-.63-2.12,0h0Z" style="fill: #010101;"/>
  <path d="M116.25,24.62c-1.5.74-2.92,1.98-3.64,3.51-.8,1.69-.86,3.56.09,5.21.85,1.48,2.52,2.65,4.28,2.49,1.97-.18,3.49-1.56,4.13-3.39.76-2.15-.16-4.47-1.53-6.14-.5-.61-1.61-.56-2.12,0-.59.65-.53,1.47,0,2.12.03.04.17.23.02.02.04.06.08.11.12.17.09.13.18.27.26.41s.14.29.22.43c.11.2-.06-.2.01.02.03.09.06.17.09.26.05.15.09.31.13.46.02.09.03.18.05.27,0-.03-.01-.24-.01-.06,0,.16.02.32.02.47,0,.09-.01.18-.01.27,0-.12.03-.16,0-.01-.03.16-.08.31-.12.46-.08.27.1-.17-.03.08-.07.14-.15.28-.24.42-.01.02-.12.2-.02.04.11-.17-.1.11-.11.12-.09.1-.2.19-.3.29-.11.12.06-.04.07-.05-.07.04-.13.09-.19.13-.06.03-.41.21-.24.14s0,0-.04,0c-.09.02-.19.04-.28.08-.15.05.08,0,.11,0-.08,0-.15.01-.23.01-.06,0-.11,0-.17,0-.2.02.26.08.07.01-.12-.04-.25-.06-.37-.1-.03,0-.21-.08-.03,0,.21.08-.08-.04-.12-.07-.06-.04-.38-.23-.22-.13.17.11-.03-.02-.07-.06s-.08-.08-.13-.12c-.1-.09-.18-.2-.27-.29-.14-.15.13.21.03.03-.04-.07-.09-.13-.13-.19-.07-.12-.13-.24-.19-.36-.13-.24,0-.01.01.04-.02-.06-.04-.11-.06-.16-.04-.13-.08-.26-.11-.39-.01-.07-.04-.16-.04-.23,0,.11.02.24.02.05,0-.15,0-.31,0-.46.02-.29-.05.19.02-.09.04-.16.07-.32.12-.47.02-.06.04-.12.06-.17.06-.21-.15.3.01-.04.15-.3.32-.57.5-.85-.17.25.09-.11.16-.18.11-.12.23-.25.35-.36s.25-.23.38-.34c.21-.18.04-.03,0,0,.09-.06.17-.12.26-.18.3-.2.61-.38.93-.53.7-.35.96-1.4.54-2.05-.47-.72-1.3-.91-2.05-.54h0Z" style="fill: #010101;"/>
  <path d="M153.04,24.5c-1.03-1.15-2.79-1.47-4.23-1.01-1.63.52-2.82,1.85-2.94,3.59s1.05,3.47,2.58,4.16c.9.41,1.86.56,2.83.31.76-.19,1.49-.64,2.02-1.22.6-.65,1.06-1.48,1.22-2.35.19-1.03.08-1.99-.37-2.94-.34-.71-1.41-.95-2.05-.54-.73.47-.9,1.29-.54,2.05.11.24-.13-.37-.05-.11.02.06.04.13.06.19.04.13.06.26.08.39l-.05-.4c.03.27.03.53,0,.8l.05-.4c-.02.15-.05.31-.09.46-.02.09-.05.17-.08.26-.05.12-.17.28.05-.11-.08.14-.14.28-.22.41-.04.07-.09.13-.13.19-.06.09.27-.32.05-.07-.1.12-.22.22-.33.32-.19.18.31-.21.09-.07-.07.05-.15.1-.22.14-.06.03-.12.06-.17.09-.22.11.4-.14.05-.03-.15.05-.31.08-.46.1l.4-.05c-.22.02-.43.02-.65,0l.4.05c-.14-.02-.28-.05-.42-.1-.07-.02-.13-.05-.2-.07.42.13.21.09.1.03-.13-.07-.25-.15-.37-.23-.23-.15.26.23.07.05-.06-.06-.13-.11-.19-.17-.05-.05-.1-.11-.15-.16-.21-.24.14.2.05.08-.08-.12-.16-.24-.23-.37-.03-.05-.14-.31-.03-.05s0,0-.01-.06c-.05-.15-.08-.3-.11-.45l.05.4c-.03-.21-.03-.43,0-.64l-.05.4c.02-.16.06-.32.11-.47.07-.23-.18.35-.06.13.03-.05.05-.11.08-.16s.06-.1.1-.15c.13-.21-.28.31-.07.09.09-.09.18-.18.28-.27.18-.17-.32.22-.11.09.05-.03.1-.07.15-.1.14-.08.6-.25.08-.07.25-.09.5-.17.76-.2l-.4.05c.26-.03.52-.04.78,0l-.4-.05c.13.02.25.04.38.08.05.01.15.07.2.07-.06.01-.4-.18-.14-.06.11.05.2.12.3.18-.39-.23-.22-.18-.12-.08.06.05.12.11.17.17.53.59,1.59.57,2.12,0,.57-.63.56-1.5,0-2.12h0Z" style="fill: #010101;"/>
  <path d="M156.92,86.44c-.94,2.57,1.17,5.63,3.79,6.03,1.37.21,2.77-.19,3.71-1.24.82-.91,1.27-2.08,1.31-3.3.05-1.29-.46-2.71-1.49-3.52-.33-.26-.63-.44-1.06-.44-.37,0-.81.16-1.06.44-.5.54-.66,1.6,0,2.12.14.11.27.24.39.37.16.18-.2-.29-.11-.14.03.04.06.08.08.12.05.08.1.17.14.25.16.32-.13-.37-.02-.03.03.07.05.15.07.22.03.1.04.19.06.29.02.11,0,.26-.03-.22,0,.06.01.12.02.18.01.18,0,.36,0,.54-.03.35.07-.37.01-.07-.02.11-.04.22-.07.32-.02.09-.05.17-.08.26-.01.04-.05.1-.05.14,0,0,.17-.38.08-.19s-.18.35-.29.52c-.18.27.2-.23.06-.07-.06.07-.13.15-.2.22-.06.05-.11.1-.17.16-.18.16.29-.2.14-.11-.05.03-.1.07-.15.1-.08.05-.15.09-.23.13-.22.11.34-.12.17-.07-.05.01-.09.03-.14.05-.09.03-.18.04-.26.07-.26.06.35-.02.16-.02-.07,0-.14.01-.21.01-.1,0-.2-.01-.31-.01.46,0,.21.03.03-.01-.1-.02-.2-.05-.29-.09-.04-.02-.09-.03-.13-.05.44.14.22.09.11.04-.1-.05-.2-.11-.3-.17-.04-.03-.08-.05-.12-.08-.22-.14.25.21.11.09-.17-.15-.33-.29-.48-.46-.04-.04-.19-.23-.02-.01s0,0-.03-.05c-.07-.11-.14-.22-.2-.33-.02-.04-.04-.08-.06-.12-.13-.24.13.36.04.1-.04-.11-.08-.22-.1-.33-.02-.07-.03-.13-.04-.2-.06-.25.03.4.02.13,0-.11-.01-.23,0-.34,0-.05,0-.09,0-.14.01-.27-.08.37-.01.13.03-.14.07-.27.12-.4.27-.74-.3-1.68-1.05-1.85-.85-.19-1.56.26-1.85,1.05h0Z" style="fill: #010101;"/>
  <path d="M196.85,51.9c-1.57-.41-3.35-.11-4.66.86-.68.5-1.26,1.12-1.61,1.9-.4.91-.5,1.83-.31,2.81.31,1.61,1.59,3.06,3.17,3.52,1.7.5,3.36-.3,4.31-1.72s.97-3.58-.33-4.87c-.56-.55-1.57-.6-2.12,0s-.59,1.53,0,2.12c.04.04.08.09.12.13.14.12-.22-.33-.09-.11.04.07.2.39.08.12s.01.06.03.14c.01.06.05.29.01,0s0-.03,0,.04c0,.1,0,.2,0,.31-.01.27.07-.34.02-.16-.02.06-.02.11-.04.17-.02.1-.06.2-.09.3-.04.13-.15.21.06-.13-.04.06-.06.13-.09.19-.05.09-.11.18-.17.27-.17.27.24-.27,0,0-.08.09-.16.16-.25.24-.09.09-.17.05.14-.11-.06.03-.12.08-.17.11-.04.02-.08.05-.12.07-.16.08-.24.02.11-.04-.09.02-.18.05-.27.08-.26.08.34-.01.16-.01-.06,0-.13,0-.19.01-.05,0-.11,0-.16,0-.29,0,.35.08.09.01-.13-.03-.25-.07-.37-.1-.22-.07.13.05.14.06-.04-.04-.12-.06-.17-.09-.1-.06-.19-.14-.3-.19.31.15.2.17.09.06-.06-.06-.12-.11-.17-.16-.05-.05-.09-.1-.13-.15-.16-.17.07.09.08.12-.06-.12-.16-.22-.22-.34-.04-.07-.2-.43-.1-.18s0,0-.01-.05c-.03-.08-.05-.15-.07-.23s-.08-.48-.05-.19,0-.13,0-.2c0-.07,0-.13,0-.2,0-.16.1-.22-.02.12.04-.12.05-.26.09-.39.02-.05.12-.3.01-.05s0,0,.03-.04c.05-.1.1-.19.16-.28.08-.13.23-.2-.04.04.04-.03.07-.09.1-.12.09-.1.19-.2.29-.29s.29-.16-.05.03c.07-.04.13-.1.2-.14.12-.08.23-.15.36-.21.06-.03.13-.06.19-.09.12-.07-.36.12-.05.03.15-.05.29-.1.44-.13.05-.01.11-.03.16-.04.05-.01.11-.02.16-.03l-.23.03c.16,0,.33-.03.5-.03.14,0,.28.03.42.02-.35.02-.26-.05-.11-.01.09.02.19.04.28.07.76.2,1.66-.25,1.85-1.05s-.24-1.63-1.05-1.85h0Z" style="fill: #010101;"/>
  <path d="M43.18,145.52c-.85-.15-1.63-.06-2.41.34-.63.33-1.14.87-1.52,1.46-.79,1.24-.88,2.91-.09,4.17s2.19,1.98,3.67,2.13,2.87-.45,3.91-1.44c1.23-1.17,1.84-2.83,1.96-4.5.06-.78-.73-1.53-1.5-1.5-.86.04-1.44.66-1.5,1.5,0,.07-.04.44-.01.2.03-.25-.03.14-.04.2-.05.25-.12.5-.21.74-.13.35.1-.17-.02.07-.05.11-.1.21-.16.32s-.12.21-.18.3c-.04.06-.07.11-.11.17-.12.18.04,0,.05-.06-.03.15-.36.41-.48.51-.04.03-.13.1-.15.13,0,0,.24-.17.11-.08-.11.07-.22.15-.33.22-.09.05-.23.09-.31.16.03-.02.35-.12.11-.05-.04.01-.08.03-.13.04-.1.03-.2.06-.3.08-.05,0-.14.01-.18.03.05-.03.34-.03.13-.02s-.41,0-.62,0c-.26-.01.33.08,0,0-.11-.03-.23-.05-.34-.09-.06-.02-.11-.04-.17-.06-.14-.03.15.06.15.07-.07-.06-.19-.09-.27-.14-.09-.05-.17-.11-.26-.16-.15-.09.03-.07.1.08-.02-.04-.1-.08-.13-.11-.07-.07-.13-.16-.21-.22-.11-.09.1.12.1.13,0-.03-.08-.11-.1-.14-.05-.09-.09-.18-.15-.27-.08-.12.07.14.07.16,0-.02-.05-.18-.06-.21-.01-.03,0-.1-.03-.13.11.18.02.32.02.14,0-.09.02-.21,0-.3-.03-.13-.02.16-.03.19.02-.04.02-.12.03-.17.03-.11.06-.22.1-.33.05-.17.08,0-.05.12.03-.03.06-.12.08-.16.04-.07.18-.21.18-.29-.01.14-.2.23-.08.1.04-.04.08-.09.12-.13s.08-.08.12-.12c.14-.14-.05.05-.11.07.1-.04.22-.14.32-.2.27-.16-.29.07.02,0,.04,0,.08-.02.12-.03.24-.07-.28-.01-.11.01.12.02.55.06.07-.02.77.13,1.65-.2,1.85-1.05.17-.73-.22-1.7-1.05-1.85h0Z" style="fill: #010101;"/>
  <path d="M114.08,60.88c-1.05-.22-2.11-.06-3.04.49-.8.48-1.5,1.22-1.9,2.06-.46.97-.64,2.02-.39,3.08.24.98.88,1.78,1.69,2.36,1.46,1.04,3.47,1.03,5.05.28.76-.36,1.46-1.03,1.84-1.78.49-.96.59-1.97.41-3.03-.16-1-.71-1.96-1.4-2.68-.34-.35-.74-.67-1.18-.9-.59-.31-1.15-.45-1.81-.53-.36-.04-.82.2-1.06.44-.26.26-.46.69-.44,1.06s.14.79.44,1.06c.31.29.64.39,1.06.44.04,0-.38-.07-.23-.03.04.01.09.02.13.03.07.01.13.03.19.05.07.02.15.05.22.07.21.07-.34-.17-.08-.03.13.07.25.14.37.22.03.02.05.04.08.06.12.08-.2-.13-.17-.13.04,0,.17.14.2.18.11.1.2.21.3.32.2.22-.17-.25-.05-.06.04.07.09.13.13.2.08.12.15.25.21.38.01.03.03.06.04.09.07.13-.11-.21-.09-.2.03.02.08.21.09.25.04.14.08.28.11.42s0,.37,0-.1c0,.08.01.15.02.23,0,.14,0,.29-.01.43-.01.24.07-.37.02-.14-.02.09-.04.17-.06.26-.02.07-.05.15-.07.22-.04.14.08-.23.09-.2,0,0-.04.08-.04.09-.07.14-.16.26-.24.39-.06.1.14-.18.14-.18,0,0-.08.1-.08.09-.04.05-.08.09-.13.13s-.09.08-.14.12c-.15.14.15-.12.16-.12-.02,0-.08.06-.1.07-.11.07-.22.14-.34.2s-.35.11.11-.04c-.07.02-.13.05-.2.07-.13.04-.26.08-.39.1-.06.01-.12.02-.18.03.51-.1.23-.03.09-.02-.14,0-.27,0-.41,0-.07,0-.15-.01-.22-.02-.22-.02.41.07.12.01-.13-.03-.26-.05-.39-.09-.06-.02-.12-.04-.18-.06-.32-.11.25.12.08.03-.12-.06-.23-.12-.35-.19-.04-.02-.14-.12-.17-.12,0,0,.27.23.18.14-.03-.03-.06-.05-.09-.08-.05-.05-.21-.28-.27-.29,0,0,.2.28.14.18-.01-.03-.04-.05-.05-.08-.05-.07-.09-.14-.13-.21-.02-.03-.03-.06-.04-.09-.08-.13.11.22.08.2-.04-.02-.06-.18-.08-.23-.02-.08-.04-.15-.05-.23-.05-.22.02.4.02.1,0-.15,0-.29,0-.44.01-.24-.07.37-.02.13.02-.09.04-.18.06-.27s.06-.17.09-.26c.07-.21-.17.34-.03.07.08-.15.16-.31.26-.45.02-.02.06-.11.08-.11,0,0-.24.29-.11.14.05-.06.1-.12.16-.18.06-.07.13-.13.2-.19.03-.02.05-.04.08-.07.15-.14-.14.1-.14.11.07-.12.34-.23.46-.29.03-.02.06-.03.09-.04.13-.08-.32.11-.17.07.09-.02.17-.06.25-.08.08-.02.15-.04.23-.05.13-.03.19.04-.2.03.04,0,.09,0,.13,0,.08,0,.16,0,.24,0,.07,0,.24.03-.03,0-.29-.04-.05,0,0,0,.77.16,1.66-.22,1.85-1.05.17-.75-.23-1.67-1.05-1.85h0Z" style="fill: #010101;"/>
  <path d="M149.82,155.88c-.85-.7-1.81-.95-2.89-.75-.78.14-1.56.59-2.08,1.19-.69.79-1,1.78-.86,2.83.13.97.62,1.9,1.37,2.55.81.7,1.76,1.1,2.83,1.15,1,.05,2.04-.28,2.88-.8,1.71-1.06,2.99-3.08,2.83-5.14-.09-1.15-.56-2.25-1.48-2.97-.97-.78-2.2-1.16-3.43-.79-.75.22-1.3,1.06-1.05,1.85s1.04,1.28,1.85,1.05c.07-.02.15-.04.22-.06.18-.05-.31-.02-.13.02.03,0,.21.01.22,0-.02.02-.38-.08-.13-.02.07.02.29.12.35.1-.11.04-.28-.14-.11-.04.08.05.16.09.24.14.23.12-.08-.03-.08-.07,0,.02.15.13.17.15.04.04.09.09.13.13.2.22-.06,0-.03-.05,0,.01.17.28.19.32.12.23-.05-.08-.04-.1-.01.04.08.27.09.31,0,.03.05.17.04.21.05-.18-.02-.24-.02-.08s0,.32-.01.49c0,.22.09-.36,0-.02-.02.07-.03.14-.05.21-.01.06-.2.49-.17.52-.02-.02.16-.32.02-.06-.04.06-.07.13-.1.2-.08.14-.18.28-.26.42-.12.19.24-.26,0-.01-.05.05-.09.11-.14.16-.12.13-.25.25-.38.37s-.09,0,.06-.04c-.04,0-.13.1-.17.12-.13.09-.27.17-.41.24-.06.03-.13.06-.19.09-.19.1.35-.11.02-.01-.17.05-.33.09-.5.14-.23.06.09,0,.09,0-.01.01-.21.02-.21.02-.14,0-.28,0-.42,0-.34,0,.25.06.05,0-.06-.02-.12-.03-.19-.05-.02,0-.23-.08-.23-.07.01-.02.34.16.05.01-.1-.05-.26-.2-.37-.22.03,0,.27.23.08.06-.05-.04-.1-.09-.14-.13s-.09-.09-.13-.14c-.23-.22.14.21.03.04-.09-.13-.16-.27-.24-.41-.1-.17.1.36.03.06-.02-.06-.04-.12-.05-.18s-.02-.13-.04-.18c.1.28.02.26.02.12,0-.06,0-.13,0-.19-.02-.31-.07.24-.02.08.02-.05.03-.1.04-.15.07-.31-.11.18-.04.07.04-.06.27-.44.11-.21-.14.2-.04.05.01,0,.06-.05.12-.11.17-.16.11-.14-.27.17-.12.09.07-.04.13-.09.2-.13.05-.03.1-.05.14-.07.12-.07-.37.12-.07.03.08-.02.51-.11.22-.07s.15.02.22.01c.18-.01-.34-.09-.17-.02.06.03.15.05.22.06.17.03-.28-.17-.15-.06.07.06.36.27-.01-.04.61.5,1.54.64,2.12,0,.5-.55.65-1.59,0-2.12h0Z" style="fill: #010101;"/>
</svg>