<?xml version="1.0" encoding="UTF-8"?>
<svg id="Layer_1" data-name="Layer 1" xmlns="http://www.w3.org/2000/svg" viewBox="0 0 256.61 202.03">
  <path d="M82.09,4.27c-7.3,4.73-14.92,8.97-22.55,13.15-8.42,4.61-16.93,9.09-25.45,13.52-7.43,3.87-15.24,7.38-22.21,12.04-3.61,2.41-7.07,5.28-9.37,9.01C.02,56.02-.59,60.74.55,65.32c.78,3.15,2.23,6.1,3.63,9.02,1.57,3.27,3.14,6.54,4.72,9.81,3.14,6.54,6.29,13.07,9.43,19.61.84,1.74,3.42.22,2.59-1.51-2.72-5.65-5.43-11.29-8.15-16.94s-5.48-10.88-7.85-16.47c-1.91-4.5-2.85-9.41-.59-13.96,1.85-3.73,5.1-6.58,8.48-8.91,6.68-4.6,14.25-7.99,21.43-11.72,8.19-4.26,16.37-8.55,24.48-12.96s16.84-9.21,24.88-14.42c1.61-1.05.11-3.64-1.51-2.59h0Z" style="fill: #010101;"/>
  <path d="M22.55,105.12c11.57-5.32,20.92-14.29,32.49-19.61,1.75-.81.23-3.39-1.51-2.59-11.57,5.32-20.92,14.29-32.49,19.61-1.75.81-.23,3.39,1.51,2.59h0Z" style="fill: #010101;"/>
  <path d="M54.1,89.1c1.15,13.29,1.3,26.67.42,39.98-.44,6.68-1.13,13.35-2.09,19.98-.8,5.48-1.85,10.92-2.49,16.43-1.09,9.43-1.06,19.99,5.17,27.78,6.57,8.21,17.56,9.43,27.37,8.51,5.63-.53,11.18-1.67,16.74-2.67,6.59-1.19,13.2-2.3,19.84-3.17,13.14-1.72,26.48-2.53,39.69-1.17,10.66,1.1,23.46,5.03,32.08-3.69,6.34-6.41,7.22-16.4,6.98-24.94-.16-5.72-.88-11.44-1.42-17.13-.64-6.77-1.29-13.54-1.93-20.31-1.29-13.54-2.58-27.08-3.86-40.63-.31-3.3-.63-6.61-.94-9.91-.18-1.91-3.18-1.92-3,0,2.5,26.26,4.99,52.52,7.49,78.78.83,8.77,1.82,18.64-1.98,26.91-1.77,3.86-4.72,7.04-8.74,8.59-5.38,2.07-11.41,1.18-16.95.36-12.56-1.85-25.09-2.08-37.73-.94s-25.32,3.52-37.92,5.74c-9.24,1.63-20.26,3.16-28.68-2.06s-10.14-15.56-9.65-24.83c.26-4.82,1.01-9.59,1.81-14.35,1.05-6.31,1.92-12.64,2.55-19.01,1.26-12.87,1.56-25.84.91-38.76-.16-3.17-.38-6.33-.65-9.49-.16-1.91-3.17-1.93-3,0h0Z" style="fill: #010101;"/>
  <path d="M188.65,75.3c8.04,10.92,19.84,18.78,33.07,21.85.68.16,1.32-.11,1.69-.69,6.56-10.03,13.26-20.22,22.34-28.18,2.2-1.92,4.52-3.69,6.99-5.25,2.28-1.44,4.47-3.15,3.71-6.19-.71-2.87-3.34-4.77-5.53-6.48-2.5-1.95-5.05-3.85-7.65-5.68-10.01-7.05-20.74-12.98-31.88-18.05-8.48-3.86-17.07-7.46-25.52-11.41-9-4.21-18.1-8.4-26.75-13.3-1.68-.95-3.2,1.64-1.51,2.59,7.36,4.16,15.05,7.77,22.68,11.38s15.35,7.17,23.14,10.49c11.08,4.71,21.86,10.11,32,16.62,5.21,3.35,10.31,6.94,15.11,10.85.99.8,1.99,1.7,2.62,2.82.72,1.29.39,2.23-.8,3.04-2.34,1.59-4.68,3.08-6.88,4.87-10.2,8.28-17.54,19.47-24.67,30.36l1.69-.69c-12.43-2.88-23.69-10.19-31.27-20.47-1.13-1.54-3.74-.04-2.59,1.51h0Z" style="fill: #010101;"/>
  <path d="M81.38,6.56c18.69,13.17,45.15,21.44,66.09,8.27,4.95-3.12,9.15-7.37,11.9-12.56.9-1.71-1.69-3.22-2.59-1.51-4.73,8.95-13.84,14.45-23.51,16.64-10.92,2.48-22.38.52-32.65-3.6-6.28-2.52-12.19-5.94-17.72-9.83-1.58-1.11-3.08,1.49-1.51,2.59h0Z" style="fill: #010101;"/>
</svg>